SplineFontDB: 3.0
FontName: xwing-miniatures
FullName: x-wing-symbols
FamilyName: x-wing-symbols
Weight: Book
Copyright: SIL Open Font License
Version: 10.1
ItalicAngle: 0
UnderlinePosition: 0
UnderlineWidth: 0
Ascent: 750
Descent: 250
InvalidEm: 0
sfntRevision: 0x00010000
LayerCount: 2
Layer: 0 1 "Arri+AOgA-re" 1
Layer: 1 1 "Avant" 0
XUID: [1021 46 1010697073 19033]
StyleMap: 0x0040
FSType: 0
OS2Version: 3
OS2_WeightWidthSlopeOnly: 0
OS2_UseTypoMetrics: 0
CreationTime: 1515980176
ModificationTime: 1535301928
PfmFamily: 81
TTFWeight: 400
TTFWidth: 5
LineGap: 0
VLineGap: 0
Panose: 0 0 0 0 0 0 0 0 0 0
OS2TypoAscent: 750
OS2TypoAOffset: 0
OS2TypoDescent: -250
OS2TypoDOffset: 0
OS2TypoLinegap: 0
OS2WinAscent: 1108
OS2WinAOffset: 0
OS2WinDescent: 294
OS2WinDOffset: 0
HheadAscent: 750
HheadAOffset: 0
HheadDescent: -250
HheadDOffset: 0
OS2SubXSize: 700
OS2SubYSize: 650
OS2SubXOff: 0
OS2SubYOff: 140
OS2SupXSize: 700
OS2SupYSize: 650
OS2SupXOff: 0
OS2SupYOff: 477
OS2StrikeYSize: 50
OS2StrikeYPos: 250
OS2CapHeight: 700
OS2XHeight: 500
OS2Vendor: '    '
OS2CodePages: 203f00ff.ddfd0000
OS2UnicodeRanges: 00000001.00000000.00000000.00000000
MarkAttachClasses: 1
DEI: 91125
ShortTable: maxp 16
  1
  0
  161
  1712
  40
  0
  0
  1
  0
  0
  0
  0
  0
  0
  0
  0
EndShort
LangName: 1033 "" "" "wing-symbols" "FontForge 2.0 : x-wing-symb" "" "Version 10.1" "" "" "" "" "" "" "" "SIL Open Font License" "http://scripts.sil.org/OFL"
GaspTable: 1 65535 2 0
Encoding: UnicodeBmp
UnicodeInterp: none
NameList: AGL For New Fonts
DisplaySize: -48
AntiAlias: 1
FitToEm: 0
WinInfo: 0 38 14
BeginChars: 65538 163

StartChar: .notdef
Encoding: 65536 -1 0
Width: 530
Flags: W
LayerCount: 2
Fore
SplineSet
50 100 m 1,0,1
 125 100 125 100 350 100 c 1,2,3
 350 270 350 270 350 778 c 1,4,5
 276 778 276 778 50 778 c 1,6,7
 50 757 50 757 50 693 c 0,8,9
 50 545 50 545 50 100 c 1,0,1
0 828 m 1,10,11
 100 828 100 828 400 828 c 1,12,13
 400 634 400 634 400 50 c 1,14,15
 299 50 299 50 0 50 c 1,16,17
 0 244 0 244 0 828 c 1,10,11
EndSplineSet
Validated: 1
EndChar

StartChar: exclam
Encoding: 33 33 4
Width: 1017
GlyphClass: 2
Flags: W
LayerCount: 2
Fore
SplineSet
464 665 m 1,0,1
 460 729 460 729 421 785 c 1,2,3
 450 819 450 819 509 886 c 1,4,5
 531 861 531 861 599 785 c 1,6,7
 559 728 559 728 555 665 c 1,8,9
 593 722 593 722 641 741 c 1,10,11
 660 720 660 720 697 677 c 1,12,13
 656 659 656 659 635 636 c 128,-1,14
 614 613 614 613 607 599 c 0,15,16
 577 537 577 537 574 496 c 0,17,18
 573 479 573 479 573 470 c 0,19,20
 573 465 573 465 573 457 c 0,21,22
 573 454 573 454 573 446 c 0,23,24
 573 437 573 437 579 408 c 0,25,26
 586 379 586 379 605 349 c 1,27,28
 639 309 639 309 684 309 c 0,29,30
 704 310 704 310 724 317 c 0,31,32
 755 327 755 327 784 354 c 0,33,34
 864 436 864 436 864 542 c 0,35,36
 864 546 864 546 864 554 c 0,37,38
 859 608 859 608 844 648 c 0,39,40
 812 731 812 731 784 765 c 0,41,42
 757 800 757 800 754 803 c 256,43,44
 751 806 751 806 755 804 c 0,45,46
 757 803 757 803 757 805 c 1,47,48
 867 733 867 733 928 625 c 0,49,50
 989 518 989 518 988 406 c 0,51,52
 988 397 988 397 988 378 c 0,53,54
 988 375 988 375 988 367 c 0,55,56
 988 365 988 365 988 358 c 0,57,58
 988 356 988 356 988 350 c 0,59,60
 988 298 988 298 954 210 c 0,61,62
 921 125 921 125 854 54 c 0,63,64
 791 -15 791 -15 701 -55 c 0,65,66
 612 -96 612 -96 509 -96 c 0,67,68
 407 -96 407 -96 318 -56 c 0,69,70
 138 26 138 26 64 214 c 0,71,72
 30 299 30 299 30 391 c 0,73,74
 30 396 30 396 30 406 c 0,75,76
 35 525 35 525 93 629 c 128,-1,77
 151 733 151 733 259 805 c 0,78,79
 262 803 262 803 264 804 c 0,80,81
 265 805 265 805 262 802 c 0,82,83
 260 800 260 800 244 780 c 0,84,85
 203 726 203 726 180 662 c 256,86,87
 157 598 157 598 156 554 c 0,88,89
 156 547 156 547 156 535 c 0,90,91
 156 534 156 534 156 528 c 0,92,93
 156 527 156 527 156 523 c 0,94,95
 156 522 156 522 156 519 c 0,96,97
 156 498 156 498 173 449 c 0,98,99
 192 399 192 399 236 354 c 0,100,101
 276 317 276 317 322 310 c 0,102,103
 329 309 329 309 335 309 c 0,104,105
 379 310 379 310 412 349 c 1,106,107
 446 400 446 400 446 468 c 0,108,109
 446 482 446 482 445 496 c 0,110,111
 442 539 442 539 412 599 c 0,112,113
 399 625 399 625 374 646 c 256,114,115
 349 667 349 667 323 677 c 1,116,117
 342 698 342 698 379 741 c 1,118,119
 427 720 427 720 464 665 c 1,0,1
EndSplineSet
Validated: 33
EndChar

StartChar: quotedbl
Encoding: 34 34 5
Width: 625
GlyphClass: 2
Flags: W
LayerCount: 2
Fore
SplineSet
509 464 m 1,0,-1
 159 464 l 1,1,-1
 159 563 l 1,2,-1
 605 563 l 1,3,-1
 605 4 l 1,4,-1
 509 4 l 1,5,-1
 509 464 l 1,0,-1
102 394 m 1,6,-1
 440 204 l 1,7,-1
 100 14 l 1,8,-1
 102 156 l 1,9,-1
 -20 156 l 1,10,-1
 -20 252 l 1,11,-1
 102 252 l 1,12,-1
 102 394 l 1,6,-1
EndSplineSet
Validated: 1
EndChar

StartChar: numbersign
Encoding: 35 35 6
Width: 760
GlyphClass: 2
Flags: W
LayerCount: 2
Fore
SplineSet
713 357 m 0,0,1
 722 328 722 328 726 305 c 0,2,3
 732 280 732 280 731 256 c 0,4,5
 731 253 731 253 731 248 c 0,6,7
 731 222 731 222 719 193 c 0,8,9
 709 168 709 168 686 153 c 0,10,11
 663 140 663 140 641 137 c 0,12,13
 620 134 620 134 597 134 c 0,14,15
 589 134 589 134 576 138 c 0,16,17
 564 142 564 142 555 147 c 0,18,19
 546 153 546 153 546 159 c 0,20,21
 546 164 546 164 563 166 c 0,22,23
 573 167 573 167 581 167 c 0,24,25
 590 167 590 167 601 172 c 0,26,27
 617 177 617 177 630 191 c 0,28,29
 638 198 638 198 643 209 c 0,30,31
 649 221 649 221 650 233 c 0,32,33
 653 246 653 246 653 258 c 0,34,35
 653 271 653 271 650 281 c 0,36,37
 647 293 647 293 640 304 c 0,38,39
 633 316 633 316 627 326 c 0,40,41
 616 347 616 347 606 360 c 0,42,43
 596 374 596 374 582 391 c 0,44,45
 570 404 570 404 561 413 c 0,46,47
 551 423 551 423 541 434 c 0,48,49
 535 436 535 436 532 442 c 0,50,51
 529 447 529 447 523 449 c 0,52,53
 518 451 518 451 518 456 c 0,54,55
 516 462 516 462 509 463 c 0,56,57
 508 465 508 465 508 468 c 0,58,59
 508 473 508 473 511 480 c 0,60,61
 514 491 514 491 518 503 c 0,62,63
 523 515 523 515 527 525 c 0,64,65
 532 535 532 535 534 540 c 0,66,67
 537 543 537 543 541 549 c 0,68,69
 545 556 545 556 550 563 c 0,70,71
 556 570 556 570 561 575 c 0,72,73
 564 579 564 579 566 579 c 128,-1,74
 568 579 568 579 569 578 c 0,75,76
 574 577 574 577 588 565 c 0,77,78
 601 552 601 552 604 546 c 0,79,80
 615 537 615 537 623 525 c 0,81,82
 632 512 632 512 639 501 c 0,83,84
 647 489 647 489 655 481 c 0,85,86
 665 471 665 471 671 460 c 0,87,88
 684 436 684 436 695 409 c 0,89,90
 707 378 707 378 713 357 c 0,0,1
234 472 m 0,91,92
 240 468 240 468 249 460 c 0,93,94
 259 451 259 451 263 447 c 0,95,96
 264 444 264 444 264 441 c 0,97,98
 264 432 264 432 257 426 c 0,99,100
 248 419 248 419 241 413 c 0,101,102
 231 403 231 403 222 395 c 128,-1,103
 213 387 213 387 200 378 c 0,104,105
 186 369 186 369 181 360 c 0,106,107
 175 350 175 350 165 336 c 0,108,109
 150 318 150 318 136 304 c 0,110,111
 123 288 123 288 113 264 c 0,112,113
 105 243 105 243 105 224 c 0,114,115
 105 217 105 217 106 212 c 0,116,117
 112 180 112 180 122 162 c 0,118,119
 136 139 136 139 159 134 c 0,120,121
 172 132 172 132 186 132 c 0,122,123
 195 132 195 132 205 133 c 0,124,125
 216 134 216 134 226 135 c 0,126,127
 237 137 237 137 235 120 c 0,128,129
 234 102 234 102 221 96 c 0,130,131
 207 91 207 91 193 88 c 0,132,133
 178 85 178 85 162 85 c 0,134,135
 142 86 142 86 128 89 c 0,136,137
 112 92 112 92 101 102 c 128,-1,138
 90 112 90 112 79 125 c 0,139,140
 60 143 60 143 50 165 c 0,141,142
 38 187 38 187 33 215 c 0,143,144
 30 239 30 239 30 248 c 0,145,146
 30 252 30 252 30 254 c 128,-1,147
 30 256 30 256 30 258 c 0,148,149
 30 267 30 267 33 279 c 0,150,151
 35 286 35 286 42 307 c 0,152,153
 46 321 46 321 52 336 c 0,154,155
 62 376 62 376 79 413 c 0,156,157
 97 449 97 449 124 478 c 0,158,159
 128 484 128 484 145 497 c 0,160,161
 162 511 162 511 175 513 c 0,162,163
 180 515 180 515 184 515 c 256,164,165
 188 515 188 515 190 512 c 0,166,167
 197 507 197 507 203 501 c 0,168,169
 211 490 211 490 218 485 c 0,170,171
 223 478 223 478 234 472 c 0,91,92
335 148 m 0,172,173
 338 142 338 142 338 129 c 0,174,175
 338 126 338 126 338 124 c 0,176,177
 337 107 337 107 337 98 c 0,178,179
 337 90 337 90 337 76 c 0,180,181
 337 73 337 73 337 64 c 0,182,183
 337 62 337 62 337 57 c 0,184,185
 338 53 338 53 336 31 c 0,186,187
 333 -13 333 -13 331 -35 c 1,188,189
 320 -26 320 -26 320 -13 c 0,190,191
 320 1 320 1 318 13 c 0,192,193
 315 28 315 28 313 42 c 128,-1,194
 311 56 311 56 309 70 c 0,195,196
 308 73 308 73 305 92 c 0,197,198
 301 112 301 112 299 132 c 0,199,200
 298 142 298 142 298 146 c 0,201,202
 299 158 299 158 300 166 c 0,203,204
 302 177 302 177 309 177 c 0,205,206
 311 177 311 177 313 176 c 1,207,208
 311 175 311 175 309 175 c 1,209,210
 316 168 316 168 323 161 c 0,211,212
 331 154 331 154 335 148 c 0,172,173
472 96 m 0,213,214
 473 86 473 86 473 76 c 0,215,216
 473 60 473 60 470 42 c 0,217,218
 465 11 465 11 465 -13 c 0,219,220
 465 -25 465 -25 467 -37 c 0,221,222
 469 -50 469 -50 469 -62 c 0,223,224
 469 -65 469 -65 467 -73 c 256,225,226
 465 -81 465 -81 462 -89 c 0,227,228
 459 -98 459 -98 454 -103 c 0,229,230
 452 -105 452 -105 450 -105 c 0,231,232
 447 -105 447 -105 445 -101 c 0,233,234
 439 -99 439 -99 442 -89 c 0,235,236
 445 -78 445 -78 446 -73 c 0,237,238
 446 -65 446 -65 447 -56 c 256,239,240
 448 -47 448 -47 446 -38 c 0,241,242
 445 -24 445 -24 441 -9 c 0,243,244
 436 6 436 6 437 21 c 0,245,246
 435 37 435 37 435 52 c 0,247,248
 435 54 435 54 435 60 c 1,249,250
 436 60 436 60 436 63 c 0,251,252
 436 80 436 80 431 98 c 0,253,254
 426 112 426 112 424 128 c 0,255,256
 423 130 423 130 423 132 c 0,257,258
 423 145 423 145 437 154 c 1,259,-1
 435 154 l 1,260,261
 441 161 441 161 448 163 c 0,262,263
 450 163 450 163 451 163 c 0,264,265
 457 163 457 163 459 157 c 0,266,267
 461 154 461 154 461 142 c 0,268,269
 461 131 461 131 462 126 c 0,270,271
 465 117 465 117 467 111 c 0,272,273
 469 103 469 103 472 96 c 0,213,214
542 667 m 0,274,275
 549 652 549 652 549 633 c 0,276,277
 549 629 549 629 549 622 c 0,278,279
 546 596 546 596 533 578 c 0,280,281
 510 548 510 548 506 542 c 0,282,283
 494 523 494 523 492 499 c 0,284,285
 490 488 490 488 483 482 c 0,286,287
 475 475 475 475 468 468 c 0,288,289
 461 462 461 462 455 455 c 128,-1,290
 449 448 449 448 448 437 c 0,291,292
 446 428 446 428 452 420 c 0,293,294
 459 412 459 412 461 404 c 0,295,296
 463 394 463 394 460 379 c 0,297,298
 457 363 457 363 454 354 c 0,299,300
 449 346 449 346 446 338 c 0,301,302
 443 329 443 329 440 320 c 0,303,304
 438 309 438 309 440 298 c 0,305,306
 443 286 443 286 440 275 c 0,307,308
 440 254 440 254 444 236 c 0,309,310
 447 223 447 223 447 210 c 0,311,312
 446 200 446 200 446 196 c 0,313,314
 446 185 446 185 441 177 c 0,315,316
 435 170 435 170 429 162 c 0,317,318
 423 155 423 155 419 147 c 0,319,320
 414 139 414 139 414 126 c 0,321,322
 417 110 417 110 419 95 c 0,323,324
 420 79 420 79 420 65 c 1,325,326
 420 67 420 67 420 70 c 0,327,328
 420 72 420 72 421 73 c 1,329,330
 421 62 421 62 421 41 c 0,331,332
 422 32 422 32 423 9 c 0,333,334
 424 2 424 2 424 -22 c 0,335,336
 424 -26 424 -26 424 -33 c 0,337,338
 423 -40 423 -40 425 -54 c 0,339,340
 430 -73 430 -73 431 -91 c 0,341,342
 432 -110 432 -110 432 -130 c 0,343,344
 432 -143 432 -143 432 -155 c 0,345,346
 431 -166 431 -166 418 -174 c 1,347,348
 411 -173 411 -173 403 -178 c 0,349,350
 400 -179 400 -179 398 -179 c 0,351,352
 392 -179 392 -179 388 -174 c 0,353,354
 387 -173 387 -173 387 -166 c 0,355,356
 387 -162 387 -162 387 -154 c 0,357,358
 387 -151 387 -151 387 -141 c 0,359,360
 388 -139 388 -139 388 -132 c 0,361,362
 388 -130 388 -130 388 -124 c 0,363,364
 388 -123 388 -123 388 -119 c 0,365,366
 388 -118 388 -118 388 -115 c 0,367,368
 388 -114 388 -114 388 -112 c 0,369,370
 388 -111 388 -111 388 -109 c 0,371,372
 388 -108 388 -108 388 -107 c 0,373,374
 387 -102 387 -102 393 -78 c 0,375,376
 398 -62 398 -62 397 -38 c 0,377,378
 398 -33 398 -33 397 -25 c 0,379,380
 392 10 392 10 391 16 c 0,381,382
 387 29 387 29 387 42 c 0,383,384
 387 49 387 49 388 57 c 0,385,386
 390 75 390 75 394 111 c 0,387,388
 395 120 395 120 395 129 c 0,389,390
 394 151 394 151 392 164 c 0,391,392
 389 183 389 183 387 230 c 0,393,394
 386 233 386 233 386 236 c 0,395,396
 391 275 391 275 401 295 c 0,397,398
 414 322 414 322 417 346 c 0,399,400
 419 360 419 360 419 373 c 0,401,402
 419 387 419 387 417 399 c 1,403,404
 411 388 411 388 404 379 c 0,405,406
 398 369 398 369 394 360 c 0,407,408
 388 347 388 347 389 338 c 0,409,410
 390 325 390 325 392 316 c 0,411,412
 393 309 393 309 393 305 c 0,413,414
 392 286 392 286 388 274 c 0,415,416
 385 264 385 264 381 255 c 0,417,418
 377 245 377 245 375 236 c 1,419,420
 374 249 374 249 371 258 c 0,421,422
 368 268 368 268 363 281 c 0,423,424
 360 290 360 290 357 301 c 0,425,426
 355 312 355 312 360 322 c 0,427,428
 364 336 364 336 365 342 c 0,429,430
 367 350 367 350 355 360 c 0,431,432
 348 368 348 368 343 374 c 0,433,434
 337 381 337 381 334 391 c 1,435,436
 332 377 332 377 332 362 c 0,437,438
 332 350 332 350 333 342 c 0,439,440
 336 313 336 313 347 295 c 0,441,442
 356 281 356 281 357 278 c 0,443,444
 363 271 363 271 365 261 c 0,445,446
 366 250 366 250 365 238 c 0,447,448
 365 226 365 226 365 215 c 0,449,450
 365 202 365 202 365 192 c 0,451,452
 366 180 366 180 371 167 c 0,453,454
 375 155 375 155 376 148 c 0,455,456
 376 140 376 140 375 126 c 0,457,458
 375 101 375 101 378 79 c 0,459,460
 378 68 378 68 377 57 c 0,461,462
 376 47 376 47 375 36 c 0,463,464
 375 22 375 22 371 6 c 0,465,466
 368 -9 368 -9 371 -23 c 0,467,468
 373 -35 373 -35 375 -46 c 0,469,470
 376 -61 376 -61 376 -71 c 0,471,472
 376 -100 376 -100 371 -120 c 0,473,474
 368 -133 368 -133 368 -143 c 0,475,476
 369 -159 369 -159 371 -170 c 1,477,478
 362 -168 362 -168 359 -162 c 128,-1,479
 356 -156 356 -156 352 -150 c 0,480,481
 348 -146 348 -146 344 -144 c 256,482,483
 340 -142 340 -142 337 -139 c 0,484,485
 330 -131 330 -131 332 -121 c 0,486,487
 335 -111 335 -111 337 -100 c 0,488,489
 338 -87 338 -87 338 -74 c 0,490,491
 338 -62 338 -62 342 -47 c 0,492,493
 347 -27 347 -27 347 -5 c 0,494,495
 346 10 346 10 346 16 c 0,496,497
 347 39 347 39 349 52 c 0,498,499
 353 92 353 92 354 109 c 0,500,501
 356 124 356 124 358 138 c 0,502,503
 361 152 361 152 352 161 c 0,504,505
 343 169 343 169 333 174 c 0,506,507
 323 181 323 181 314 191 c 0,508,509
 304 200 304 200 301 207 c 0,510,511
 297 214 297 214 300 228 c 128,-1,512
 303 242 303 242 304 255 c 0,513,514
 304 269 304 269 304 283 c 0,515,516
 304 296 304 296 306 308 c 0,517,518
 307 322 307 322 307 335 c 0,519,520
 308 348 308 348 307 360 c 0,521,522
 305 371 305 371 295 380 c 0,523,524
 291 386 291 386 287 388 c 0,525,526
 284 390 284 390 280 399 c 0,527,528
 278 404 278 404 279 411 c 256,529,530
 280 418 280 418 280 424 c 0,531,532
 280 434 280 434 282 448 c 0,533,534
 284 463 284 463 276 471 c 0,535,536
 272 473 272 473 265 472 c 0,537,538
 258 472 258 472 255 474 c 0,539,540
 253 475 253 475 247 480 c 0,541,542
 241 484 241 484 239 487 c 0,543,544
 228 493 228 493 221 505 c 0,545,546
 213 517 213 517 207 529 c 0,547,548
 201 536 201 536 199 546 c 0,549,550
 197 557 197 557 199 567 c 1,551,552
 186 572 186 572 185 581 c 0,553,554
 183 587 183 587 183 593 c 0,555,556
 183 596 183 596 183 599 c 0,557,558
 184 609 184 609 188 619 c 0,559,560
 193 631 193 631 194 640 c 0,561,562
 196 653 196 653 201 664 c 2,563,-1
 213 685 l 2,564,565
 214 687 214 687 217 690 c 0,566,567
 220 692 220 692 222 694 c 0,568,569
 228 700 228 700 230 696 c 1,570,571
 239 699 239 699 239 687 c 1,572,573
 237 687 237 687 235 688 c 1,574,575
 237 679 237 679 239 666 c 0,576,577
 241 652 241 652 241 646 c 0,578,579
 239 639 239 639 237 632 c 0,580,581
 235 626 235 626 237 616 c 128,-1,582
 239 606 239 606 243 604 c 0,583,584
 246 603 246 603 255 594 c 0,585,586
 268 581 268 581 279 571 c 0,587,588
 297 554 297 554 305 549 c 0,589,590
 314 544 314 544 323 532 c 0,591,592
 332 522 332 522 338 512 c 1,593,594
 337 518 337 518 336 524 c 0,595,596
 334 529 334 529 334 535 c 0,597,598
 331 547 331 547 329 558 c 0,599,600
 327 570 327 570 325 581 c 0,601,602
 324 592 324 592 321 600 c 0,603,604
 319 609 319 609 317 618 c 0,605,606
 314 629 314 629 312 638 c 0,607,608
 310 648 310 648 301 654 c 0,609,610
 297 661 297 661 289 666 c 0,611,612
 281 672 281 672 276 678 c 0,613,614
 267 687 267 687 261 694 c 0,615,616
 253 701 253 701 246 708 c 0,617,618
 230 721 230 721 227 738 c 0,619,620
 225 752 225 752 225 764 c 0,621,622
 225 767 225 767 225 773 c 0,623,624
 227 786 227 786 235 798 c 0,625,626
 244 811 244 811 257 817 c 0,627,628
 270 824 270 824 284 825 c 0,629,630
 299 825 299 825 311 815 c 1,631,632
 303 801 303 801 298 782 c 0,633,634
 292 763 292 763 290 753 c 1,635,636
 292 758 292 758 293 760 c 0,637,638
 293 762 293 762 295 765 c 1,639,640
 299 758 299 758 302 756 c 0,641,642
 304 754 304 754 306 752 c 0,643,644
 307 751 307 751 309 749 c 0,645,646
 315 746 315 746 319 746 c 0,647,648
 325 745 325 745 327 740 c 0,649,650
 325 737 325 737 324 733 c 0,651,652
 324 728 324 728 322 722 c 0,653,654
 318 706 318 706 318 698 c 0,655,656
 318 688 318 688 320 688 c 1,657,658
 320 700 320 700 321 703 c 0,659,660
 323 705 323 705 327 715 c 0,661,662
 330 723 330 723 333 727 c 0,663,664
 336 732 336 732 338 740 c 0,665,666
 336 745 336 745 341 752 c 1,667,668
 335 752 335 752 327 755 c 0,669,670
 320 758 320 758 318 765 c 1,671,672
 313 765 313 765 311 763 c 1,673,674
 311 785 311 785 322 811 c 0,675,676
 324 813 324 813 327 816 c 0,677,678
 331 818 331 818 334 820 c 0,679,680
 341 824 341 824 350 822 c 0,681,682
 360 820 360 820 366 822 c 0,683,684
 376 822 376 822 385 826 c 0,685,686
 394 829 394 829 403 829 c 128,-1,687
 412 829 412 829 418 826 c 0,688,689
 423 823 423 823 434 825 c 0,690,691
 440 828 440 828 443 831 c 0,692,693
 447 834 447 834 454 833 c 0,694,695
 460 833 460 833 464 831 c 128,-1,696
 468 829 468 829 473 832 c 0,697,698
 483 834 483 834 488 835 c 0,699,700
 490 835 490 835 492 835 c 0,701,702
 497 835 497 835 504 832 c 0,703,704
 514 825 514 825 515 816 c 0,705,706
 515 807 515 807 517 797 c 0,707,708
 518 788 518 788 521 782 c 0,709,710
 524 774 524 774 521 765 c 0,711,712
 521 752 521 752 514 745 c 0,713,714
 506 738 506 738 501 728 c 0,715,716
 494 716 494 716 488 706 c 0,717,718
 483 696 483 696 473 688 c 128,-1,719
 463 680 463 680 451 677 c 256,720,721
 439 674 439 674 431 667 c 128,-1,722
 423 660 423 660 412 653 c 0,723,724
 402 645 402 645 397 636 c 1,725,726
 387 633 387 633 386 617 c 0,727,728
 383 601 383 601 383 579 c 0,729,730
 383 558 383 558 386 537 c 0,731,732
 388 517 388 517 388 508 c 1,733,734
 391 516 391 516 393 525 c 0,735,736
 394 534 394 534 396 543 c 0,737,738
 399 552 399 552 404 560 c 0,739,740
 409 569 409 569 417 574 c 0,741,742
 422 580 422 580 429 584 c 128,-1,743
 436 588 436 588 443 591 c 0,744,745
 451 597 451 597 458 604 c 0,746,747
 465 610 465 610 475 615 c 1,748,749
 486 632 486 632 492 646 c 0,750,751
 501 664 501 664 501 680 c 0,752,753
 501 685 501 685 504 695 c 0,754,755
 506 705 506 705 511 715 c 0,756,757
 516 726 516 726 522 733 c 128,-1,758
 528 740 528 740 534 740 c 1,759,760
 537 729 537 729 533 720 c 0,761,762
 530 711 530 711 531 699 c 0,763,764
 534 682 534 682 542 667 c 0,274,275
EndSplineSet
Validated: 33
EndChar

StartChar: percent
Encoding: 37 37 7
Width: 922
GlyphClass: 2
Flags: W
LayerCount: 2
Fore
SplineSet
713 157 m 0,0,1
 713 140 713 140 711 137 c 0,2,3
 708 132 708 132 697 132 c 0,4,5
 695 132 695 132 693 132 c 0,6,7
 680 133 680 133 671 136 c 0,8,9
 661 139 661 139 640 150 c 0,10,11
 614 165 614 165 597 178 c 0,12,13
 568 202 568 202 540 225 c 0,14,15
 507 253 507 253 466 293 c 0,16,17
 369 393 369 393 289 484 c 0,18,19
 210 575 210 575 151 645 c 0,20,21
 83 726 83 726 30 797 c 1,22,23
 101 745 101 745 185 680 c 0,24,25
 256 625 256 625 348 547 c 0,26,27
 441 469 441 469 540 375 c 0,28,29
 599 314 599 314 611 300 c 0,30,31
 659 244 659 244 660 244 c 0,32,33
 674 228 674 228 695 196 c 0,34,35
 713 167 713 167 713 157 c 0,0,1
238 353 m 0,36,37
 258 342 258 342 271 337 c 0,38,39
 285 331 285 331 292 330 c 256,40,41
 299 329 299 329 301 331 c 256,42,43
 303 333 303 333 302 337 c 0,44,45
 299 346 299 346 282 366 c 0,46,47
 198 453 198 453 30 626 c 1,48,49
 113 550 113 550 195 477 c 0,50,51
 230 446 230 446 268 411 c 0,52,53
 306 378 306 378 344 344 c 0,54,55
 383 310 383 310 419 278 c 0,56,57
 466 237 466 237 487 218 c 0,58,59
 610 112 610 112 686 72 c 0,60,61
 721 53 721 53 745 54 c 0,62,63
 766 54 766 54 779 70 c 0,64,65
 779 72 779 72 780 77 c 2,66,67
 780 77 780 77 780 79 c 0,68,69
 781 86 781 86 771 108 c 0,70,71
 756 138 756 138 733 180 c 0,72,73
 706 224 706 224 674 272 c 0,74,75
 636 328 636 328 605 372 c 0,76,77
 521 489 521 489 409 634 c 1,78,79
 457 593 457 593 499 556 c 0,80,81
 517 541 517 541 535 524 c 0,82,83
 554 506 554 506 570 491 c 0,84,85
 586 475 586 475 600 463 c 0,86,87
 615 450 615 450 622 440 c 0,88,89
 630 431 630 431 636 444 c 0,90,91
 642 456 642 456 645 473 c 0,92,93
 650 494 650 494 651 522 c 1,94,95
 686 453 686 453 717 399 c 0,96,97
 729 375 729 375 741 354 c 0,98,99
 754 333 754 333 764 315 c 0,100,101
 776 297 776 297 782 288 c 0,102,103
 789 278 789 278 792 278 c 0,104,105
 800 278 800 278 806 296 c 0,106,107
 812 315 812 315 816 337 c 0,108,109
 820 364 820 364 823 396 c 1,110,111
 856 323 856 323 873 259 c 0,112,113
 885 215 885 215 892 142 c 0,114,115
 893 132 893 132 893 122 c 0,116,117
 893 80 893 80 884 48 c 0,118,119
 873 7 873 7 851 -17 c 0,120,121
 840 -30 840 -30 826 -34 c 0,122,123
 806 -41 806 -41 791 -41 c 0,124,125
 787 -41 787 -41 780 -41 c 0,126,127
 776 -41 776 -41 772 -41 c 0,128,129
 763 -41 763 -41 750 -40 c 0,130,131
 724 -36 724 -36 707 -33 c 0,132,133
 666 -26 666 -26 601 -3 c 0,134,135
 599 -3 599 -3 580 5 c 0,136,137
 561 12 561 12 534 25 c 0,138,139
 506 39 506 39 470 56 c 256,140,141
 434 73 434 73 397 89 c 0,142,143
 309 130 309 130 200 182 c 1,144,145
 217 180 217 180 237 178 c 0,146,147
 254 176 254 176 275 175 c 128,-1,148
 296 174 296 174 317 174 c 0,149,150
 320 174 320 174 338 173 c 0,151,152
 362 172 362 172 362 182 c 0,153,154
 362 184 362 184 360 186 c 0,155,156
 342 210 342 210 296 243 c 0,157,158
 268 261 268 261 232 294 c 0,159,160
 197 326 197 326 166 357 c 0,161,162
 129 393 129 393 91 435 c 1,163,164
 103 425 103 425 123 413 c 0,165,166
 140 402 140 402 168 387 c 0,167,168
 195 372 195 372 238 353 c 0,36,37
EndSplineSet
Validated: 33
EndChar

StartChar: ampersand
Encoding: 38 38 8
Width: 866
GlyphClass: 2
Flags: W
LayerCount: 2
Fore
SplineSet
805 729 m 1,0,1
 805 708 805 708 805 649 c 1,2,3
 813 649 813 649 836 649 c 1,4,5
 836 512 836 512 836 102 c 1,6,7
 828 102 828 102 805 102 c 1,8,9
 805 81 805 81 805 23 c 1,10,11
 813 23 813 23 836 23 c 1,12,13
 836 -9 836 -9 836 -103 c 1,14,15
 805 -103 805 -103 709 -103 c 1,16,17
 709 -95 709 -95 709 -72 c 1,18,19
 689 -72 689 -72 630 -72 c 1,20,21
 630 -80 630 -80 630 -103 c 1,22,23
 531 -103 531 -103 236 -103 c 1,24,25
 236 -95 236 -95 236 -72 c 1,26,27
 215 -72 215 -72 157 -72 c 1,28,29
 157 -80 157 -80 157 -103 c 1,30,31
 125 -103 125 -103 30 -103 c 1,32,33
 30 -72 30 -72 30 23 c 1,34,35
 37 23 37 23 59 23 c 1,36,37
 59 43 59 43 59 102 c 1,38,39
 52 102 52 102 30 102 c 1,40,41
 30 196 30 196 30 478 c 0,42,43
 30 521 30 521 30 649 c 1,44,45
 37 649 37 649 59 649 c 1,46,47
 59 669 59 669 59 729 c 1,48,49
 52 729 52 729 30 729 c 1,50,51
 30 760 30 760 30 855 c 1,52,53
 61 855 61 855 157 855 c 1,54,55
 157 847 157 847 157 826 c 1,56,57
 177 826 177 826 236 826 c 1,58,59
 236 833 236 833 236 855 c 1,60,61
 335 855 335 855 630 855 c 1,62,63
 630 847 630 847 630 826 c 1,64,65
 650 826 650 826 709 826 c 1,66,67
 709 833 709 833 709 855 c 1,68,69
 741 855 741 855 836 855 c 1,70,71
 836 823 836 823 836 729 c 1,72,73
 828 729 828 729 805 729 c 1,0,1
183 472 m 1,74,75
 204 452 204 452 267 392 c 1,76,77
 267 407 267 407 267 449 c 1,78,79
 259 455 259 455 236 472 c 1,80,81
 223 472 223 472 183 472 c 1,74,75
267 522 m 1,82,83
 267 537 267 537 267 582 c 1,84,85
 259 588 259 588 236 607 c 1,86,87
 222 607 222 607 183 607 c 1,88,89
 205 585 205 585 267 522 c 1,82,83
183 346 m 1,90,91
 204 325 204 325 267 262 c 1,92,93
 267 276 267 276 267 316 c 1,94,95
 259 323 259 323 236 346 c 1,96,97
 223 346 223 346 183 346 c 1,90,91
108 820 m 0,98,99
 90 820 90 820 78 808 c 0,100,101
 66 795 66 795 66 777 c 0,102,103
 66 758 66 758 78 747 c 0,104,105
 91 735 91 735 108 735 c 0,106,107
 122 735 122 735 134 746 c 0,108,109
 145 758 145 758 145 777 c 0,110,111
 145 795 145 795 134 808 c 0,112,113
 122 820 122 820 108 820 c 0,98,99
108 -67 m 0,114,115
 122 -67 122 -67 134 -54 c 0,116,117
 145 -41 145 -41 145 -25 c 0,118,119
 145 -4 145 -4 134 6 c 0,120,121
 122 17 122 17 108 17 c 0,122,123
 90 17 90 17 78 7 c 0,124,125
 66 -4 66 -4 66 -25 c 0,126,127
 66 -41 66 -41 78 -54 c 128,-1,128
 90 -67 90 -67 108 -67 c 0,114,115
163 673 m 1,129,130
 155 673 155 673 132 673 c 1,131,132
 132 654 132 654 132 599 c 0,133,134
 132 469 132 469 132 81 c 1,135,136
 140 81 140 81 163 81 c 1,137,138
 163 230 163 230 163 673 c 1,129,130
183 220 m 1,139,140
 204 199 204 199 267 134 c 1,141,142
 267 148 267 148 267 189 c 1,143,144
 259 197 259 197 236 220 c 1,145,146
 223 220 223 220 183 220 c 1,139,140
672 56 m 1,147,148
 642 56 642 56 552 56 c 256,149,150
 462 56 462 56 193 56 c 1,151,152
 193 48 193 48 193 23 c 1,153,154
 312 23 312 23 672 23 c 1,155,156
 672 32 672 32 672 56 c 1,147,148
395 262 m 1,157,158
 395 276 395 276 395 316 c 1,159,160
 388 323 388 323 364 346 c 1,161,162
 350 346 350 346 309 346 c 1,163,164
 331 325 331 325 395 262 c 1,157,158
395 189 m 1,165,166
 388 197 388 197 364 220 c 1,167,168
 350 220 350 220 309 220 c 1,169,170
 330 199 330 199 395 134 c 1,171,172
 395 147 395 147 395 189 c 1,165,166
395 389 m 1,173,174
 395 405 395 405 395 449 c 1,175,176
 388 455 388 455 364 472 c 1,177,178
 350 472 350 472 309 472 c 1,179,180
 331 451 331 451 395 389 c 1,173,174
395 522 m 1,181,182
 395 537 395 537 395 582 c 1,183,184
 388 588 388 588 364 607 c 1,185,186
 350 607 350 607 309 607 c 1,187,188
 331 585 331 585 395 522 c 1,181,182
352 673 m 1,189,190
 338 673 338 673 296 673 c 1,191,192
 289 666 289 666 267 644 c 1,193,194
 267 630 267 630 267 590 c 1,195,196
 289 611 289 611 352 673 c 1,189,190
267 516 m 1,197,198
 267 503 267 503 267 464 c 1,199,200
 288 485 288 485 352 547 c 1,201,202
 338 546 338 546 296 541 c 1,203,204
 289 536 289 536 267 516 c 1,197,198
267 389 m 1,205,206
 267 374 267 374 267 329 c 1,207,208
 288 350 288 350 352 413 c 1,209,210
 338 413 338 413 296 413 c 1,211,212
 289 408 289 408 267 389 c 1,205,206
267 255 m 1,213,214
 267 241 267 241 267 200 c 1,215,216
 288 221 288 221 352 287 c 1,217,218
 338 287 338 287 296 287 c 1,219,220
 289 279 289 279 267 255 c 1,213,214
267 129 m 1,221,222
 267 115 267 115 267 73 c 1,223,224
 288 94 288 94 352 158 c 1,225,226
 338 157 338 157 296 155 c 1,227,228
 289 149 289 149 267 129 c 1,221,222
521 262 m 1,229,230
 521 276 521 276 521 316 c 1,231,232
 514 323 514 323 497 346 c 1,233,234
 482 346 482 346 437 346 c 1,235,236
 458 325 458 325 521 262 c 1,229,230
521 189 m 1,237,238
 514 197 514 197 497 220 c 1,239,240
 482 220 482 220 437 220 c 1,241,242
 458 199 458 199 521 134 c 1,243,244
 521 147 521 147 521 189 c 1,237,238
521 389 m 1,245,246
 521 405 521 405 521 449 c 1,247,248
 514 455 514 455 497 472 c 1,249,250
 482 472 482 472 437 472 c 1,251,252
 458 451 458 451 521 389 c 1,245,246
521 522 m 1,253,254
 521 537 521 537 521 582 c 1,255,256
 514 588 514 588 497 607 c 1,257,258
 482 607 482 607 437 607 c 1,259,260
 458 585 458 585 521 522 c 1,253,254
486 673 m 1,261,262
 471 673 471 673 428 673 c 1,263,264
 421 666 421 666 400 644 c 1,265,266
 400 630 400 630 400 590 c 1,267,268
 422 611 422 611 486 673 c 1,261,262
400 516 m 1,269,270
 400 503 400 503 400 464 c 1,271,272
 421 485 421 485 486 547 c 1,273,274
 471 546 471 546 428 541 c 1,275,276
 421 536 421 536 400 516 c 1,269,270
400 389 m 1,277,278
 400 374 400 374 400 329 c 1,279,280
 421 350 421 350 486 413 c 1,281,282
 471 413 471 413 428 413 c 1,283,284
 421 408 421 408 400 389 c 1,277,278
400 255 m 1,285,286
 400 241 400 241 400 200 c 1,287,288
 421 221 421 221 486 287 c 1,289,290
 471 287 471 287 428 287 c 1,291,292
 421 279 421 279 400 255 c 1,285,286
400 129 m 1,293,294
 400 115 400 115 400 73 c 1,295,296
 421 94 421 94 486 158 c 1,297,298
 471 157 471 157 428 155 c 1,299,300
 421 149 421 149 400 129 c 1,293,294
654 262 m 1,301,302
 654 276 654 276 654 316 c 1,303,304
 646 323 646 323 624 346 c 1,305,306
 610 346 610 346 569 346 c 1,307,308
 590 325 590 325 654 262 c 1,301,302
654 189 m 1,309,310
 646 197 646 197 624 220 c 1,311,312
 610 220 610 220 569 220 c 1,313,314
 590 199 590 199 654 134 c 1,315,316
 654 147 654 147 654 189 c 1,309,310
654 389 m 1,317,318
 654 405 654 405 654 449 c 1,319,320
 646 455 646 455 624 472 c 1,321,322
 610 472 610 472 569 472 c 1,323,324
 590 451 590 451 654 389 c 1,317,318
654 522 m 1,325,326
 654 537 654 537 654 582 c 1,327,328
 646 588 646 588 624 607 c 1,329,330
 610 607 610 607 569 607 c 1,331,332
 590 585 590 585 654 522 c 1,325,326
618 673 m 1,333,334
 604 673 604 673 564 673 c 1,335,336
 556 666 556 666 533 644 c 1,337,338
 533 630 533 630 533 590 c 1,339,340
 555 611 555 611 618 673 c 1,333,334
533 516 m 1,341,342
 533 503 533 503 533 464 c 1,343,344
 554 485 554 485 618 547 c 1,345,346
 604 546 604 546 564 541 c 0,347,348
 556 536 556 536 533 516 c 1,341,342
533 389 m 1,349,350
 533 374 533 374 533 329 c 1,351,352
 554 350 554 350 618 413 c 1,353,354
 604 413 604 413 564 413 c 1,355,356
 556 408 556 408 533 389 c 1,349,350
533 255 m 1,357,358
 533 241 533 241 533 200 c 1,359,360
 554 221 554 221 618 287 c 1,361,362
 604 287 604 287 564 287 c 1,363,364
 556 279 556 279 533 255 c 1,357,358
533 129 m 1,365,366
 533 115 533 115 533 73 c 1,367,368
 554 94 554 94 618 158 c 1,369,370
 604 157 604 157 564 155 c 1,371,372
 556 149 556 149 533 129 c 1,365,366
672 729 m 1,373,374
 553 729 553 729 193 729 c 1,375,376
 193 720 193 720 193 696 c 1,377,378
 312 696 312 696 672 696 c 1,379,380
 672 704 672 704 672 729 c 1,373,374
732 81 m 1,381,382
 732 229 732 229 732 673 c 1,383,384
 724 673 724 673 703 673 c 1,385,386
 703 526 703 526 703 81 c 1,387,388
 710 81 710 81 732 81 c 1,381,382
756 -67 m 0,389,390
 776 -67 776 -67 786 -54 c 0,391,392
 798 -41 798 -41 798 -25 c 0,393,394
 798 -4 798 -4 787 6 c 0,395,396
 776 17 776 17 756 17 c 0,397,398
 742 17 742 17 731 7 c 0,399,400
 719 -4 719 -4 720 -25 c 0,401,402
 720 -41 720 -41 731 -54 c 128,-1,403
 742 -67 742 -67 756 -67 c 0,389,390
756 735 m 0,404,405
 776 735 776 735 786 746 c 0,406,407
 798 758 798 758 798 777 c 0,408,409
 798 795 798 795 787 808 c 256,410,411
 776 821 776 821 756 820 c 0,412,413
 742 820 742 820 731 808 c 0,414,415
 719 795 719 795 720 777 c 0,416,417
 720 758 720 758 731 747 c 0,418,419
 742 735 742 735 756 735 c 0,404,405
EndSplineSet
Validated: 33
EndChar

StartChar: quotesingle
Encoding: 39 39 9
Width: 627
GlyphClass: 2
Flags: W
LayerCount: 2
Fore
SplineSet
117 4 m 1,0,-1
 21 4 l 1,1,-1
 21 563 l 1,2,-1
 467 563 l 1,3,-1
 467 464 l 1,4,-1
 117 464 l 1,5,-1
 117 4 l 1,0,-1
524 155 m 1,6,-1
 646 155 l 1,7,-1
 646 252 l 1,8,-1
 524 252 l 1,9,-1
 524 394 l 1,10,-1
 185 203 l 1,11,-1
 525 13 l 1,12,-1
 524 155 l 1,6,-1
EndSplineSet
Validated: 9
EndChar

StartChar: parenleft
Encoding: 40 40 10
Width: 1013
GlyphClass: 2
Flags: W
LayerCount: 2
Fore
SplineSet
507 701 m 1,0,1
 484 706 484 706 457 710 c 0,2,3
 432 713 432 713 405 713 c 0,4,5
 346 713 346 713 293 698 c 0,6,7
 239 682 239 682 191 657 c 1,8,9
 242 735 242 735 324 781 c 0,10,11
 406 828 406 828 506 828 c 0,12,13
 555 828 555 828 601 816 c 0,14,15
 647 803 647 803 686 782 c 0,16,17
 727 760 727 760 761 729 c 0,18,19
 794 698 794 698 820 660 c 1,20,21
 772 685 772 685 720 699 c 0,22,23
 667 713 667 713 610 713 c 0,24,25
 583 713 583 713 558 710 c 0,26,27
 532 706 532 706 507 701 c 1,0,1
882 451 m 0,28,29
 882 407 882 407 872 366 c 0,30,31
 862 326 862 326 844 288 c 1,32,33
 842 345 842 345 826 398 c 128,-1,34
 810 451 810 451 783 497 c 256,35,36
 756 543 756 543 718 582 c 0,37,38
 680 620 680 620 634 648 c 1,39,40
 703 644 703 644 763 616 c 0,41,42
 824 589 824 589 870 544 c 1,43,44
 882 500 882 500 882 451 c 0,28,29
381 648 m 1,45,46
 334 619 334 619 296 581 c 0,47,48
 258 542 258 542 230 495 c 0,49,50
 204 448 204 448 188 394 c 0,51,52
 172 339 172 339 171 282 c 1,53,54
 151 321 151 321 141 363 c 0,55,56
 130 405 130 405 130 451 c 0,57,58
 130 473 130 473 133 496 c 0,59,60
 136 518 136 518 141 541 c 1,61,62
 190 588 190 588 251 616 c 128,-1,63
 312 644 312 644 381 648 c 1,45,46
189 150 m 1,64,65
 211 69 211 69 262 5 c 0,66,67
 312 -58 312 -58 381 -101 c 1,68,69
 311 -96 311 -96 249 -67 c 0,70,71
 187 -39 187 -39 139 9 c 1,72,73
 96 64 96 64 68 129 c 0,74,75
 40 195 40 195 30 270 c 0,76,77
 30 271 30 271 30 274 c 0,78,79
 30 319 30 319 40 359 c 256,80,81
 50 399 50 399 68 437 c 1,82,83
 70 352 70 352 102 279 c 0,84,85
 133 206 133 206 189 150 c 1,64,65
506 75 m 0,86,87
 429 75 429 75 363 103 c 128,-1,88
 297 131 297 131 246 181 c 1,89,90
 233 224 233 224 233 274 c 0,91,92
 233 337 233 337 254 396 c 256,93,94
 275 455 275 455 311 502 c 0,95,96
 348 550 348 550 398 585 c 0,97,98
 448 619 448 619 507 636 c 1,99,100
 567 619 567 619 616 585 c 0,101,102
 667 550 667 550 703 502 c 0,103,104
 740 455 740 455 761 396 c 128,-1,105
 782 337 782 337 782 274 c 0,106,107
 782 251 782 251 779 229 c 128,-1,108
 776 207 776 207 771 184 c 1,109,110
 719 133 719 133 652 104 c 0,111,112
 584 75 584 75 506 75 c 0,86,87
984 291 m 1,113,114
 975 203 975 203 943 128 c 0,115,116
 911 52 911 52 857 -8 c 1,117,118
 811 -49 811 -49 755 -72 c 0,119,120
 698 -95 698 -95 634 -101 c 1,121,122
 704 -58 704 -58 755 8 c 0,123,124
 805 73 805 73 828 154 c 1,125,126
 882 212 882 212 912 285 c 0,127,128
 943 359 943 359 945 443 c 1,129,130
 962 408 962 408 972 370 c 128,-1,131
 982 332 982 332 984 291 c 1,113,114
721 69 m 1,132,133
 684 11 684 11 629 -28 c 0,134,135
 574 -69 574 -69 507 -88 c 1,136,137
 442 -69 442 -69 388 -29 c 0,138,139
 334 10 334 10 296 67 c 1,140,141
 343 41 343 41 396 27 c 0,142,143
 449 12 449 12 506 13 c 0,144,145
 566 13 566 13 619 27 c 0,146,147
 673 42 673 42 721 69 c 1,132,133
EndSplineSet
Validated: 33
EndChar

StartChar: parenright
Encoding: 41 41 11
Width: 1119
GlyphClass: 2
Flags: W
LayerCount: 2
Fore
SplineSet
610 12 m 0,0,1
 608 15 608 15 588 17 c 0,2,3
 562 20 562 20 538 28 c 1,4,5
 538 24 538 24 538 19 c 1,6,7
 571 2 571 2 592 2 c 0,8,9
 597 2 597 2 600 3 c 256,10,11
 603 4 603 4 610 4 c 0,12,13
 612 4 612 4 612 6 c 256,14,15
 612 8 612 8 610 12 c 0,0,1
556 1240 m 0,16,17
 557 1242 557 1242 557 1250 c 1,18,19
 558 1247 558 1247 559 1239 c 0,20,21
 560 1236 560 1236 560 1228 c 1,22,23
 560 1231 560 1231 560 1237 c 0,24,25
 560 1254 560 1254 562 1232 c 0,26,27
 565 1211 565 1211 574 1018 c 0,28,29
 578 943 578 943 587 791 c 1,30,31
 592 790 592 790 606 789 c 0,32,33
 722 773 722 773 814 710 c 0,34,35
 909 644 909 644 958 539 c 0,36,37
 993 465 993 465 1000 377 c 0,38,39
 1000 372 1000 372 1001 362 c 0,40,41
 1003 361 1003 361 1010 361 c 0,42,43
 1025 359 1025 359 1054 359 c 0,44,45
 1089 358 1089 358 1089 357 c 256,46,47
 1089 356 1089 356 1045 352 c 0,48,49
 1030 351 1030 351 1001 347 c 1,50,51
 1001 342 1001 342 1000 327 c 0,52,53
 990 162 990 162 877 44 c 0,54,55
 786 -51 786 -51 666 -79 c 0,56,57
 619 -90 619 -90 558 -90 c 0,58,59
 495 -90 495 -90 443 -76 c 0,60,61
 288 -34 288 -34 193 105 c 0,62,63
 126 204 126 204 118 328 c 0,64,65
 117 334 117 334 117 347 c 1,66,67
 106 348 106 348 73 352 c 0,68,69
 30 356 30 356 30 357 c 0,70,71
 42 358 42 358 66 359 c 0,72,73
 103 362 103 362 110 361 c 0,74,75
 112 361 112 361 118 362 c 0,76,77
 118 364 118 364 118 372 c 0,78,79
 128 471 128 471 164 545 c 0,80,81
 206 631 206 631 282 693 c 0,82,83
 384 776 384 776 520 790 c 0,84,85
 525 790 525 790 532 791 c 0,86,87
 532 793 532 793 533 800 c 0,88,89
 533 802 533 802 544 1020 c 0,90,91
 554 1216 554 1216 556 1240 c 0,16,17
454 401 m 1,92,93
 442 424 442 424 409 491 c 0,94,95
 399 508 399 508 430 474 c 0,96,97
 445 461 445 461 455 452 c 0,98,99
 470 439 470 439 471 439 c 0,100,101
 474 436 474 436 480 433 c 2,102,103
 480 433 480 433 482 432 c 1,104,105
 482 433 482 433 482 437 c 0,106,107
 482 439 482 439 438 528 c 0,108,109
 431 541 431 541 419 567 c 1,110,111
 426 561 426 561 445 542 c 1,112,113
 491 477 491 477 512 477 c 0,114,115
 514 477 514 477 514 478 c 0,116,117
 515 479 515 479 515 480 c 0,118,119
 517 509 517 509 522 594 c 0,120,121
 527 675 527 675 527 702 c 2,122,123
 527 702 527 702 527 704 c 1,124,125
 526 704 526 704 524 704 c 0,126,127
 520 704 520 704 510 703 c 0,128,129
 404 689 404 689 320 614 c 0,130,131
 236 538 236 538 213 435 c 0,132,133
 210 421 210 421 203 373 c 0,134,135
 203 371 203 371 203 370 c 0,136,137
 203 366 203 366 206 366 c 0,138,139
 207 366 207 366 210 366 c 0,140,141
 211 366 211 366 215 366 c 0,142,143
 217 366 217 366 221 366 c 0,144,145
 223 366 223 366 226 366 c 0,146,147
 246 366 246 366 314 370 c 0,148,149
 400 375 400 375 426 375 c 0,150,151
 431 376 431 376 439 378 c 1,152,153
 433 383 433 383 394 399 c 0,154,155
 377 407 377 407 373 408 c 0,156,157
 363 413 363 413 357 418 c 1,158,159
 357 418 357 418 358 418 c 2,160,161
 358 418 358 418 359 418 c 0,162,163
 365 417 365 417 385 414 c 0,164,165
 391 413 391 413 408 410 c 0,166,167
 415 410 415 410 454 401 c 1,92,93
606 483 m 1,168,169
 606 484 606 484 609 484 c 1,170,171
 609 485 609 485 612 485 c 256,172,173
 615 485 615 485 653 522 c 0,174,175
 668 538 668 538 699 567 c 1,176,177
 693 555 693 555 676 519 c 0,178,179
 640 442 640 442 640 435 c 2,180,181
 640 435 640 435 640 434 c 2,182,183
 640 434 640 434 641 434 c 0,184,185
 659 448 659 448 708 490 c 1,186,187
 708 489 708 489 705 484 c 128,-1,188
 702 479 702 479 696 469 c 0,189,190
 683 449 683 449 683 447 c 0,191,192
 659 409 659 409 658 403 c 2,193,-1
 658 402 l 1,194,-1
 658 401 l 2,195,196
 659 401 659 401 712 410 c 0,197,198
 759 418 759 418 766 418 c 1,199,200
 766 417 766 417 760 415 c 0,201,202
 755 413 755 413 745 409 c 0,203,204
 737 404 737 404 724 399 c 0,205,206
 685 384 685 384 680 379 c 0,207,208
 677 376 677 376 683 376 c 0,209,210
 687 376 687 376 692 375 c 0,211,212
 696 375 696 375 814 370 c 0,213,214
 847 368 847 368 915 366 c 0,215,216
 916 366 916 366 916 370 c 0,217,218
 916 382 916 382 908 423 c 0,219,220
 887 524 887 524 813 600 c 0,221,222
 739 675 739 675 637 698 c 0,223,224
 607 705 607 705 599 705 c 2,225,-1
 598 705 l 1,226,-1
 597 705 l 2,227,228
 592 705 592 705 591 704 c 0,229,230
 591 703 591 703 591 702 c 0,231,232
 591 697 591 697 596 594 c 0,233,234
 600 485 600 485 606 483 c 1,168,169
210 275 m 0,235,236
 220 226 220 226 270 143 c 0,237,238
 306 84 306 84 386 39 c 0,239,240
 392 35 392 35 404 29 c 0,241,242
 412 29 412 29 416 131 c 0,243,244
 417 189 417 189 418 196 c 0,245,246
 419 201 419 201 420 211 c 1,247,248
 425 216 425 216 439 229 c 0,249,250
 472 263 472 263 499 301 c 0,251,252
 509 316 509 316 512 318 c 0,253,254
 515 319 515 319 530 316 c 0,255,256
 547 313 547 313 561 309 c 0,257,258
 582 303 582 303 581 300 c 0,259,260
 581 297 581 297 588 283 c 0,261,262
 595 268 595 268 595 260 c 0,263,264
 595 254 595 254 592 251 c 256,265,266
 589 248 589 248 588 249 c 0,267,268
 588 252 588 252 582 263 c 0,269,270
 577 273 577 273 577 279 c 0,271,272
 577 284 577 284 576 285 c 256,273,274
 575 286 575 286 569 287 c 256,275,276
 563 288 563 288 544 294 c 0,277,278
 538 296 538 296 526 301 c 0,279,280
 525 300 525 300 523 297 c 0,281,282
 516 289 516 289 513 281 c 0,283,284
 503 263 503 263 490 258 c 0,285,286
 484 255 484 255 487 253 c 0,287,288
 496 248 496 248 517 248 c 0,289,290
 525 248 525 248 537 249 c 0,291,292
 546 249 546 249 563 251 c 0,293,294
 565 249 565 249 572 244 c 0,295,296
 579 238 579 238 588 231 c 0,297,298
 596 225 596 225 600 219 c 0,299,300
 603 213 603 213 600 206 c 0,301,302
 599 203 599 203 597 199 c 1,303,304
 597 200 597 200 595 205 c 0,305,306
 593 214 593 214 574 224 c 0,307,308
 565 229 565 229 532 230 c 0,309,310
 504 231 504 231 490 234 c 0,311,312
 472 239 472 239 470 237 c 0,313,314
 467 236 467 236 459 225 c 0,315,316
 450 212 450 212 451 211 c 0,317,318
 452 211 452 211 458 215 c 0,319,320
 460 216 460 216 465 219 c 0,321,322
 468 218 468 218 475 216 c 0,323,324
 493 211 493 211 516 210 c 0,325,326
 527 210 527 210 546 209 c 0,327,328
 554 206 554 206 575 196 c 0,329,330
 582 192 582 192 604 183 c 0,331,332
 604 179 604 179 604 167 c 0,333,334
 604 150 604 150 603 151 c 0,335,336
 602 151 602 151 595 157 c 128,-1,337
 588 163 588 163 590 167 c 0,338,339
 592 172 592 172 592 173 c 0,340,341
 592 179 592 179 535 184 c 0,342,343
 487 188 487 188 474 193 c 0,344,345
 463 198 463 198 459 194 c 0,346,347
 457 191 457 191 451 181 c 0,348,349
 445 170 445 170 446 169 c 256,350,351
 447 168 447 168 455 172 c 0,352,353
 471 179 471 179 482 173 c 0,354,355
 488 170 488 170 488 169 c 2,356,-1
 466 149 l 2,357,358
 459 143 459 143 444 129 c 0,359,360
 444 125 444 125 444 115 c 0,361,362
 444 103 444 103 433 60 c 0,363,364
 430 47 430 47 423 20 c 0,365,366
 426 19 426 19 434 16 c 0,367,368
 450 10 450 10 459 8 c 0,369,370
 464 7 464 7 476 3 c 0,371,372
 477 3 477 3 478 3 c 256,373,374
 479 3 479 3 479 5 c 0,375,376
 479 9 479 9 487 14 c 0,377,378
 510 29 510 29 529 44 c 0,379,380
 537 53 537 53 540 53 c 0,381,382
 544 53 544 53 566 44 c 0,383,384
 590 35 590 35 604 35 c 0,385,386
 606 35 606 35 607 35 c 0,387,388
 623 35 623 35 630 42 c 0,389,390
 632 44 632 44 620 52 c 0,391,392
 616 55 616 55 608 60 c 0,393,394
 571 84 571 84 555 86 c 0,395,396
 548 87 548 87 529 79 c 0,397,398
 513 73 513 73 512 71 c 0,399,400
 509 68 509 68 510 66 c 0,401,402
 511 58 511 58 501 45 c 0,403,404
 499 42 499 42 495 37 c 1,405,406
 495 39 495 39 495 47 c 0,407,408
 495 57 495 57 496 71 c 0,409,410
 496 75 496 75 497 85 c 1,411,412
 505 89 505 89 530 102 c 0,413,414
 538 107 538 107 562 119 c 0,415,416
 565 117 565 117 571 113 c 0,417,418
 577 108 577 108 593 97 c 0,419,420
 638 60 638 60 649 54 c 0,421,422
 652 52 652 52 658 48 c 0,423,424
 659 43 659 43 661 30 c 0,425,426
 664 11 664 11 666 10 c 0,427,428
 667 9 667 9 688 17 c 0,429,430
 819 71 819 71 879 192 c 0,431,432
 909 255 909 255 915 327 c 0,433,434
 915 331 915 331 916 340 c 1,435,436
 914 339 914 339 907 338 c 0,437,438
 887 337 887 337 786 327 c 0,439,440
 785 327 785 327 784 327 c 2,441,-1
 783 327 l 2,442,443
 782 326 782 326 781 326 c 2,444,-1
 780 326 l 2,445,446
 779 326 779 326 778 326 c 2,447,-1
 777 326 l 2,448,449
 776 326 776 326 775 326 c 256,450,451
 774 326 774 326 773 326 c 2,452,-1
 772 326 l 1,453,454
 744 322 744 322 660 313 c 1,455,456
 681 299 681 299 743 258 c 1,457,458
 805 212 805 212 805 210 c 2,459,-1
 805 209 l 2,460,461
 803 209 803 209 797 213 c 0,462,463
 787 220 787 220 742 241 c 0,464,465
 722 250 722 250 711 256 c 0,466,467
 690 266 690 266 682 270 c 0,468,469
 668 276 668 276 667 277 c 0,470,471
 651 285 651 285 638 299 c 0,472,473
 624 314 624 314 623 314 c 256,474,475
 622 314 622 314 622 310 c 0,476,477
 622 305 622 305 617 300 c 0,478,479
 615 298 615 298 612 295 c 0,480,481
 610 296 610 296 606 301 c 0,482,483
 598 306 598 306 599 313 c 0,484,485
 599 321 599 321 601 320 c 0,486,487
 604 320 604 320 605 323 c 0,488,489
 606 327 606 327 610 327 c 0,490,491
 617 327 617 327 617 350 c 0,492,493
 617 355 617 355 617 365 c 1,494,495
 615 365 615 365 610 367 c 0,496,497
 598 369 598 369 599 374 c 0,498,499
 599 376 599 376 606 376 c 0,500,501
 612 376 612 376 613 379 c 0,502,503
 615 383 615 383 615 397 c 256,504,505
 615 411 615 411 611 413 c 0,506,507
 608 416 608 416 607 421 c 0,508,509
 607 426 607 426 603 426 c 0,510,511
 600 425 600 425 600 429 c 0,512,513
 599 432 599 432 599 451 c 0,514,515
 599 476 599 476 598 477 c 0,516,517
 595 477 595 477 533 430 c 0,518,519
 522 422 522 422 500 405 c 0,520,521
 500 401 500 401 500 391 c 0,522,523
 500 377 500 377 498 376 c 0,524,525
 495 375 495 375 495 364 c 0,526,527
 495 352 495 352 497 340 c 0,528,529
 499 327 499 327 496 320 c 0,530,531
 494 314 494 314 481 300 c 0,532,533
 476 295 476 295 467 284 c 1,534,535
 455 278 455 278 418 260 c 0,536,537
 396 249 396 249 327 218 c 1,538,539
 332 223 332 223 392 265 c 0,540,541
 454 308 454 308 456 310 c 128,-1,542
 458 312 458 312 461 314 c 1,543,544
 459 315 459 315 453 315 c 0,545,546
 426 318 426 318 322 328 c 0,547,548
 282 331 282 331 203 339 c 0,549,550
 200 338 200 338 200 331 c 2,551,-1
 200 330 l 2,552,553
 200 316 200 316 210 275 c 0,235,236
579 448 m 0,554,555
 584 452 584 452 585 452 c 2,556,-1
 585 411 l 2,557,558
 585 397 585 397 585 371 c 1,559,560
 584 371 584 371 579 371 c 0,561,562
 578 371 578 371 574 371 c 1,563,564
 574 380 574 380 574 408 c 0,565,566
 574 417 574 417 574 445 c 1,567,568
 575 445 575 445 579 448 c 0,554,555
544 421 m 2,569,-1
 545 422 l 2,570,571
 548 422 548 422 548 394 c 0,572,573
 548 386 548 386 548 371 c 1,574,575
 544 371 544 371 530 371 c 0,576,577
 514 371 514 371 513 372 c 0,578,579
 510 374 510 374 510 384 c 0,580,581
 510 397 510 397 530 411 c 0,582,583
 542 418 542 418 544 421 c 2,569,-1
572 361 m 1,584,585
 574 361 574 361 581 362 c 0,586,587
 584 362 584 362 592 362 c 1,588,589
 592 358 592 358 592 348 c 0,590,591
 592 345 592 345 592 334 c 1,592,593
 591 334 591 334 586 334 c 0,594,595
 574 334 574 334 574 350 c 0,596,597
 574 359 574 359 572 361 c 1,584,585
513 340 m 0,598,599
 513 343 513 343 513 350 c 1,600,601
 518 350 518 350 532 350 c 0,602,603
 537 350 537 350 551 350 c 1,604,605
 551 347 551 347 551 336 c 0,606,607
 551 333 551 333 551 323 c 1,608,609
 550 323 550 323 546 324 c 0,610,611
 543 325 543 325 527 327 c 0,612,613
 522 327 522 327 513 329 c 0,614,615
 513 332 513 332 513 340 c 0,598,599
509 172 m 0,616,617
 522 175 522 175 533 175 c 0,618,619
 537 175 537 175 544 175 c 1,620,621
 550 170 550 170 569 157 c 0,622,623
 593 138 593 138 594 138 c 1,624,625
 594 137 594 137 590 135 c 2,626,-1
 589 135 l 2,627,628
 585 135 585 135 574 141 c 0,629,630
 550 156 550 156 514 164 c 0,631,632
 508 165 508 165 495 169 c 1,633,634
 498 170 498 170 509 172 c 0,616,617
EndSplineSet
Validated: 33
EndChar

StartChar: asterisk
Encoding: 42 42 12
Width: 997
GlyphClass: 2
Flags: W
LayerCount: 2
Fore
SplineSet
497 842 m 0,0,1
 595 842 595 842 681 805 c 0,2,3
 766 768 766 768 830 704 c 0,4,5
 893 640 893 640 931 554 c 0,6,7
 967 468 967 468 967 371 c 256,8,9
 967 274 967 274 931 190 c 0,10,11
 894 105 894 105 830 42 c 0,12,13
 766 -22 766 -22 681 -58 c 0,14,15
 595 -94 595 -94 497 -95 c 0,16,17
 400 -95 400 -95 315 -58 c 0,18,19
 230 -22 230 -22 166 42 c 0,20,21
 103 104 103 104 66 190 c 0,22,23
 30 275 30 275 30 371 c 0,24,25
 30 468 30 468 66 554 c 256,26,27
 102 640 102 640 166 704 c 0,28,29
 230 767 230 767 315 805 c 0,30,31
 400 842 400 842 497 842 c 0,0,1
783 45 m 1,32,33
 801 58 801 58 815 73 c 128,-1,34
 829 88 829 88 843 105 c 1,35,36
 839 117 839 117 832 140 c 1,37,38
 841 156 841 156 867 201 c 1,39,40
 876 203 876 203 903 210 c 1,41,42
 908 218 908 218 911 228 c 256,43,44
 914 238 914 238 917 246 c 1,45,46
 904 242 904 242 878 235 c 1,47,48
 871 252 871 252 852 299 c 1,49,50
 860 312 860 312 881 350 c 1,51,52
 892 349 892 349 924 347 c 1,53,54
 926 339 926 339 932 316 c 1,55,56
 935 343 935 343 935 371 c 0,57,58
 935 400 935 400 932 422 c 1,59,60
 930 410 930 410 924 387 c 1,61,62
 913 386 913 386 881 383 c 1,63,64
 874 397 874 397 852 436 c 1,65,66
 859 452 859 452 878 499 c 1,67,68
 889 495 889 495 920 486 c 1,69,70
 916 499 916 499 912 512 c 0,71,72
 908 524 908 524 903 537 c 1,73,74
 890 539 890 539 867 545 c 1,75,76
 858 561 858 561 832 606 c 1,77,78
 835 615 835 615 843 640 c 1,79,80
 829 658 829 658 815 672 c 0,81,82
 800 688 800 688 783 701 c 1,83,84
 793 685 793 685 814 654 c 1,85,86
 810 645 810 645 800 621 c 1,87,88
 784 624 784 624 736 633 c 1,89,90
 728 647 728 647 708 687 c 1,91,92
 713 696 713 696 728 721 c 1,93,94
 742 718 742 718 780 708 c 1,95,96
 756 726 756 726 730 742 c 0,97,98
 705 759 705 759 675 773 c 1,99,100
 684 761 684 761 702 737 c 1,101,102
 696 728 696 728 680 705 c 1,103,104
 663 707 663 707 613 712 c 1,105,106
 603 725 603 725 574 762 c 1,107,108
 581 771 581 771 602 795 c 0,109,110
 606 794 606 794 616 793 c 1,111,112
 602 797 602 797 589 801 c 0,113,114
 574 804 574 804 560 805 c 1,115,116
 552 796 552 796 535 778 c 1,117,118
 517 778 517 778 464 778 c 1,119,120
 458 784 458 784 440 805 c 1,121,122
 423 804 423 804 409 801 c 0,123,124
 394 797 394 797 381 793 c 1,125,126
 386 794 386 794 396 795 c 1,127,128
 402 786 402 786 423 762 c 1,129,130
 413 749 413 749 384 712 c 1,131,132
 367 710 367 710 317 705 c 1,133,134
 311 713 311 713 295 737 c 1,135,136
 303 746 303 746 324 773 c 1,137,138
 294 759 294 759 268 742 c 256,139,140
 242 725 242 725 217 708 c 1,141,142
 235 712 235 712 270 721 c 1,143,144
 276 712 276 712 291 687 c 1,145,146
 284 674 284 674 262 633 c 1,147,148
 246 630 246 630 197 621 c 1,149,150
 193 629 193 629 183 654 c 1,151,152
 191 666 191 666 214 701 c 1,153,154
 197 687 197 687 183 673 c 0,155,156
 168 658 168 658 154 641 c 1,157,158
 158 629 158 629 167 606 c 1,159,160
 158 591 158 591 132 545 c 1,161,162
 122 543 122 543 94 537 c 1,163,164
 89 523 89 523 86 512 c 0,165,166
 82 499 82 499 77 486 c 1,167,168
 92 490 92 490 120 499 c 1,169,170
 127 483 127 483 147 436 c 1,171,172
 139 423 139 423 117 383 c 1,173,174
 106 384 106 384 74 387 c 1,175,176
 71 396 71 396 65 422 c 1,177,178
 64 411 64 411 63 398 c 0,179,180
 61 385 61 385 62 371 c 0,181,182
 62 357 62 357 63 344 c 0,183,184
 63 335 63 335 65 316 c 1,185,186
 67 324 67 324 74 347 c 1,187,188
 85 348 85 348 117 350 c 1,189,190
 124 337 124 337 147 299 c 1,191,192
 140 283 140 283 120 235 c 1,193,194
 110 238 110 238 81 246 c 1,195,196
 83 237 83 237 87 228 c 0,197,198
 90 218 90 218 94 210 c 1,199,200
 107 207 107 207 132 201 c 1,201,202
 141 185 141 185 167 140 c 1,203,204
 164 131 164 131 154 105 c 1,205,206
 168 88 168 88 183 72 c 256,207,208
 198 56 198 56 214 45 c 1,209,210
 204 61 204 61 183 92 c 1,211,212
 187 100 187 100 197 125 c 1,213,214
 213 122 213 122 262 114 c 1,215,216
 270 99 270 99 291 59 c 1,217,218
 286 51 286 51 270 26 c 1,219,220
 257 30 257 30 217 39 c 1,221,222
 241 19 241 19 268 3 c 0,223,224
 294 -13 294 -13 324 -27 c 1,225,226
 314 -15 314 -15 295 9 c 1,227,228
 301 17 301 17 317 40 c 1,229,230
 334 38 334 38 384 34 c 1,231,232
 394 21 394 21 423 -16 c 1,233,234
 416 -24 416 -24 396 -49 c 0,235,236
 392 -49 392 -49 381 -47 c 1,237,238
 407 -55 407 -55 440 -60 c 1,239,240
 448 -50 448 -50 464 -31 c 1,241,242
 482 -31 482 -31 535 -31 c 1,243,244
 541 -38 541 -38 560 -59 c 1,245,246
 575 -57 575 -57 589 -55 c 0,247,248
 603 -52 603 -52 616 -47 c 1,249,250
 611 -48 611 -48 602 -49 c 1,251,252
 595 -41 595 -41 574 -16 c 1,253,254
 584 -3 584 -3 613 34 c 1,255,256
 630 35 630 35 680 40 c 1,257,258
 686 32 686 32 702 9 c 1,259,260
 695 0 695 0 675 -27 c 1,261,262
 705 -12 705 -12 730 3 c 0,263,264
 755 20 755 20 780 39 c 1,265,266
 762 34 762 34 728 26 c 1,267,268
 723 35 723 35 708 59 c 1,269,270
 715 73 715 73 736 114 c 1,271,272
 752 116 752 116 800 125 c 1,273,274
 804 116 804 116 814 92 c 1,275,276
 806 80 806 80 783 45 c 1,32,33
574 365 m 1,277,278
 565 348 565 348 538 301 c 1,279,280
 518 301 518 301 460 301 c 1,281,282
 451 317 451 317 423 365 c 1,283,284
 433 382 433 382 460 432 c 1,285,286
 480 432 480 432 538 432 c 1,287,288
 547 415 547 415 574 365 c 1,277,278
538 473 m 1,289,290
 518 473 518 473 461 473 c 1,291,292
 451 488 451 488 423 532 c 1,293,294
 433 547 433 547 461 592 c 1,295,296
 481 592 481 592 538 592 c 1,297,298
 547 577 547 577 574 532 c 1,299,300
 565 518 565 518 538 473 c 1,289,290
461 641 m 1,301,302
 451 653 451 653 423 687 c 1,303,304
 433 699 433 699 461 734 c 1,305,306
 481 734 481 734 538 734 c 1,307,308
 547 722 547 722 574 687 c 1,309,310
 565 676 565 676 538 641 c 1,311,312
 519 641 519 641 461 641 c 1,301,302
538 92 m 1,313,314
 547 80 547 80 574 45 c 1,315,316
 565 33 565 33 538 -2 c 1,317,318
 518 -2 518 -2 461 -2 c 1,319,320
 451 10 451 10 423 45 c 1,321,322
 433 57 433 57 461 92 c 1,323,324
 475 92 475 92 515 92 c 0,325,326
 520 92 520 92 538 92 c 1,313,314
183 460 m 1,327,328
 178 474 178 474 161 517 c 1,329,330
 171 534 171 534 200 584 c 1,331,332
 215 586 215 586 259 592 c 1,333,334
 265 578 265 578 280 537 c 1,335,336
 270 520 270 520 242 471 c 1,337,338
 228 468 228 468 183 460 c 1,327,328
836 214 m 1,339,340
 827 197 827 197 799 149 c 1,341,342
 784 147 784 147 739 139 c 1,343,344
 734 154 734 154 720 196 c 1,345,346
 730 212 730 212 757 262 c 1,347,348
 772 264 772 264 816 270 c 1,349,350
 821 256 821 256 836 214 c 1,339,340
242 262 m 1,351,352
 252 245 252 245 280 196 c 1,353,354
 274 181 274 181 259 139 c 1,355,356
 244 142 244 142 200 149 c 1,357,358
 190 166 190 166 161 214 c 1,359,360
 166 228 166 228 183 270 c 1,361,362
 197 268 197 268 242 262 c 1,351,352
757 471 m 1,363,364
 748 488 748 488 720 535 c 1,365,366
 725 549 725 549 739 592 c 1,367,368
 754 590 754 590 799 584 c 1,369,370
 809 567 809 567 836 517 c 1,371,372
 831 503 831 503 816 460 c 1,373,374
 801 463 801 463 757 471 c 1,363,364
461 264 m 1,375,376
 481 264 481 264 538 264 c 1,377,378
 547 249 547 249 574 206 c 1,379,380
 565 190 565 190 538 146 c 1,381,382
 518 146 518 146 461 146 c 1,383,384
 451 162 451 162 423 206 c 1,385,386
 433 221 433 221 461 264 c 1,375,376
320 385 m 1,387,388
 311 401 311 401 287 447 c 1,389,390
 297 463 297 463 327 513 c 1,391,392
 345 513 345 513 396 514 c 1,393,394
 404 499 404 499 428 454 c 1,395,396
 419 437 419 437 390 388 c 1,397,398
 372 387 372 387 320 385 c 1,387,388
678 352 m 1,399,400
 687 337 687 337 712 291 c 1,401,402
 702 274 702 274 672 225 c 1,403,404
 654 224 654 224 603 221 c 1,405,406
 595 237 595 237 571 284 c 1,407,408
 580 300 580 300 609 348 c 1,409,410
 626 349 626 349 678 352 c 1,399,400
327 225 m 1,411,412
 317 242 317 242 287 289 c 1,413,414
 295 305 295 305 320 352 c 1,415,416
 338 351 338 351 390 348 c 1,417,418
 400 332 400 332 428 284 c 1,419,420
 420 268 420 268 396 221 c 1,421,422
 379 222 379 222 327 225 c 1,411,412
609 388 m 1,423,424
 599 405 599 405 571 454 c 1,425,426
 579 469 579 469 603 514 c 1,427,428
 621 514 621 514 672 513 c 1,429,430
 682 496 682 496 712 447 c 1,431,432
 703 431 703 431 678 385 c 1,433,434
 661 386 661 386 609 388 c 1,423,424
571 623 m 1,435,436
 580 635 580 635 609 669 c 1,437,438
 625 667 625 667 672 663 c 1,439,440
 682 649 682 649 712 609 c 1,441,442
 705 596 705 596 684 556 c 1,443,444
 665 556 665 556 609 556 c 1,445,446
 599 572 599 572 571 623 c 1,435,436
314 556 m 1,447,448
 308 571 308 571 292 612 c 1,449,450
 302 625 302 625 330 665 c 1,451,452
 347 666 347 666 396 669 c 1,453,454
 404 657 404 657 428 621 c 1,455,456
 419 604 419 604 390 556 c 1,457,458
 371 556 371 556 314 556 c 1,447,448
249 432 m 1,459,460
 259 415 259 415 287 365 c 1,461,462
 277 348 277 348 249 301 c 1,463,464
 234 303 234 303 189 309 c 1,465,466
 181 324 181 324 161 368 c 1,467,468
 168 383 168 383 189 429 c 1,469,470
 204 430 204 430 249 432 c 1,459,460
435 112 m 1,471,472
 426 99 426 99 397 64 c 1,473,474
 380 66 380 66 334 69 c 1,475,476
 324 84 324 84 295 124 c 1,477,478
 302 137 302 137 321 177 c 1,479,480
 340 177 340 177 397 177 c 1,481,482
 407 160 407 160 435 112 c 1,471,472
684 178 m 1,483,484
 691 164 691 164 708 122 c 1,485,486
 698 108 698 108 669 69 c 1,487,488
 652 68 652 68 603 64 c 1,489,490
 595 77 595 77 571 114 c 1,491,492
 580 130 580 130 609 178 c 1,493,494
 628 178 628 178 684 178 c 1,483,484
755 302 m 1,495,496
 746 319 746 319 719 368 c 1,497,498
 728 385 728 385 755 436 c 1,499,500
 771 434 771 434 816 426 c 1,501,502
 822 411 822 411 843 367 c 1,503,504
 836 351 836 351 814 305 c 1,505,506
 799 304 799 304 755 302 c 1,495,496
EndSplineSet
Validated: 1
EndChar

StartChar: plus
Encoding: 43 43 13
Width: 901
GlyphClass: 2
Flags: W
LayerCount: 2
Fore
SplineSet
691 555 m 1,0,1
 668 533 668 533 599 467 c 1,2,3
 627 480 627 480 712 520 c 1,4,5
 720 503 720 503 728 488 c 0,6,7
 736 472 736 472 740 453 c 1,8,9
 700 435 700 435 620 400 c 1,10,11
 652 404 652 404 751 414 c 1,12,13
 751 400 751 400 753 389 c 0,14,15
 754 378 754 378 754 368 c 0,16,17
 754 357 754 357 753 348 c 0,18,19
 751 339 751 339 751 329 c 1,20,21
 710 331 710 331 627 333 c 1,22,23
 656 322 656 322 744 290 c 1,24,25
 739 271 739 271 731 251 c 0,26,27
 722 231 722 231 712 212 c 1,28,29
 675 230 675 230 599 265 c 1,30,31
 622 244 622 244 691 184 c 1,32,33
 676 167 676 167 663 155 c 0,34,35
 650 142 650 142 634 131 c 1,36,37
 606 161 606 161 549 220 c 1,38,39
 563 191 563 191 602 106 c 1,40,41
 586 98 586 98 570 91 c 0,42,43
 553 83 553 83 535 78 c 1,44,45
 517 118 517 118 482 198 c 1,46,47
 484 166 484 166 493 67 c 1,48,49
 482 67 482 67 472 65 c 0,50,51
 461 64 461 64 450 64 c 256,52,53
 439 64 439 64 429 65 c 0,54,55
 419 67 419 67 408 67 c 1,56,57
 413 111 413 111 422 198 c 1,58,59
 409 168 409 168 369 78 c 1,60,61
 349 83 349 83 332 89 c 0,62,63
 315 96 315 96 298 106 c 1,64,65
 318 144 318 144 355 220 c 1,66,67
 333 197 333 197 267 128 c 1,68,69
 250 142 250 142 237 154 c 0,70,71
 223 167 223 167 213 181 c 1,72,73
 242 208 242 208 302 265 c 1,74,75
 274 251 274 251 189 212 c 1,76,77
 177 232 177 232 170 250 c 0,78,79
 162 270 162 270 157 290 c 1,80,81
 197 305 197 305 277 333 c 1,82,83
 245 332 245 332 150 329 c 1,84,85
 147 340 147 340 146 348 c 0,86,87
 146 357 146 357 146 368 c 256,88,89
 146 379 146 379 148 391 c 128,-1,90
 150 403 150 403 150 414 c 1,91,92
 193 409 193 409 281 400 c 1,93,94
 251 413 251 413 160 453 c 1,95,96
 164 464 164 464 168 476 c 0,97,98
 172 487 172 487 177 500 c 256,99,100
 182 513 182 513 189 524 c 1,101,102
 227 504 227 504 305 467 c 1,103,104
 282 488 282 488 210 555 c 1,105,106
 224 569 224 569 237 583 c 0,107,108
 250 598 250 598 267 608 c 1,109,110
 294 578 294 578 348 517 c 1,111,112
 336 545 336 545 298 630 c 1,113,114
 316 642 316 642 335 648 c 0,115,116
 356 656 356 656 376 662 c 1,117,118
 389 623 389 623 415 545 c 1,119,120
 415 576 415 576 415 669 c 1,121,122
 423 671 423 671 431 672 c 0,123,124
 440 672 440 672 450 672 c 0,125,126
 461 672 461 672 470 672 c 0,127,128
 478 671 478 671 489 669 c 1,129,130
 488 628 488 628 486 545 c 1,131,132
 496 574 496 574 528 662 c 1,133,134
 547 656 547 656 567 648 c 0,135,136
 587 641 587 641 606 630 c 1,137,138
 587 593 587 593 553 517 c 1,139,140
 574 539 574 539 638 608 c 1,141,142
 651 594 651 594 691 555 c 1,0,1
811 577 m 1,143,144
 811 473 811 473 811 163 c 1,145,146
 721 110 721 110 450 -49 c 1,147,148
 360 4 360 4 90 163 c 1,149,150
 90 267 90 267 90 577 c 1,151,152
 180 630 180 630 450 789 c 1,153,154
 540 736 540 736 811 577 c 1,143,144
450 46 m 0,155,156
 515 46 515 46 575 72 c 0,157,158
 634 97 634 97 677 140 c 0,159,160
 721 184 721 184 746 243 c 0,161,162
 772 303 772 303 772 368 c 0,163,164
 772 434 772 434 746 493 c 0,165,166
 721 553 721 553 677 595 c 0,167,168
 634 639 634 639 575 665 c 0,169,170
 515 690 515 690 450 690 c 0,171,172
 384 690 384 690 325 665 c 256,173,174
 266 640 266 640 223 595 c 0,175,176
 180 552 180 552 154 493 c 0,177,178
 129 434 129 434 129 368 c 0,179,180
 129 303 129 303 154 243 c 0,181,182
 179 184 179 184 223 140 c 0,183,184
 267 97 267 97 325 72 c 0,185,186
 384 46 384 46 450 46 c 0,155,156
871 612 m 1,187,188
 871 491 871 491 871 128 c 1,189,190
 766 67 766 67 450 -116 c 1,191,192
 345 -54 345 -54 30 131 c 1,193,194
 30 201 30 201 30 412 c 0,195,196
 30 462 30 462 30 612 c 1,197,198
 134 673 134 673 450 856 c 1,199,200
 556 795 556 795 871 612 c 1,187,188
839 594 m 1,201,202
 742 651 742 651 450 821 c 1,203,204
 351 764 351 764 58 594 c 1,205,206
 58 579 58 579 58 538 c 0,207,208
 58 441 58 441 58 149 c 1,209,210
 157 91 157 91 450 -81 c 1,211,212
 547 -24 547 -24 839 145 c 1,213,214
 839 257 839 257 839 594 c 1,201,202
EndSplineSet
Validated: 1
EndChar

StartChar: hyphen
Encoding: 45 45 14
Width: 1109
GlyphClass: 2
Flags: W
LayerCount: 2
Fore
SplineSet
556 -130 m 0,0,1
 502 -130 502 -130 451 -120 c 0,2,3
 400 -109 400 -109 352 -87 c 0,4,5
 162 0 162 0 81 200 c 0,6,7
 45 291 45 291 45 389 c 0,8,9
 45 394 45 394 45 405 c 0,10,11
 47 468 47 468 64 528 c 128,-1,12
 81 588 81 588 111 643 c 0,13,14
 173 753 173 753 289 830 c 0,15,16
 292 832 292 832 298 836 c 0,17,18
 300 834 300 834 306 830 c 0,19,20
 308 827 308 827 310 828 c 0,21,22
 311 828 311 828 311 827 c 0,23,24
 315 825 315 825 324 817 c 1,25,26
 321 814 321 814 313 804 c 0,27,28
 310 801 310 801 308 797 c 0,29,30
 306 794 306 794 303 790 c 0,31,32
 299 785 299 785 295 781 c 0,33,34
 254 727 254 727 230 664 c 0,35,36
 207 600 207 600 207 557 c 0,37,38
 207 545 207 545 207 521 c 0,39,40
 207 514 207 514 210 498 c 256,41,42
 213 482 213 482 224 454 c 0,43,44
 241 407 241 407 285 362 c 0,45,46
 323 327 323 327 365 321 c 0,47,48
 368 321 368 321 371 321 c 0,49,50
 374 320 374 320 376 320 c 0,51,52
 414 322 414 322 443 355 c 1,53,54
 474 404 474 404 475 469 c 0,55,56
 475 476 475 476 475 483 c 0,57,58
 474 489 474 489 474 496 c 0,59,60
 471 539 471 539 441 597 c 0,61,62
 428 622 428 622 406 640 c 0,63,64
 381 660 381 660 357 670 c 0,65,66
 350 672 350 672 337 678 c 1,67,68
 358 700 358 700 417 770 c 0,69,70
 420 769 420 769 428 765 c 0,71,72
 455 753 455 753 482 730 c 1,73,74
 470 760 470 760 452 787 c 0,75,76
 449 791 449 791 445 797 c 1,77,78
 472 828 472 828 556 925 c 1,79,80
 584 893 584 893 669 797 c 0,81,82
 667 794 667 794 662 787 c 0,83,84
 642 762 642 762 632 731 c 1,85,86
 659 754 659 754 686 766 c 0,87,88
 690 767 690 767 697 770 c 1,89,90
 717 748 717 748 777 678 c 1,91,92
 771 676 771 676 756 670 c 0,93,94
 719 653 719 653 698 632 c 0,95,96
 684 617 684 617 679 610 c 0,97,98
 673 601 673 601 671 597 c 0,99,100
 642 534 642 534 639 496 c 0,101,102
 638 487 638 487 638 482 c 0,103,104
 638 476 638 476 638 471 c 0,105,106
 638 462 638 462 638 446 c 0,107,108
 638 444 638 444 639 437 c 0,109,110
 640 429 640 429 644 410 c 0,111,112
 651 382 651 382 668 355 c 1,113,114
 700 320 700 320 736 320 c 0,115,116
 745 321 745 321 754 323 c 0,117,118
 763 324 763 324 773 328 c 0,119,120
 800 338 800 338 829 363 c 0,121,122
 907 443 907 443 907 545 c 0,123,124
 907 549 907 549 907 557 c 0,125,126
 904 583 904 583 899 606 c 128,-1,127
 894 629 894 629 887 649 c 0,128,129
 856 733 856 733 828 766 c 0,130,131
 820 774 820 774 814 782 c 256,132,133
 808 790 808 790 805 794 c 0,134,135
 801 800 801 800 797 804 c 0,136,137
 792 810 792 810 783 821 c 1,138,139
 791 825 791 825 814 835 c 0,140,141
 815 833 815 833 821 830 c 0,142,143
 936 754 936 754 1002 639 c 0,144,145
 1067 524 1067 524 1067 405 c 0,146,147
 1067 386 1067 386 1067 347 c 0,148,149
 1067 289 1067 289 1030 196 c 0,150,151
 996 106 996 106 924 30 c 0,152,153
 858 -42 858 -42 761 -87 c 0,154,155
 668 -130 668 -130 556 -130 c 0,0,1
233 746 m 1,156,157
 176 693 176 693 140 627 c 0,158,159
 82 523 82 523 77 404 c 0,160,161
 77 399 77 399 77 389 c 0,162,163
 77 295 77 295 111 212 c 0,164,165
 186 23 186 23 365 -58 c 0,166,167
 452 -98 452 -98 556 -98 c 0,168,169
 608 -98 608 -98 655 -88 c 0,170,171
 703 -77 703 -77 748 -58 c 0,172,173
 836 -18 836 -18 901 52 c 0,174,175
 967 123 967 123 1001 208 c 0,176,177
 1018 252 1018 252 1026 287 c 0,178,179
 1035 321 1035 321 1035 347 c 0,180,181
 1035 367 1035 367 1035 405 c 0,182,183
 1035 515 1035 515 974 623 c 0,184,185
 936 690 936 690 880 743 c 1,186,187
 889 726 889 726 898 705 c 128,-1,188
 907 684 907 684 917 660 c 0,189,190
 925 639 925 639 931 613 c 0,191,192
 936 589 936 589 939 559 c 0,193,194
 939 558 939 558 939 557 c 0,195,196
 939 554 939 554 939 545 c 0,197,198
 939 430 939 430 851 340 c 0,199,200
 820 310 820 310 783 297 c 0,201,202
 759 289 759 289 737 288 c 0,203,204
 683 288 683 288 643 335 c 1,205,-1
 642 337 l 1,206,207
 621 368 621 368 613 403 c 0,208,209
 608 424 608 424 607 433 c 256,210,211
 606 442 606 442 606 446 c 0,212,213
 606 455 606 455 606 471 c 0,214,215
 606 476 606 476 606 483 c 256,216,217
 606 490 606 490 607 499 c 0,218,219
 610 543 610 543 643 611 c 0,220,221
 652 630 652 630 674 653 c 0,222,223
 692 674 692 674 724 690 c 1,224,225
 712 704 712 704 688 731 c 1,226,227
 649 711 649 711 617 663 c 0,228,229
 606 646 606 646 584 614 c 1,230,231
 585 629 585 629 587 673 c 0,232,233
 592 736 592 736 629 795 c 1,234,235
 605 821 605 821 556 876 c 1,236,237
 538 855 538 855 485 795 c 1,238,239
 503 766 503 766 513 736 c 0,240,241
 524 707 524 707 525 673 c 0,242,243
 526 653 526 653 529 614 c 1,244,245
 520 627 520 627 496 663 c 0,246,247
 464 710 464 710 425 731 c 1,248,249
 413 717 413 717 389 690 c 1,250,251
 400 685 400 685 408 678 c 0,252,253
 417 672 417 672 426 664 c 0,254,255
 455 641 455 641 470 611 c 0,256,257
 501 548 501 548 506 499 c 0,258,259
 506 490 506 490 507 484 c 0,260,261
 507 476 507 476 507 469 c 0,262,263
 507 393 507 393 469 337 c 0,264,265
 469 336 469 336 468 335 c 0,266,267
 429 290 429 290 376 288 c 0,268,269
 372 288 372 288 368 288 c 0,270,271
 365 289 365 289 360 290 c 0,272,273
 306 298 306 298 263 339 c 0,274,275
 213 388 213 388 194 444 c 0,276,277
 174 495 174 495 175 521 c 0,278,279
 175 533 175 533 175 557 c 0,280,281
 175 582 175 582 182 611 c 128,-1,282
 189 640 189 640 200 675 c 0,283,284
 212 710 212 710 233 746 c 1,156,157
EndSplineSet
Validated: 33
EndChar

StartChar: zero
Encoding: 48 48 15
Width: 705
GlyphClass: 2
Flags: W
LayerCount: 2
Fore
SplineSet
358 492 m 0,0,1
 381 492 381 492 404 482 c 0,2,3
 425 472 425 472 442 456 c 128,-1,4
 459 440 459 440 469 418 c 0,5,6
 479 397 479 397 479 371 c 0,7,8
 479 346 479 346 469 324 c 128,-1,9
 459 302 459 302 442 285 c 256,10,11
 425 268 425 268 404 260 c 0,12,13
 382 250 382 250 358 250 c 0,14,15
 332 250 332 250 310 260 c 0,16,17
 289 269 289 269 271 285 c 0,18,19
 253 302 253 302 244 324 c 0,20,21
 235 345 235 345 235 371 c 0,22,23
 235 396 235 396 244 418 c 0,24,25
 254 440 254 440 271 456 c 0,26,27
 288 473 288 473 310 482 c 0,28,29
 332 492 332 492 358 492 c 0,0,1
358 574 m 0,30,31
 399 574 399 574 436 558 c 128,-1,32
 473 542 473 542 500 514 c 0,33,34
 528 488 528 488 544 450 c 0,35,36
 560 413 560 413 560 371 c 256,37,38
 560 329 560 329 544 292 c 256,39,40
 528 255 528 255 500 227 c 0,41,42
 473 201 473 201 436 184 c 0,43,44
 400 168 400 168 358 168 c 128,-1,45
 316 168 316 168 278 184 c 0,46,47
 241 201 241 201 213 227 c 0,48,49
 186 255 186 255 170 292 c 256,50,51
 154 329 154 329 154 371 c 256,52,53
 154 413 154 413 170 450 c 256,54,55
 186 487 186 487 213 514 c 0,56,57
 241 542 241 542 278 558 c 0,58,59
 316 574 316 574 358 574 c 0,30,31
358 232 m 0,60,61
 385 232 385 232 411 243 c 0,62,63
 435 254 435 254 454 272 c 0,64,65
 473 291 473 291 484 316 c 128,-1,66
 495 341 495 341 495 371 c 0,67,68
 495 399 495 399 484 425 c 0,69,70
 472 450 472 450 454 469 c 0,71,72
 435 489 435 489 411 499 c 0,73,74
 386 510 386 510 358 510 c 0,75,76
 329 510 329 510 304 499 c 256,77,78
 279 488 279 488 258 469 c 0,79,80
 239 450 239 450 228 425 c 128,-1,81
 217 400 217 400 217 371 c 128,-1,82
 217 342 217 342 228 316 c 0,83,84
 240 291 240 291 258 272 c 0,85,86
 279 253 279 253 304 243 c 0,87,88
 329 232 329 232 358 232 c 0,60,61
358 637 m 0,89,90
 412 637 412 637 461 616 c 0,91,92
 509 595 509 595 545 559 c 0,93,94
 582 524 582 524 603 475 c 128,-1,95
 624 426 624 426 624 371 c 256,96,97
 624 316 624 316 603 268 c 0,98,99
 582 219 582 219 545 182 c 0,100,101
 509 147 509 147 461 125 c 0,102,103
 412 104 412 104 358 104 c 0,104,105
 301 104 301 104 254 125 c 0,106,107
 205 146 205 146 168 182 c 0,108,109
 132 219 132 219 111 268 c 128,-1,110
 90 317 90 317 90 371 c 0,111,112
 90 426 90 426 111 475 c 128,-1,113
 132 524 132 524 168 559 c 0,114,115
 205 595 205 595 254 616 c 0,116,117
 301 637 301 637 358 637 c 0,89,90
358 126 m 0,118,119
 408 126 408 126 452 145 c 0,120,121
 497 165 497 165 530 198 c 256,122,123
 563 231 563 231 582 275 c 0,124,125
 602 320 602 320 602 371 c 256,126,127
 602 422 602 422 582 467 c 0,128,129
 563 511 563 511 530 544 c 256,130,131
 497 577 497 577 452 596 c 0,132,133
 408 616 408 616 358 615 c 0,134,135
 306 615 306 615 262 596 c 0,136,137
 217 577 217 577 183 544 c 0,138,139
 151 511 151 511 131 467 c 0,140,141
 112 422 112 422 112 371 c 256,142,143
 112 320 112 320 131 275 c 0,144,145
 151 231 151 231 183 198 c 0,146,147
 217 165 217 165 262 145 c 0,148,149
 306 126 306 126 358 126 c 0,118,119
681 371 m 0,150,151
 681 336 681 336 674 305 c 256,152,153
 667 274 667 274 655 244 c 1,154,155
 660 237 660 237 667 227 c 0,156,157
 674 216 674 216 679 205 c 0,158,159
 685 195 685 195 687 186 c 0,160,161
 688 182 688 182 688 181 c 0,162,163
 688 176 688 176 685 173 c 0,164,165
 680 167 680 167 661 148 c 0,166,167
 641 129 641 129 620 108 c 256,168,169
 599 87 599 87 580 67 c 0,170,171
 560 47 560 47 555 42 c 0,172,173
 552 39 552 39 546 39 c 0,174,175
 544 39 544 39 540 39 c 0,176,177
 531 42 531 42 520 47 c 0,178,179
 510 53 510 53 500 61 c 256,180,181
 490 69 490 69 484 73 c 1,182,183
 424 48 424 48 358 48 c 0,184,185
 290 48 290 48 229 73 c 1,186,187
 222 68 222 68 212 61 c 0,188,189
 202 53 202 53 191 48 c 128,-1,190
 180 43 180 43 172 41 c 0,191,192
 163 38 163 38 159 42 c 0,193,194
 153 48 153 48 135 66 c 0,195,196
 116 85 116 85 94 106 c 0,197,198
 73 127 73 127 54 147 c 128,-1,199
 35 167 35 167 28 173 c 0,200,201
 23 178 23 178 25 187 c 0,202,203
 28 197 28 197 34 207 c 256,204,205
 40 217 40 217 47 227 c 0,206,207
 54 238 54 238 59 244 c 1,208,209
 34 302 34 302 33 371 c 0,210,211
 33 438 33 438 59 499 c 1,212,213
 54 505 54 505 47 515 c 0,214,215
 40 526 40 526 34 535 c 0,216,217
 28 546 28 546 25 555 c 0,218,219
 24 558 24 558 24 560 c 0,220,221
 24 565 24 565 28 568 c 0,222,223
 35 575 35 575 54 594 c 0,224,225
 74 614 74 614 94 635 c 0,226,227
 116 657 116 657 135 676 c 256,228,229
 154 695 154 695 159 699 c 0,230,231
 163 703 163 703 172 701 c 256,232,233
 181 699 181 699 191 693 c 0,234,235
 202 688 202 688 212 681 c 0,236,237
 222 673 222 673 229 668 c 1,238,239
 290 694 290 694 358 694 c 0,240,241
 425 694 425 694 484 668 c 1,242,243
 490 673 490 673 500 681 c 256,244,245
 510 689 510 689 520 693 c 0,246,247
 532 699 532 699 540 701 c 0,248,249
 544 702 544 702 546 702 c 0,250,251
 552 702 552 702 555 699 c 0,252,253
 561 693 561 693 580 674 c 128,-1,254
 599 655 599 655 620 633 c 0,255,256
 641 612 641 612 661 593 c 0,257,258
 680 574 680 574 685 568 c 0,259,260
 690 564 690 564 687 555 c 0,261,262
 685 546 685 546 679 535 c 0,263,264
 674 525 674 525 667 515 c 128,-1,265
 660 505 660 505 655 499 c 1,266,267
 667 469 667 469 674 437 c 128,-1,268
 681 405 681 405 681 371 c 0,150,151
76 371 m 0,269,270
 76 312 76 312 98 261 c 128,-1,271
 120 210 120 210 158 172 c 0,272,273
 197 134 197 134 248 112 c 128,-1,274
 299 90 299 90 358 90 c 0,275,276
 416 90 416 90 467 112 c 0,277,278
 518 133 518 133 556 172 c 0,279,280
 594 210 594 210 616 261 c 0,281,282
 637 313 637 313 638 371 c 0,283,284
 638 429 638 429 616 480 c 128,-1,285
 594 531 594 531 556 569 c 256,286,287
 518 607 518 607 467 629 c 128,-1,288
 416 651 416 651 358 651 c 0,289,290
 298 651 298 651 248 629 c 0,291,292
 197 608 197 608 158 569 c 0,293,294
 120 531 120 531 98 480 c 128,-1,295
 76 429 76 429 76 371 c 0,269,270
EndSplineSet
Validated: 33
EndChar

StartChar: one
Encoding: 49 49 16
Width: 621
GlyphClass: 2
Flags: W
LayerCount: 2
Fore
SplineSet
603 -43 m 2,0,-1
 506 -44 l 2,1,2
 506 -43 506 -43 506 -14 c 128,-1,3
 506 15 506 15 499.5 62 c 128,-1,4
 493 109 493 109 478.5 170.5 c 128,-1,5
 464 232 464 232 434.5 299 c 128,-1,6
 405 366 405 366 359 434 c 256,7,8
 313 502 313 502 245 562 c 1,9,-1
 309 635 l 1,10,11
 386 567 386 567 438 491.5 c 128,-1,12
 490 416 490 416 523 342.5 c 128,-1,13
 556 269 556 269 572.5 201 c 128,-1,14
 589 133 589 133 596 80 c 128,-1,15
 603 27 603 27 603 -6 c 128,-1,16
 603 -39 603 -39 603 -43 c 2,0,-1
388 84 m 1,17,-1
 284 450 l 1,18,-1
 185 348 l 1,19,-1
 100 431 l 1,20,-1
 32 361 l 1,21,-1
 118 278 l 1,22,-1
 19 177 l 1,23,-1
 388 84 l 1,17,-1
EndSplineSet
Validated: 9
EndChar

StartChar: two
Encoding: 50 50 17
Width: 609
GlyphClass: 2
Flags: W
LayerCount: 2
Fore
SplineSet
589 288 m 1,0,-1
 494 121 l 1,1,-1
 397 -43 l 1,2,-1
 303 121 l 1,3,-1
 206 288 l 1,4,-1
 351 288 l 1,5,-1
 351 455 l 2,6,7
 349 478 349 478 339 498.5 c 128,-1,8
 329 519 329 519 313.5 534 c 128,-1,9
 298 549 298 549 277.5 557 c 128,-1,10
 257 565 257 565 234 565 c 0,11,12
 210 565 210 565 189 556 c 128,-1,13
 168 547 168 547 152 531.5 c 128,-1,14
 136 516 136 516 126.5 495 c 128,-1,15
 117 474 117 474 117 449 c 2,16,-1
 117 6 l 1,17,-1
 21 6 l 1,18,-1
 21 449 l 2,19,20
 21 493 21 493 37.5 532 c 128,-1,21
 54 571 54 571 82.5 600.5 c 128,-1,22
 111 630 111 630 150 646.5 c 128,-1,23
 189 663 189 663 234 663 c 0,24,25
 278 663 278 663 317 646.5 c 128,-1,26
 356 630 356 630 385 600.5 c 128,-1,27
 414 571 414 571 430.5 532 c 128,-1,28
 447 493 447 493 447 449 c 2,29,-1
 447 288 l 1,30,-1
 589 288 l 1,0,-1
EndSplineSet
Validated: 1
EndChar

StartChar: three
Encoding: 51 51 18
Width: 623
GlyphClass: 2
Flags: W
LayerCount: 2
Fore
SplineSet
19 -43 m 2,0,1
 19 -39 19 -39 19 -6 c 128,-1,2
 19 27 19 27 25.5 80 c 128,-1,3
 32 133 32 133 48.5 201 c 128,-1,4
 65 269 65 269 98 342.5 c 128,-1,5
 131 416 131 416 183 492 c 0,6,7
 234 567 234 567 312 635 c 1,8,-1
 376 562 l 1,9,10
 307 501 307 501 261 433.5 c 128,-1,11
 215 366 215 366 185.5 298.5 c 128,-1,12
 156 231 156 231 141.5 169.5 c 128,-1,13
 127 108 127 108 121 61 c 128,-1,14
 115 14 115 14 114.5 -14.5 c 128,-1,15
 114 -43 114 -43 114 -44 c 2,16,-1
 19 -43 l 2,0,1
503 278 m 1,17,-1
 588 361 l 1,18,-1
 521 431 l 1,19,-1
 436 348 l 1,20,-1
 337 450 l 1,21,-1
 233 84 l 1,22,-1
 603 177 l 1,23,-1
 503 278 l 1,17,-1
EndSplineSet
Validated: 9
EndChar

StartChar: four
Encoding: 52 52 19
Width: 671
GlyphClass: 2
Flags: W
LayerCount: 2
Fore
SplineSet
352 502 m 1,0,-1
 652 502 l 1,1,-1
 652 -44 l 1,2,-1
 556 -44 l 1,3,-1
 556 405 l 1,4,-1
 352 405 l 1,5,-1
 352 259 l 1,6,-1
 185 355 l 1,7,-1
 20 450 l 1,8,-1
 185 547 l 1,9,-1
 352 642 l 1,10,-1
 352 502 l 1,0,-1
EndSplineSet
Validated: 1
EndChar

StartChar: five
Encoding: 53 53 20
Width: 461
GlyphClass: 2
Flags: W
LayerCount: 2
Fore
SplineSet
439 103 m 1,0,-1
 22 103 l 1,1,-1
 22 520 l 1,2,-1
 439 520 l 1,3,-1
 439 103 l 1,0,-1
EndSplineSet
Validated: 1
EndChar

StartChar: six
Encoding: 54 54 21
Width: 674
GlyphClass: 2
Flags: W
LayerCount: 2
Fore
SplineSet
323 502 m 1,0,-1
 323 642 l 1,1,-1
 488 547 l 1,2,-1
 653 450 l 1,3,-1
 488 355 l 1,4,-1
 323 259 l 1,5,-1
 323 405 l 1,6,-1
 117 405 l 1,7,-1
 117 -44 l 1,8,-1
 21 -44 l 1,9,-1
 21 502 l 1,10,-1
 323 502 l 1,0,-1
EndSplineSet
Validated: 1
EndChar

StartChar: seven
Encoding: 55 55 22
Width: 471
GlyphClass: 2
Flags: W
LayerCount: 2
Fore
SplineSet
354 -44 m 1,0,1
 354 81 354 81 320 198.5 c 128,-1,2
 286 316 286 316 220 421 c 1,3,-1
 118 318 l 1,4,-1
 68 504 l 1,5,-1
 20 688 l 1,6,-1
 203 639 l 1,7,-1
 389 590 l 1,8,-1
 290 491 l 1,9,10
 369 373 369 373 410 236 c 128,-1,11
 451 99 451 99 451 -44 c 1,12,-1
 354 -44 l 1,0,1
EndSplineSet
Validated: 1
EndChar

StartChar: eight
Encoding: 56 56 23
Width: 424
GlyphClass: 2
Flags: W
LayerCount: 2
Fore
SplineSet
402 457 m 1,0,-1
 260 457 l 1,1,-1
 260 -44 l 1,2,-1
 163 -44 l 1,3,-1
 163 457 l 1,4,-1
 20 457 l 1,5,-1
 116 622 l 1,6,-1
 211 789 l 1,7,-1
 308 622 l 1,8,-1
 402 457 l 1,0,-1
EndSplineSet
Validated: 1
EndChar

StartChar: nine
Encoding: 57 57 24
Width: 471
GlyphClass: 2
Flags: W
LayerCount: 2
Fore
SplineSet
21 -44 m 1,0,1
 21 99 21 99 62.5 235.5 c 128,-1,2
 104 372 104 372 184 490 c 1,3,-1
 83 589 l 1,4,-1
 269 639 l 1,5,-1
 452 689 l 1,6,-1
 403 504 l 1,7,-1
 354 320 l 1,8,-1
 252 420 l 1,9,10
 186 316 186 316 151.5 198.5 c 128,-1,11
 117 81 117 81 117 -44 c 1,12,-1
 21 -44 l 1,0,1
EndSplineSet
Validated: 1
EndChar

StartChar: colon
Encoding: 58 58 25
Width: 625
GlyphClass: 2
Flags: W
LayerCount: 2
Fore
SplineSet
509 464 m 1,0,-1
 159 464 l 1,1,-1
 159 563 l 1,2,-1
 605 563 l 1,3,-1
 605 4 l 1,4,-1
 509 4 l 1,5,-1
 509 464 l 1,0,-1
400 242 m 1,6,-1
 210 -97 l 1,7,-1
 20 243 l 1,8,-1
 162 242 l 1,9,-1
 162 364 l 1,10,-1
 259 364 l 1,11,-1
 259 242 l 1,12,-1
 400 242 l 1,6,-1
EndSplineSet
Validated: 1
EndChar

StartChar: semicolon
Encoding: 59 59 26
Width: 627
GlyphClass: 2
Flags: W
LayerCount: 2
Fore
SplineSet
117 4 m 1,0,-1
 21 4 l 1,1,-1
 21 563 l 1,2,-1
 467 563 l 1,3,-1
 467 464 l 1,4,-1
 117 464 l 1,5,-1
 117 4 l 1,0,-1
464 242 m 1,6,-1
 464 364 l 1,7,-1
 367 364 l 1,8,-1
 367 242 l 1,9,-1
 225 242 l 1,10,-1
 416 -97 l 1,11,-1
 606 243 l 1,12,-1
 464 242 l 1,6,-1
EndSplineSet
Validated: 9
EndChar

StartChar: equal
Encoding: 61 61 27
Width: 1032
GlyphClass: 2
Flags: W
LayerCount: 2
Fore
SplineSet
664 538 m 0,0,1
 669 531 669 531 666 515 c 128,-1,2
 663 499 663 499 651 476.5 c 128,-1,3
 639 454 639 454 617.5 427 c 128,-1,4
 596 400 596 400 564 371 c 2,5,-1
 479 285 l 1,6,-1
 499 201 l 1,7,-1
 445 148 l 1,8,-1
 412 231 l 1,9,-1
 367 184 l 1,10,-1
 314 234 l 1,11,-1
 361 285 l 1,12,-1
 275 318 l 1,13,-1
 327 371 l 1,14,-1
 413 349 l 1,15,-1
 499 435 l 2,16,17
 528 466 528 466 555 488 c 128,-1,18
 582 510 582 510 604.5 522.5 c 128,-1,19
 627 535 627 535 642.5 539 c 128,-1,20
 658 543 658 543 664 538 c 0,0,1
309 684 m 0,21,22
 194 614 194 614 148 493 c 1,23,-1
 56 526 l 1,24,25
 84 602 84 602 135 664.5 c 128,-1,26
 186 727 186 727 258 772 c 0,27,28
 341 820 341 820 432 834 c 128,-1,29
 523 848 523 848 621 823 c 0,30,31
 700 804 700 804 769 757 c 128,-1,32
 838 710 838 710 889 643 c 1,33,-1
 979 704 l 1,34,-1
 998 384 l 1,35,-1
 713 526 l 1,36,-1
 802 586 l 1,37,38
 764 638 764 638 710.5 675 c 128,-1,39
 657 712 657 712 594 726 c 0,40,41
 572 733 572 733 548 735.5 c 128,-1,42
 524 738 524 738 503 738 c 0,43,44
 451 738 451 738 402 724.5 c 128,-1,45
 353 711 353 711 309 684 c 0,21,22
412 -7 m 0,46,47
 482 -25 482 -25 550.5 -15.5 c 128,-1,48
 619 -6 619 -6 678.5 26 c 128,-1,49
 738 58 738 58 784 109 c 128,-1,50
 830 160 830 160 855 227 c 1,51,-1
 950 193 l 1,52,53
 922 117 922 117 871.5 54.5 c 128,-1,54
 821 -8 821 -8 751 -51 c 0,55,56
 632 -118 632 -118 503 -118 c 0,57,58
 475 -118 475 -118 445.5 -115 c 128,-1,59
 416 -112 416 -112 386 -104 c 0,60,61
 308 -84 308 -84 242.5 -42 c 128,-1,62
 177 0 177 0 128 59 c 1,63,-1
 36 8 l 1,64,-1
 45 330 l 1,65,-1
 317 161 l 1,66,-1
 219 110 l 1,67,68
 258 66 258 66 305.5 36.5 c 128,-1,69
 353 7 353 7 412 -7 c 0,46,47
EndSplineSet
Validated: 33
EndChar

StartChar: greater
Encoding: 62 62 28
Width: 494
GlyphClass: 2
Flags: W
LayerCount: 2
Fore
SplineSet
37 669 m 1,0,-1
 37 -131 l 1,1,-1
 465 269 l 1,2,-1
 37 669 l 1,0,-1
EndSplineSet
Validated: 9
EndChar

StartChar: question
Encoding: 63 63 29
Width: 1258
GlyphClass: 2
Flags: W
LayerCount: 2
Fore
SplineSet
863 270 m 0,0,1
 748 270 748 270 390 270 c 1,2,3
 370 239 370 239 310 148 c 1,4,5
 264 148 264 148 135 148 c 1,6,7
 149 179 149 179 191 270 c 1,8,9
 177 270 177 270 135 270 c 1,10,11
 135 274 135 274 135 291 c 1,12,13
 110 291 110 291 44 291 c 1,14,15
 44 333 44 333 44 463 c 1,16,17
 65 463 65 463 135 463 c 1,18,19
 135 470 135 470 135 487 c 1,20,21
 149 487 149 487 191 487 c 1,22,23
 177 519 177 519 135 613 c 1,24,25
 177 613 177 613 310 613 c 1,26,27
 331 582 331 582 394 487 c 1,28,29
 513 487 513 487 863 487 c 0,30,31
 930 487 930 487 992 477 c 0,32,33
 1056 463 1056 463 1101 445 c 0,34,35
 1150 428 1150 428 1182 410 c 0,36,37
 1213 393 1213 393 1213 375 c 0,38,39
 1213 361 1213 361 1185 344 c 0,40,41
 1154 326 1154 326 1104 309 c 0,42,43
 1059 295 1059 295 996 281 c 0,44,45
 933 270 933 270 863 270 c 0,0,1
EndSplineSet
Validated: 1
EndChar

StartChar: at
Encoding: 64 64 30
Width: 1008
GlyphClass: 2
Flags: W
LayerCount: 2
Fore
SplineSet
879 183 m 1,0,1
 890 203 890 203 898 223 c 0,2,3
 906 244 906 244 911 269 c 0,4,5
 919 295 919 295 922 322 c 128,-1,6
 925 349 925 349 925 375 c 0,7,8
 925 403 925 403 922 431 c 128,-1,9
 919 459 919 459 911 485 c 0,10,11
 906 508 906 508 898 528 c 0,12,13
 889 549 889 549 879 570 c 1,14,15
 873 567 873 567 861 559 c 1,16,17
 871 540 871 540 879 521 c 0,18,19
 887 501 887 501 894 481 c 1,20,21
 877 476 877 476 844 467 c 1,22,23
 857 423 857 423 856 375 c 0,24,25
 856 328 856 328 844 286 c 1,26,27
 861 282 861 282 894 272 c 1,28,29
 880 229 880 229 861 193 c 1,30,31
 867 190 867 190 879 183 c 1,0,1
802 79 m 0,32,33
 819 95 819 95 832 112 c 0,34,35
 847 131 847 131 858 149 c 1,36,37
 852 153 852 153 842 159 c 1,38,39
 831 140 831 140 818 123 c 0,40,41
 804 106 804 106 788 93 c 1,42,43
 776 105 776 105 754 128 c 1,44,45
 722 96 722 96 682 73 c 0,46,47
 641 50 641 50 596 36 c 1,48,49
 600 20 600 20 608 -11 c 1,50,51
 566 -23 566 -23 521 -26 c 1,52,53
 521 -32 521 -32 521 -44 c 1,54,55
 543 -44 543 -44 567 -40 c 0,56,57
 590 -36 590 -36 614 -30 c 0,58,59
 669 -16 669 -16 717 12 c 0,60,61
 764 42 764 42 802 79 c 0,32,33
481 -24 m 1,62,63
 439 -24 439 -24 402 -11 c 1,64,65
 405 5 405 5 413 36 c 1,66,67
 322 62 322 62 255 128 c 1,68,69
 244 116 244 116 221 93 c 1,70,71
 190 121 190 121 167 159 c 1,72,73
 162 156 162 156 152 149 c 1,74,75
 163 130 163 130 177 112 c 0,76,77
 192 94 192 94 207 79 c 0,78,79
 245 42 245 42 293 12 c 0,80,81
 341 -16 341 -16 395 -30 c 0,82,83
 417 -36 417 -36 438 -39 c 256,84,85
 459 -42 459 -42 481 -44 c 1,86,87
 481 -38 481 -38 481 -24 c 1,62,63
148 193 m 1,88,89
 128 229 128 229 115 272 c 1,90,91
 132 277 132 277 166 286 c 1,92,93
 153 328 153 328 153 375 c 0,94,95
 153 425 153 425 166 467 c 1,96,97
 149 472 149 472 115 481 c 1,98,99
 122 502 122 502 130 521 c 0,100,101
 138 541 138 541 148 559 c 1,102,103
 142 563 142 563 131 570 c 1,104,105
 119 549 119 549 111 528 c 0,106,107
 102 508 102 508 98 485 c 0,108,109
 84 432 84 432 84 375 c 0,110,111
 84 349 84 349 87 322 c 0,112,113
 90 296 90 296 98 269 c 0,114,115
 109 222 109 222 131 183 c 1,116,117
 136 186 136 186 148 193 c 1,88,89
207 673 m 0,118,119
 191 658 191 658 177 641 c 0,120,121
 163 623 163 623 152 604 c 1,122,123
 157 601 157 601 167 594 c 1,124,125
 178 612 178 612 191 629 c 0,126,127
 205 646 205 646 221 659 c 1,128,129
 233 648 233 648 255 625 c 1,130,131
 288 656 288 656 328 681 c 0,132,133
 368 705 368 705 413 717 c 1,134,135
 409 733 409 733 402 765 c 1,136,137
 419 770 419 770 440 774 c 0,138,139
 461 777 461 777 481 778 c 1,140,141
 481 784 481 784 481 796 c 1,142,143
 460 795 460 795 438 792 c 0,144,145
 417 789 417 789 395 782 c 0,146,147
 341 769 341 769 293 740 c 128,-1,148
 245 711 245 711 207 673 c 0,118,119
648 375 m 0,149,150
 648 385 648 385 646 395 c 0,151,152
 644 404 644 404 644 413 c 1,153,154
 693 426 693 426 788 452 c 1,155,156
 778 490 778 490 759 524 c 0,157,158
 739 558 739 558 713 584 c 1,159,160
 678 548 678 548 606 477 c 1,161,162
 592 491 592 491 576 500 c 0,163,164
 558 509 558 509 540 515 c 1,165,166
 554 563 554 563 580 659 c 1,167,168
 561 664 561 664 543 666 c 0,169,170
 524 669 524 669 506 669 c 0,171,172
 486 669 486 669 467 666 c 0,173,174
 447 663 447 663 429 659 c 1,175,176
 443 611 443 611 469 515 c 1,177,178
 450 509 450 509 434 500 c 0,179,180
 417 490 417 490 403 477 c 1,181,182
 367 513 367 513 296 584 c 1,183,184
 270 558 270 558 251 524 c 256,185,186
 232 490 232 490 222 452 c 1,187,188
 272 439 272 439 369 413 c 1,189,190
 362 395 362 395 362 375 c 0,191,192
 362 366 362 366 363 358 c 0,193,194
 365 348 365 348 369 340 c 1,195,196
 320 326 320 326 222 300 c 1,197,198
 233 263 233 263 251 230 c 0,199,200
 270 197 270 197 296 168 c 1,201,202
 332 203 332 203 403 276 c 1,203,204
 417 264 417 264 434 254 c 0,205,206
 451 243 451 243 469 240 c 1,207,208
 456 191 456 191 429 93 c 1,209,210
 448 88 448 88 467 85 c 0,211,212
 487 83 487 83 506 83 c 128,-1,213
 525 83 525 83 543 85 c 0,214,215
 562 88 562 88 580 93 c 1,216,217
 566 142 566 142 540 240 c 1,218,219
 559 244 559 244 576 253 c 128,-1,220
 593 262 593 262 606 276 c 1,221,222
 641 240 641 240 713 168 c 1,223,224
 739 195 739 195 759 229 c 0,225,226
 779 262 779 262 788 300 c 1,227,228
 740 313 740 313 644 340 c 1,229,230
 645 348 645 348 646 358 c 0,231,232
 648 366 648 366 648 375 c 0,149,150
521 778 m 1,233,234
 543 777 543 777 565 774 c 0,235,236
 586 770 586 770 608 765 c 1,237,238
 603 749 603 749 596 717 c 1,239,240
 641 705 641 705 682 681 c 0,241,242
 722 657 722 657 754 625 c 1,243,244
 766 637 766 637 788 660 c 1,245,246
 805 646 805 646 818 629 c 0,247,248
 831 611 831 611 842 594 c 1,249,250
 848 597 848 597 858 604 c 1,251,252
 846 624 846 624 832 641 c 0,253,254
 818 659 818 659 802 673 c 0,255,256
 764 711 764 711 717 741 c 0,257,258
 669 770 669 770 614 785 c 0,259,260
 591 791 591 791 567 793 c 0,261,262
 544 796 544 796 521 796 c 1,263,264
 521 791 521 791 521 778 c 1,233,234
963 499 m 0,265,266
 971 470 971 470 975 439 c 256,267,268
 979 408 979 408 979 375 c 0,269,270
 979 343 979 343 975 312 c 256,271,272
 971 281 971 281 963 252 c 0,273,274
 946 191 946 191 915 138 c 128,-1,275
 884 85 884 85 840 41 c 0,276,277
 797 -4 797 -4 742 -35 c 0,278,279
 688 -65 688 -65 627 -82 c 0,280,281
 598 -91 598 -91 567 -94 c 0,282,283
 537 -98 537 -98 506 -98 c 0,284,285
 473 -98 473 -98 442 -94 c 0,286,287
 412 -90 412 -90 383 -82 c 0,288,289
 321 -65 321 -65 267 -35 c 0,290,291
 212 -4 212 -4 169 41 c 0,292,293
 126 85 126 85 95 138 c 0,294,295
 64 192 64 192 46 252 c 0,296,297
 38 280 38 280 34 312 c 0,298,299
 30 343 30 343 30 375 c 256,300,301
 30 407 30 407 34 439 c 0,302,303
 38 470 38 470 46 499 c 0,304,305
 64 561 64 561 95 615 c 256,306,307
 126 669 126 669 169 711 c 0,308,309
 212 756 212 756 267 787 c 0,310,311
 322 817 322 817 383 834 c 0,312,313
 439 850 439 850 506 850 c 0,314,315
 537 850 537 850 567 846 c 256,316,317
 597 842 597 842 627 834 c 0,318,319
 689 816 689 816 742 787 c 0,320,321
 797 757 797 757 840 711 c 0,322,323
 884 668 884 668 915 615 c 0,324,325
 946 561 946 561 963 499 c 0,265,266
EndSplineSet
Validated: 33
EndChar

StartChar: A
Encoding: 65 65 31
Width: 990
GlyphClass: 2
Flags: W
LayerCount: 2
Fore
SplineSet
517 320 m 256,0,1
 496 320 496 320 481 334 c 128,-1,2
 466 348 466 348 466 369 c 256,3,4
 466 390 466 390 480.5 405 c 128,-1,5
 495 420 495 420 517 420 c 0,6,7
 538 420 538 420 553 405.5 c 128,-1,8
 568 391 568 391 568 369 c 0,9,10
 568 348 568 348 553 334 c 128,-1,11
 538 320 538 320 517 320 c 256,0,1
496 845 m 0,12,13
 594 845 594 845 680.5 808 c 128,-1,14
 767 771 767 771 831.5 706.5 c 128,-1,15
 896 642 896 642 933 555.5 c 128,-1,16
 970 469 970 469 970 371 c 0,17,18
 970 272 970 272 933 186.5 c 128,-1,19
 896 101 896 101 831.5 36.5 c 128,-1,20
 767 -28 767 -28 680.5 -65.5 c 128,-1,21
 594 -103 594 -103 496 -103 c 0,22,23
 397 -103 397 -103 311.5 -65.5 c 128,-1,24
 226 -28 226 -28 161.5 36.5 c 128,-1,25
 97 101 97 101 59.5 186.5 c 128,-1,26
 22 272 22 272 22 371 c 0,27,28
 22 469 22 469 59.5 555.5 c 128,-1,29
 97 642 97 642 161.5 706.5 c 128,-1,30
 226 771 226 771 311.5 808 c 128,-1,31
 397 845 397 845 496 845 c 0,12,13
448 129 m 1,32,-1
 311 129 l 1,33,-1
 311 -6 l 1,34,35
 343 -23 343 -23 377 -32 c 128,-1,36
 411 -41 411 -41 448 -46 c 1,37,-1
 448 129 l 1,32,-1
794 232 m 1,38,-1
 212 232 l 1,39,-1
 212 168 l 1,40,-1
 794 168 l 1,41,-1
 794 232 l 1,38,-1
502 519 m 0,42,43
 536 519 536 519 564.5 522.5 c 128,-1,44
 593 526 593 526 611 532 c 1,45,46
 559 553 559 553 502 553 c 0,47,48
 444 553 444 553 394 532 c 1,49,50
 413 526 413 526 441 522.5 c 128,-1,51
 469 519 469 519 502 519 c 0,42,43
415 466 m 1,52,-1
 415 272 l 1,53,-1
 655 272 l 1,54,-1
 655 466 l 1,55,-1
 415 466 l 1,52,-1
897 254 m 1,56,57
 915 310 915 310 915 371 c 0,58,59
 915 458 915 458 882.5 534.5 c 128,-1,60
 850 611 850 611 792.5 668.5 c 128,-1,61
 735 726 735 726 659 759 c 128,-1,62
 583 792 583 792 496 792 c 256,63,64
 409 792 409 792 332.5 759 c 128,-1,65
 256 726 256 726 199 668.5 c 128,-1,66
 142 611 142 611 108.5 534.5 c 128,-1,67
 75 458 75 458 75 371 c 0,68,69
 75 309 75 309 93 254 c 1,70,-1
 157 254 l 1,71,-1
 157 125 l 1,72,73
 167 107 167 107 182 95 c 1,74,-1
 182 259 l 2,75,76
 182 342 182 342 219.5 411 c 128,-1,77
 257 480 257 480 321 524 c 1,78,-1
 321 629 l 1,79,-1
 246 629 l 1,80,81
 274 666 274 666 312 693.5 c 128,-1,82
 350 721 350 721 396 737 c 1,83,-1
 396 629 l 1,84,-1
 361 629 l 1,85,-1
 361 548 l 2,86,87
 363 549 363 549 365 549 c 128,-1,88
 367 549 367 549 369 551 c 0,89,90
 429 580 429 580 502 580 c 0,91,92
 573 580 573 580 637 551 c 0,93,94
 678 531 678 531 712 501.5 c 128,-1,95
 746 472 746 472 771 434 c 128,-1,96
 796 396 796 396 810 351.5 c 128,-1,97
 824 307 824 307 824 259 c 2,98,-1
 824 109 l 1,99,100
 831 118 831 118 837 127.5 c 128,-1,101
 843 137 843 137 851 146 c 1,102,-1
 851 254 l 1,103,-1
 897 254 l 1,56,57
EndSplineSet
Validated: 1
EndChar

StartChar: B
Encoding: 66 66 32
Width: 990
GlyphClass: 2
Flags: W
LayerCount: 2
Fore
SplineSet
496 845 m 0,0,1
 594 845 594 845 680.5 808 c 128,-1,2
 767 771 767 771 831.5 706.5 c 128,-1,3
 896 642 896 642 933 555.5 c 128,-1,4
 970 469 970 469 970 371 c 0,5,6
 970 272 970 272 933 186.5 c 128,-1,7
 896 101 896 101 831.5 36.5 c 128,-1,8
 767 -28 767 -28 680.5 -65.5 c 128,-1,9
 594 -103 594 -103 496 -103 c 0,10,11
 397 -103 397 -103 311.5 -65.5 c 128,-1,12
 226 -28 226 -28 161.5 36.5 c 128,-1,13
 97 101 97 101 59.5 186.5 c 128,-1,14
 22 272 22 272 22 371 c 0,15,16
 22 469 22 469 59.5 555.5 c 128,-1,17
 97 642 97 642 161.5 706.5 c 128,-1,18
 226 771 226 771 311.5 808 c 128,-1,19
 397 845 397 845 496 845 c 0,0,1
496 -50 m 256,20,21
 583 -50 583 -50 659 -16.5 c 128,-1,22
 735 17 735 17 792.5 74 c 128,-1,23
 850 131 850 131 882.5 207.5 c 128,-1,24
 915 284 915 284 915 371 c 256,25,26
 915 458 915 458 882.5 534 c 128,-1,27
 850 610 850 610 792.5 667.5 c 128,-1,28
 735 725 735 725 659 757.5 c 128,-1,29
 583 790 583 790 496 790 c 256,30,31
 409 790 409 790 332.5 757.5 c 128,-1,32
 256 725 256 725 199 667.5 c 128,-1,33
 142 610 142 610 108.5 534 c 128,-1,34
 75 458 75 458 75 371 c 256,35,36
 75 284 75 284 108.5 207.5 c 128,-1,37
 142 131 142 131 199 74 c 128,-1,38
 256 17 256 17 332.5 -16.5 c 128,-1,39
 409 -50 409 -50 496 -50 c 256,20,21
792 542 m 2,40,41
 793 522 793 522 790.5 510.5 c 128,-1,42
 788 499 788 499 784 491.5 c 128,-1,43
 780 484 780 484 776 481 c 128,-1,44
 772 478 772 478 771 476 c 0,45,46
 772 470 772 470 771.5 463.5 c 128,-1,47
 771 457 771 457 770 452 c 0,48,49
 769 446 769 446 768 441 c 0,50,51
 769 439 769 439 768 436 c 0,52,53
 767 432 767 432 765.5 425 c 128,-1,54
 764 418 764 418 760 407 c 0,55,56
 755 395 755 395 748 386 c 128,-1,57
 741 377 741 377 733.5 370.5 c 128,-1,58
 726 364 726 364 719 360 c 128,-1,59
 712 356 712 356 708 355 c 1,60,61
 709 343 709 343 703 330.5 c 128,-1,62
 697 318 697 318 689 306 c 128,-1,63
 681 294 681 294 671 282.5 c 128,-1,64
 661 271 661 271 653 263 c 0,65,66
 644 253 644 253 630.5 244.5 c 128,-1,67
 617 236 617 236 604 229 c 0,68,69
 588 221 588 221 570 214 c 1,70,-1
 566 204 l 2,71,72
 565 199 565 199 564 195 c 0,73,74
 563 188 563 188 561 184 c 0,75,76
 559 179 559 179 548.5 167 c 128,-1,77
 538 155 538 155 530 147 c 256,78,79
 522 139 522 139 512 136.5 c 128,-1,80
 502 134 502 134 494 134 c 1,81,82
 483 124 483 124 472 123.5 c 128,-1,83
 461 123 461 123 456 123 c 1,84,85
 453 117 453 117 442 110 c 128,-1,86
 431 103 431 103 428 100 c 0,87,88
 427 96 427 96 419 90 c 0,89,90
 415 87 415 87 411 85 c 0,91,92
 408 84 408 84 404 83 c 256,93,94
 400 82 400 82 395.5 81.5 c 128,-1,95
 391 81 391 81 384 79 c 0,96,97
 376 77 376 77 368 78 c 128,-1,98
 360 79 360 79 355 81 c 2,99,-1
 327 73 l 2,100,101
 325 71 325 71 321 71 c 0,102,103
 316 68 316 68 308.5 70 c 128,-1,104
 301 72 301 72 289 75 c 0,105,106
 266 81 266 81 230 115 c 0,107,108
 213 132 213 132 207.5 149.5 c 128,-1,109
 202 167 202 167 202 170 c 0,110,111
 197 184 197 184 199 191.5 c 128,-1,112
 201 199 201 199 204 202 c 1,113,114
 199 207 199 207 202 212 c 256,115,116
 205 217 205 217 206.5 219 c 128,-1,117
 208 221 208 221 208 224 c 0,118,119
 208 226 208 226 207 231 c 128,-1,120
 206 236 206 236 208 242 c 0,121,122
 208 245 208 245 208.5 253 c 128,-1,123
 209 261 209 261 214 274 c 0,124,125
 216 284 216 284 221 289.5 c 128,-1,126
 226 295 226 295 230.5 297 c 128,-1,127
 235 299 235 299 238.5 299.5 c 128,-1,128
 242 300 242 300 242 301 c 0,129,130
 244 306 244 306 249 314 c 0,131,132
 252 318 252 318 254 323 c 0,133,134
 252 347 252 347 258.5 355 c 128,-1,135
 265 363 265 363 265 365 c 0,136,137
 266 376 266 376 270 385 c 0,138,139
 272 389 272 389 272 394 c 2,140,-1
 311 430 l 2,141,142
 319 436 319 436 330 436 c 128,-1,143
 341 436 341 436 341 438 c 0,144,145
 343 443 343 443 345 445.5 c 128,-1,146
 347 448 347 448 349 450 c 0,147,148
 351 453 351 453 352 454 c 0,149,150
 353 464 353 464 356 471 c 0,151,152
 358 475 358 475 359 478 c 0,153,154
 359 479 359 479 363 482 c 0,155,156
 366 485 366 485 371.5 491 c 128,-1,157
 377 497 377 497 388 508 c 0,158,159
 401 522 401 522 418 532.5 c 128,-1,160
 435 543 435 543 450 551 c 0,161,162
 468 560 468 560 486 566 c 1,163,164
 488 580 488 580 493 589 c 0,165,166
 496 593 496 593 498 597 c 0,167,168
 503 603 503 603 509 608 c 0,169,170
 514 613 514 613 519.5 618.5 c 128,-1,171
 525 624 525 624 530 629 c 0,172,173
 535 633 535 633 542.5 635.5 c 128,-1,174
 550 638 550 638 557 640 c 0,175,176
 565 642 565 642 572 643 c 2,177,-1
 593 646 l 2,178,179
 597 648 597 648 603 651 c 0,180,181
 608 654 608 654 615 658 c 128,-1,182
 622 662 622 662 633 667 c 0,183,184
 642 671 642 671 651.5 672 c 128,-1,185
 661 673 661 673 671 672.5 c 128,-1,186
 681 672 681 672 688 670 c 128,-1,187
 695 668 695 668 699 667 c 0,188,189
 702 669 702 669 705 670 c 128,-1,190
 708 671 708 671 710 669 c 0,191,192
 744 663 744 663 760 644.5 c 128,-1,193
 776 626 776 626 784 610 c 0,194,195
 786 607 786 607 786 604.5 c 128,-1,196
 786 602 786 602 788 597 c 2,197,-1
 788 593 l 2,198,199
 788 587 788 587 784 583 c 0,200,201
 786 580 786 580 790 570 c 1,202,-1
 790 568 l 1,203,-1
 792 542 l 2,40,41
597 522 m 1,204,205
 577 533 577 533 555.5 536 c 128,-1,206
 534 539 534 539 515 536 c 1,207,208
 527 522 527 522 537 509 c 128,-1,209
 547 496 547 496 555 483 c 1,210,211
 565 483 565 483 576 478 c 1,212,213
 581 489 581 489 586 500 c 128,-1,214
 591 511 591 511 597 522 c 1,204,205
617 510 m 1,215,216
 611 498 611 498 606 488 c 128,-1,217
 601 478 601 478 595 466 c 1,218,219
 600 461 600 461 603.5 457 c 128,-1,220
 607 453 607 453 609 449 c 1,221,222
 638 449 638 449 671 443 c 1,223,224
 655 483 655 483 617 510 c 1,215,216
559 397 m 1,225,226
 553 386 553 386 546.5 375.5 c 128,-1,227
 540 365 540 365 534 354 c 1,228,229
 545 348 545 348 558 343.5 c 128,-1,230
 571 339 571 339 585 339 c 1,231,232
 583 352 583 352 581.5 365.5 c 128,-1,233
 580 379 580 379 576 392 c 1,234,235
 571 394 571 394 567.5 394 c 128,-1,236
 564 394 564 394 559 397 c 1,225,226
521 363 m 1,237,238
 527 375 527 375 532.5 385.5 c 128,-1,239
 538 396 538 396 544 407 c 1,240,241
 539 410 539 410 536 414 c 128,-1,242
 533 418 533 418 530 420 c 0,243,244
 516 418 516 418 504 414 c 128,-1,245
 492 410 492 410 480 405 c 1,246,247
 489 391 489 391 499.5 381.5 c 128,-1,248
 510 372 510 372 521 363 c 1,237,238
496 530 m 1,249,250
 467 518 467 518 460 490 c 1,251,252
 476 485 476 485 492.5 480.5 c 128,-1,253
 509 476 509 476 524 470 c 0,254,255
 526 473 526 473 529.5 475.5 c 128,-1,256
 533 478 533 478 536 479 c 1,257,258
 528 492 528 492 518.5 505.5 c 128,-1,259
 509 519 509 519 496 530 c 1,249,250
456 476 m 1,260,261
 456 447 456 447 474 420 c 1,262,263
 485 425 485 425 496 430 c 0,264,265
 508 436 508 436 521 438 c 1,266,267
 519 443 519 443 519 446.5 c 128,-1,268
 519 450 519 450 519 454 c 0,269,270
 505 460 505 460 489.5 465.5 c 128,-1,271
 474 471 474 471 456 476 c 1,260,261
409 500 m 1,272,273
 394 488 394 488 387.5 477 c 128,-1,274
 381 466 381 466 378.5 456.5 c 128,-1,275
 376 447 376 447 376 441.5 c 128,-1,276
 376 436 376 436 375 436 c 1,277,278
 388 433 388 433 395.5 428 c 128,-1,279
 403 423 403 423 401 426 c 0,280,281
 396 447 396 447 396.5 461.5 c 128,-1,282
 397 476 397 476 400 484 c 0,283,284
 403 495 403 495 409 500 c 1,272,273
218 224 m 1,285,-1
 230 224 l 1,286,-1
 232 228 l 2,287,288
 233 230 233 230 234 231 c 128,-1,289
 235 232 235 232 236 234 c 0,290,291
 236 238 236 238 232 238 c 0,292,293
 230 238 230 238 223 234 c 1,294,-1
 218 224 l 1,285,-1
297 87 m 0,295,296
 305 95 305 95 297 111 c 128,-1,297
 289 127 289 127 272 144 c 0,298,299
 255 160 255 160 239 168 c 128,-1,300
 223 176 223 176 218 168 c 1,301,302
 210 163 210 163 218 146.5 c 128,-1,303
 226 130 226 130 242 113 c 0,304,305
 259 96 259 96 275 88.5 c 128,-1,306
 291 81 291 81 297 87 c 0,295,296
321 161 m 0,307,308
 324 162 324 162 327 164.5 c 128,-1,309
 330 167 330 167 335 170 c 1,310,311
 327 179 327 179 315 191 c 128,-1,312
 303 203 303 203 295 208 c 0,313,314
 287 216 287 216 275 222 c 128,-1,315
 263 228 263 228 257 230 c 1,316,-1
 250 218 l 1,317,318
 263 212 263 212 283.5 197.5 c 128,-1,319
 304 183 304 183 321 161 c 0,307,308
365 102 m 2,320,321
 369 106 369 106 369 111 c 0,322,323
 367 116 367 116 362.5 128 c 128,-1,324
 358 140 358 140 355 146 c 1,325,326
 351 143 351 143 347 139 c 128,-1,327
 343 135 343 135 341 132 c 0,328,329
 342 129 342 129 343 127 c 0,330,331
 344 124 344 124 347 121 c 0,332,333
 349 116 349 116 350 110 c 128,-1,334
 351 104 351 104 351 98 c 1,335,-1
 354 98 l 1,336,-1
 365 102 l 2,320,321
390 272 m 1,337,338
 379 288 379 288 361 300 c 0,339,340
 346 311 346 311 324.5 319 c 128,-1,341
 303 327 303 327 274 325 c 0,342,343
 273 325 273 325 271 320.5 c 128,-1,344
 269 316 269 316 266 312 c 0,345,346
 262 306 262 306 259 299 c 1,347,348
 266 299 266 299 274 297 c 128,-1,349
 282 295 282 295 292 292 c 128,-1,350
 302 289 302 289 314 284 c 0,351,352
 328 276 328 276 337.5 270 c 128,-1,353
 347 264 347 264 352 259 c 0,354,355
 358 253 358 253 361 248 c 1,356,-1
 390 272 l 1,337,338
454 140 m 1,357,358
 454 160 454 160 450 179 c 0,359,360
 446 196 446 196 437.5 214 c 128,-1,361
 429 232 429 232 411 248 c 0,362,363
 409 248 409 248 404 244 c 128,-1,364
 399 240 399 240 395 235 c 2,365,-1
 381 224 l 1,366,367
 392 209 392 209 401 192 c 0,368,369
 409 178 409 178 416.5 160 c 128,-1,370
 424 142 424 142 426 121 c 1,371,-1
 454 140 l 1,357,358
526 155 m 0,372,373
 537 174 537 174 539.5 186.5 c 128,-1,374
 542 199 542 199 534 222 c 0,375,376
 517 266 517 266 497 294.5 c 128,-1,377
 477 323 477 323 464 333 c 0,378,379
 459 338 459 338 445.5 348 c 128,-1,380
 432 358 432 358 415.5 369.5 c 128,-1,381
 399 381 399 381 383 390.5 c 128,-1,382
 367 400 367 400 355 405 c 256,383,384
 343 410 343 410 333.5 410 c 128,-1,385
 324 410 324 410 316 408 c 0,386,387
 307 406 307 406 301 403 c 0,388,389
 298 402 298 402 295 400 c 0,390,391
 293 398 293 398 289.5 396.5 c 128,-1,392
 286 395 286 395 284 392 c 0,393,394
 279 385 279 385 275 378 c 0,395,396
 273 374 273 374 272 371 c 2,397,-1
 277 376 l 2,398,399
 279 378 279 378 282.5 381 c 128,-1,400
 286 384 286 384 291 388 c 0,401,402
 318 401 318 401 345 392 c 128,-1,403
 372 383 372 383 397 367 c 0,404,405
 438 342 438 342 458.5 317.5 c 128,-1,406
 479 293 479 293 488 282 c 0,407,408
 492 276 492 276 498.5 266 c 128,-1,409
 505 256 505 256 510.5 243 c 128,-1,410
 516 230 516 230 520 217.5 c 128,-1,411
 524 205 524 205 526 193 c 256,412,413
 528 181 528 181 525 172 c 128,-1,414
 522 163 522 163 518 156 c 0,415,416
 513 148 513 148 506 144 c 1,417,418
 509 144 509 144 513 145 c 0,419,420
 519 146 519 146 526 155 c 0,372,373
568 246 m 0,421,422
 568 244 568 244 574.5 246 c 128,-1,423
 581 248 581 248 590 252 c 128,-1,424
 599 256 599 256 609 262 c 128,-1,425
 619 268 619 268 627 274 c 1,426,427
 626 275 626 275 619.5 273 c 128,-1,428
 613 271 613 271 603.5 269.5 c 128,-1,429
 594 268 594 268 582.5 269 c 128,-1,430
 571 270 571 270 561 276 c 1,431,432
 560 274 560 274 562 271 c 0,433,434
 563 267 563 267 564.5 261 c 128,-1,435
 566 255 566 255 568 246 c 0,421,422
601 337 m 1,436,437
 615 339 615 339 628 342.5 c 128,-1,438
 641 346 641 346 651 354 c 1,439,440
 631 379 631 379 606 399 c 0,441,442
 603 397 603 397 599.5 395.5 c 128,-1,443
 596 394 596 394 591 394 c 1,444,445
 596 380 596 380 597.5 365.5 c 128,-1,446
 599 351 599 351 601 337 c 1,436,437
663 365 m 1,447,448
 671 376 671 376 675 390.5 c 128,-1,449
 679 405 679 405 676 422 c 1,450,451
 660 427 660 427 646 428.5 c 128,-1,452
 632 430 632 430 615 430 c 1,453,454
 618 421 618 421 615 413 c 1,455,456
 641 390 641 390 663 365 c 1,447,448
754 464 m 1,457,458
 743 507 743 507 720 541 c 0,459,460
 700 570 700 570 666 596 c 128,-1,461
 632 622 632 622 577 627 c 0,462,463
 564 625 564 625 555.5 621.5 c 128,-1,464
 547 618 547 618 541 613 c 0,465,466
 534 608 534 608 530 603 c 1,467,468
 567 610 567 610 604 599 c 0,469,470
 620 594 620 594 637 584.5 c 128,-1,471
 654 575 654 575 671 559.5 c 128,-1,472
 688 544 688 544 705 521 c 128,-1,473
 722 498 722 498 735 466 c 1,474,-1
 742 438 l 1,475,-1
 754 464 l 1,457,458
760 559 m 0,476,477
 762 559 762 559 766 571 c 2,478,-1
 770 585 l 1,479,480
 763 600 763 600 752 611 c 0,481,482
 742 622 742 622 728 632.5 c 128,-1,483
 714 643 714 643 693 649 c 1,484,485
 694 651 694 651 691 649 c 128,-1,486
 688 647 688 647 684 645 c 0,487,488
 679 641 679 641 673 637 c 1,489,490
 688 630 688 630 703 619 c 0,491,492
 717 609 717 609 731.5 595 c 128,-1,493
 746 581 746 581 760 559 c 0,476,477
EndSplineSet
Validated: 33
EndChar

StartChar: C
Encoding: 67 67 33
Width: 990
GlyphClass: 2
Flags: W
LayerCount: 2
Fore
SplineSet
802 14 m 0,0,1
 672 -99 672 -99 494 -100 c 0,2,3
 298 -100 298 -100 160 38 c 256,4,5
 22 176 22 176 22 372 c 0,6,7
 22 569 22 569 161 705 c 0,8,9
 299 844 299 844 494 844 c 0,10,11
 690 844 690 844 827 705 c 0,12,13
 966 568 966 568 966 372 c 0,14,15
 966 158 966 158 802 14 c 0,0,1
233 710 m 0,16,17
 80 588 80 588 70 403 c 1,18,19
 83 397 83 397 110 385 c 1,20,21
 146 396 146 396 254 427 c 1,22,23
 260 407 260 407 276 350 c 1,24,25
 252 344 252 344 176 326 c 1,26,27
 180 321 180 321 193 306 c 1,28,29
 216 312 216 312 284 329 c 1,30,31
 288 314 288 314 300 269 c 1,32,33
 289 266 289 266 255 256 c 1,34,35
 261 244 261 244 266 244 c 0,36,37
 335 260 335 260 472 291 c 1,38,39
 476 277 476 277 488 237 c 1,40,41
 420 210 420 210 212 127 c 1,42,43
 207 114 207 114 192 76 c 1,44,45
 316 -50 316 -50 495 -50 c 0,46,47
 671 -50 671 -50 795 74 c 0,48,49
 920 198 920 198 920 375 c 0,50,51
 920 550 920 550 795 675 c 0,52,53
 671 800 671 800 495 800 c 0,54,55
 346 800 346 800 233 710 c 0,16,17
656 624 m 0,56,57
 658 624 658 624 662 622 c 0,58,59
 665 622 665 622 666 622 c 0,60,61
 672 614 672 614 666 607 c 0,62,63
 582 560 582 560 582 473 c 0,64,65
 582 438 582 438 599 404 c 0,66,67
 619 364 619 364 654 342 c 0,68,69
 691 319 691 319 727 318 c 0,70,71
 741 318 741 318 747 319 c 1,72,73
 753 314 753 314 753 308 c 256,74,75
 753 302 753 302 751 298 c 0,76,77
 729 281 729 281 682 281 c 0,78,79
 669 281 669 281 643 283 c 0,80,81
 624 286 624 286 606 300 c 0,82,83
 586 314 586 314 576 319 c 0,84,85
 564 326 564 326 552 328 c 0,86,87
 539 330 539 330 538 331 c 0,88,89
 533 348 533 348 522 380 c 1,90,91
 535 395 535 395 535 409 c 0,92,93
 535 421 535 421 526 432 c 0,94,95
 518 444 518 444 505 445 c 1,96,97
 502 458 502 458 493 484 c 1,98,99
 518 512 518 512 540 558 c 0,100,101
 544 566 544 566 553 574 c 0,102,103
 563 584 563 584 567 589 c 0,104,105
 569 590 569 590 581 598 c 0,106,107
 592 605 592 605 596 607 c 0,108,109
 600 611 600 611 611 615 c 128,-1,110
 622 619 622 619 632.5 621.5 c 128,-1,111
 643 624 643 624 656 624 c 0,56,57
828 506 m 1,112,113
 758 464 758 464 632 396 c 1,114,115
 601 414 601 414 600 466 c 0,116,117
 600 469 600 469 600 475 c 0,118,119
 601 482 601 482 601 484 c 0,120,121
 652 488 652 488 828 506 c 1,112,113
476 476 m 1,122,123
 478 468 478 468 485 440 c 1,124,125
 468 436 468 436 467 415 c 1,126,127
 408 400 408 400 292 370 c 1,128,129
 288 383 288 383 277 420 c 1,130,131
 326 435 326 435 476 476 c 1,122,123
481 380 m 1,132,133
 486 372 486 372 504 372 c 1,134,135
 508 359 508 359 515 333 c 1,136,137
 466 318 466 318 318 274 c 1,138,139
 314 288 314 288 304 329 c 1,140,141
 348 342 348 342 481 380 c 1,132,133
137 356 m 1,142,143
 121 352 121 352 72 339 c 1,144,145
 72 330 72 330 74 313 c 1,146,147
 103 320 103 320 162 334 c 0,148,149
 162 337 162 337 162 338 c 0,150,151
 162 342 162 342 160 344 c 0,152,153
 159 345 159 345 159 346 c 1,154,155
 152 345 152 345 149 346 c 2,156,-1
 145 347 l 2,157,158
 142 349 142 349 137 356 c 1,142,143
93 259 m 2,159,160
 92 259 92 259 90 258 c 0,161,162
 87 258 87 258 85 258 c 1,163,164
 91 239 91 239 104 205 c 1,165,166
 105 206 105 206 108 208 c 0,167,168
 122 223 122 223 122 235 c 0,169,170
 122 246 122 246 113 253 c 0,171,172
 106 260 106 260 94 259 c 2,173,-1
 93 259 l 2,159,160
211 174 m 1,174,175
 191 169 191 169 132 154 c 1,176,177
 139 139 139 139 147 131 c 1,178,179
 190 142 190 142 196 144 c 1,180,181
 209 167 209 167 211 174 c 1,174,175
EndSplineSet
Validated: 1
EndChar

StartChar: E
Encoding: 69 69 34
Width: 986
GlyphClass: 2
Flags: W
LayerCount: 2
Fore
SplineSet
494 845 m 0,0,1
 592 845 592 845 678.5 808 c 128,-1,2
 765 771 765 771 829.5 706.5 c 128,-1,3
 894 642 894 642 931 555.5 c 128,-1,4
 968 469 968 469 968 371 c 0,5,6
 968 272 968 272 931 186.5 c 128,-1,7
 894 101 894 101 829.5 36.5 c 128,-1,8
 765 -28 765 -28 678.5 -65.5 c 128,-1,9
 592 -103 592 -103 494 -103 c 0,10,11
 395 -103 395 -103 309.5 -65.5 c 128,-1,12
 224 -28 224 -28 159.5 36.5 c 128,-1,13
 95 101 95 101 58 186.5 c 128,-1,14
 21 272 21 272 21 371 c 0,15,16
 21 469 21 469 58 555.5 c 128,-1,17
 95 642 95 642 159.5 706.5 c 128,-1,18
 224 771 224 771 309.5 808 c 128,-1,19
 395 845 395 845 494 845 c 0,0,1
494 -50 m 256,20,21
 581 -50 581 -50 657 -16.5 c 128,-1,22
 733 17 733 17 790.5 74 c 128,-1,23
 848 131 848 131 880.5 207.5 c 128,-1,24
 913 284 913 284 913 371 c 256,25,26
 913 458 913 458 880.5 534.5 c 128,-1,27
 848 611 848 611 790.5 668.5 c 128,-1,28
 733 726 733 726 657 759 c 128,-1,29
 581 792 581 792 494 792 c 256,30,31
 407 792 407 792 330.5 759 c 128,-1,32
 254 726 254 726 197 668.5 c 128,-1,33
 140 611 140 611 106.5 534.5 c 128,-1,34
 73 458 73 458 73 371 c 256,35,36
 73 284 73 284 106.5 207.5 c 128,-1,37
 140 131 140 131 197 74 c 128,-1,38
 254 17 254 17 330.5 -16.5 c 128,-1,39
 407 -50 407 -50 494 -50 c 256,20,21
606 235 m 2,40,41
 606 234 606 234 606.5 233.5 c 128,-1,42
 607 233 607 233 607 232 c 1,43,44
 657 249 657 249 689 280 c 1,45,-1
 689 105 l 1,46,47
 673 122 673 122 653 133.5 c 128,-1,48
 633 145 633 145 607 153 c 1,49,-1
 606 151 l 1,50,51
 625 143 625 143 640.5 135 c 128,-1,52
 656 127 656 127 671 117 c 1,53,-1
 671 87 l 1,54,55
 662 98 662 98 652 107.5 c 128,-1,56
 642 117 642 117 631 125 c 1,57,58
 626 119 626 119 623 113 c 128,-1,59
 620 107 620 107 615 102 c 1,60,-1
 625 75 l 1,61,-1
 637 47 l 1,62,-1
 607 57 l 1,63,-1
 579 67 l 2,64,65
 575 65 575 65 571 62 c 0,66,67
 566 60 566 60 562 57 c 1,68,69
 570 45 570 45 579 35 c 128,-1,70
 588 25 588 25 599 17 c 1,71,-1
 570 17 l 1,72,73
 549 46 549 46 536 81 c 1,74,-1
 535 81 l 2,75,76
 534 81 534 81 534 79 c 0,77,78
 551 29 551 29 579 -2 c 1,79,-1
 407 -2 l 1,80,81
 423 14 423 14 434.5 34.5 c 128,-1,82
 446 55 446 55 454 79 c 0,83,84
 452 81 452 81 450 81 c 0,85,86
 440 45 440 45 416 17 c 1,87,-1
 390 17 l 1,88,89
 401 26 401 26 410 36.5 c 128,-1,90
 419 47 419 47 428 59 c 1,91,92
 422 62 422 62 417.5 64 c 128,-1,93
 413 66 413 66 409 69 c 1,94,-1
 381 59 l 1,95,-1
 352 49 l 1,96,-1
 363 77 l 1,97,-1
 373 104 l 1,98,99
 368 110 368 110 365 115.5 c 128,-1,100
 362 121 362 121 357 127 c 1,101,102
 346 118 346 118 336 109 c 128,-1,103
 326 100 326 100 317 89 c 1,104,-1
 317 117 l 1,105,106
 331 127 331 127 347 135.5 c 128,-1,107
 363 144 363 144 381 151 c 1,108,-1
 381 155 l 1,109,110
 328 136 328 136 297 107 c 1,111,-1
 297 280 l 1,112,113
 328 251 328 251 381 232 c 1,114,-1
 381 236 l 1,115,116
 363 244 363 244 347 252.5 c 128,-1,117
 331 261 331 261 317 271 c 1,118,-1
 317 299 l 1,119,120
 326 288 326 288 336.5 279 c 128,-1,121
 347 270 347 270 357 261 c 1,122,123
 360 267 360 267 363 272.5 c 128,-1,124
 366 278 366 278 371 284 c 1,125,-1
 361 312 l 1,126,-1
 350 341 l 1,127,-1
 379 329 l 1,128,-1
 407 320 l 2,129,130
 412 322 412 322 416 324.5 c 128,-1,131
 420 327 420 327 426 329 c 1,132,133
 417 341 417 341 407.5 351 c 128,-1,134
 398 361 398 361 388 369 c 1,135,-1
 416 369 l 1,136,137
 427 356 427 356 435 339.5 c 128,-1,138
 443 323 443 323 450 307 c 1,139,-1
 454 307 l 1,140,141
 446 332 446 332 433.5 353 c 128,-1,142
 421 374 421 374 407 390 c 1,143,-1
 581 390 l 1,144,145
 551 360 551 360 534 307 c 1,146,-1
 538 307 l 1,147,148
 543 324 543 324 552 340 c 128,-1,149
 561 356 561 356 572 369 c 1,150,-1
 601 369 l 1,151,152
 589 360 589 360 580 350 c 0,153,154
 570 341 570 341 562 329 c 1,155,156
 568 326 568 326 572.5 323.5 c 128,-1,157
 577 321 577 321 583 318 c 2,158,-1
 579 320 l 1,159,-1
 609 329 l 1,160,-1
 639 341 l 1,161,-1
 627 312 l 1,162,-1
 617 284 l 1,163,164
 620 278 620 278 624 272.5 c 128,-1,165
 628 267 628 267 631 261 c 1,166,167
 642 270 642 270 652 279.5 c 128,-1,168
 662 289 662 289 671 299 c 1,169,-1
 671 271 l 1,170,171
 656 261 656 261 640.5 252.5 c 128,-1,172
 625 244 625 244 606 236 c 1,173,-1
 606 235 l 2,40,41
562 276 m 1,174,175
 532 300 532 300 494 300.5 c 128,-1,176
 456 301 456 301 426 276 c 1,177,-1
 476 229 l 1,178,179
 495 239 495 239 513 229 c 1,180,-1
 562 276 l 1,174,175
409 259 m 1,181,182
 387 230 387 230 387 191.5 c 128,-1,183
 387 153 387 153 409 125 c 1,184,-1
 458 172 l 1,185,186
 445 191 445 191 458 210 c 1,187,-1
 409 259 l 1,181,182
426 105 m 1,188,189
 456 83 456 83 494 83 c 128,-1,190
 532 83 532 83 562 105 c 1,191,-1
 513 155 l 1,192,193
 505 149 505 149 494 149 c 128,-1,194
 483 149 483 149 476 155 c 1,195,-1
 426 105 l 1,188,189
579 125 m 1,196,197
 603 153 603 153 603.5 191 c 128,-1,198
 604 229 604 229 579 259 c 1,199,-1
 532 210 l 1,200,201
 542 190 542 190 532 172 c 1,202,-1
 579 125 l 1,196,197
337 665 m 1,203,-1
 319 665 l 1,204,-1
 319 707 l 1,205,-1
 494 707 l 1,206,-1
 669 707 l 1,207,-1
 669 665 l 1,208,-1
 651 665 l 1,209,-1
 651 516 l 1,210,-1
 494 401 l 1,211,-1
 337 516 l 1,212,-1
 337 665 l 1,203,-1
448 460 m 1,213,-1
 494 428 l 1,214,-1
 540 460 l 1,215,-1
 540 667 l 1,216,-1
 448 667 l 1,217,-1
 448 460 l 1,213,-1
EndSplineSet
Validated: 37
EndChar

StartChar: F
Encoding: 70 70 35
Width: 1044
GlyphClass: 2
Flags: W
LayerCount: 2
Fore
SplineSet
518 782 m 0,0,1
 431 782 431 782 355.5 750.5 c 128,-1,2
 280 719 280 719 224.5 663 c 128,-1,3
 169 607 169 607 137 532 c 128,-1,4
 105 457 105 457 105 371 c 0,5,6
 105 313 105 313 120 259.5 c 128,-1,7
 135 206 135 206 161.5 159 c 128,-1,8
 188 112 188 112 225.5 73 c 128,-1,9
 263 34 263 34 308.5 6.5 c 128,-1,10
 354 -21 354 -21 407 -37 c 128,-1,11
 460 -53 460 -53 518 -53 c 0,12,13
 604 -53 604 -53 681 -18.5 c 128,-1,14
 758 16 758 16 815.5 73.5 c 128,-1,15
 873 131 873 131 907 208 c 128,-1,16
 941 285 941 285 941 371 c 256,17,18
 941 457 941 457 907 532 c 128,-1,19
 873 607 873 607 815.5 663 c 128,-1,20
 758 719 758 719 681 750.5 c 128,-1,21
 604 782 604 782 518 782 c 0,0,1
518 844 m 0,22,23
 618 844 618 844 706 806 c 128,-1,24
 794 768 794 768 860 703.5 c 128,-1,25
 926 639 926 639 964.5 553 c 128,-1,26
 1003 467 1003 467 1003 371 c 0,27,28
 1003 270 1003 270 964.5 184 c 128,-1,29
 926 98 926 98 860 34.5 c 128,-1,30
 794 -29 794 -29 705.5 -65.5 c 128,-1,31
 617 -102 617 -102 518 -102 c 0,32,33
 422 -102 422 -102 336 -65.5 c 128,-1,34
 250 -29 250 -29 185 34.5 c 128,-1,35
 120 98 120 98 82 184.5 c 128,-1,36
 44 271 44 271 44 371 c 0,37,38
 44 467 44 467 82 553 c 128,-1,39
 120 639 120 639 185 703.5 c 128,-1,40
 250 768 250 768 336 806 c 128,-1,41
 422 844 422 844 518 844 c 0,22,23
456 371 m 0,42,43
 456 380 456 380 462.5 390.5 c 128,-1,44
 469 401 469 401 478 410.5 c 128,-1,45
 487 420 487 420 498 426.5 c 128,-1,46
 509 433 509 433 518 433 c 0,47,48
 531 433 531 433 542.5 426.5 c 128,-1,49
 554 420 554 420 561.5 410.5 c 128,-1,50
 569 401 569 401 574 390.5 c 128,-1,51
 579 380 579 380 579 371 c 0,52,53
 579 345 579 345 561.5 327.5 c 128,-1,54
 544 310 544 310 518 310 c 0,55,56
 509 310 509 310 498 314.5 c 128,-1,57
 487 319 487 319 478 327 c 128,-1,58
 469 335 469 335 462.5 346 c 128,-1,59
 456 357 456 357 456 371 c 0,42,43
844 468 m 0,60,61
 863 450 863 450 878 423.5 c 128,-1,62
 893 397 893 397 893 371 c 0,63,64
 893 336 893 336 877.5 307.5 c 128,-1,65
 862 279 862 279 844 263 c 0,66,67
 835 253 835 253 824.5 250 c 128,-1,68
 814 247 814 247 797 238 c 1,69,70
 787 238 787 238 778 232.5 c 128,-1,71
 769 227 769 227 759 227 c 0,72,73
 750 227 750 227 741 232.5 c 128,-1,74
 732 238 732 238 723 238 c 1,75,-1
 723 227 l 1,76,-1
 723 213 l 1,77,-1
 723 201 l 1,78,-1
 735 177 l 1,79,-1
 747 165 l 1,80,-1
 759 142 l 1,81,-1
 784 104 l 1,82,-1
 747 130 l 1,83,-1
 723 142 l 1,84,-1
 711 153 l 1,85,-1
 700 165 l 1,86,87
 690 156 690 156 687.5 154.5 c 128,-1,88
 685 153 685 153 676 153 c 2,89,-1
 662 153 l 1,90,-1
 649 153 l 2,91,92
 659 153 659 153 660.5 146 c 128,-1,93
 662 139 662 139 662 130 c 0,94,95
 662 110 662 110 653 86 c 128,-1,96
 644 62 644 62 627 44 c 0,97,98
 608 25 608 25 581 10 c 128,-1,99
 554 -5 554 -5 518 -5 c 0,100,101
 509 -5 509 -5 494 1 c 128,-1,102
 479 7 479 7 468 7 c 0,103,104
 465 7 465 7 462 9 c 0,105,106
 460 11 460 11 458 13 c 128,-1,107
 456 15 456 15 456 20 c 1,108,109
 447 20 447 20 438.5 28 c 128,-1,110
 430 36 430 36 420 44 c 0,111,112
 411 54 411 54 408 57 c 128,-1,113
 405 60 405 60 397 68 c 1,114,-1
 397 93 l 1,115,116
 389 93 389 93 387 98 c 0,117,118
 385 101 385 101 385 104 c 2,119,-1
 385 130 l 1,120,-1
 385 153 l 1,121,-1
 385 165 l 1,122,-1
 371 165 l 1,123,-1
 359 165 l 1,124,-1
 347 165 l 1,125,-1
 324 153 l 1,126,-1
 324 142 l 1,127,-1
 287 130 l 1,128,-1
 263 104 l 1,129,-1
 275 142 l 1,130,-1
 300 165 l 1,131,-1
 300 177 l 1,132,-1
 312 189 l 1,133,-1
 312 213 l 1,134,-1
 312 238 l 1,135,136
 303 238 303 238 300 232.5 c 128,-1,137
 297 227 297 227 287 227 c 0,138,139
 278 227 278 227 275 232.5 c 128,-1,140
 272 238 272 238 263 238 c 2,141,-1
 238 238 l 2,142,143
 229 238 229 238 228 244 c 0,144,145
 226 247 226 247 227 250 c 1,146,147
 218 250 218 250 210 256 c 0,148,149
 206 259 206 259 203 263 c 0,150,151
 200 262 200 262 197 264 c 0,152,153
 191 266 191 266 191 274 c 1,154,-1
 178 285 l 1,155,-1
 165 298 l 2,156,157
 165 303 165 303 163 307.5 c 128,-1,158
 161 312 161 312 159 315 c 0,159,160
 156 319 156 319 153 324 c 2,161,-1
 153 371 l 1,162,-1
 153 406 l 2,163,164
 153 415 153 415 159 418.5 c 128,-1,165
 165 422 165 422 165 433 c 0,166,167
 165 442 165 442 171.5 444.5 c 128,-1,168
 178 447 178 447 178 456 c 1,169,170
 189 456 189 456 190 457.5 c 128,-1,171
 191 459 191 459 191 468 c 1,172,-1
 203 468 l 1,173,174
 203 477 203 477 210.5 479.5 c 128,-1,175
 218 482 218 482 227 492 c 1,176,-1
 238 492 l 1,177,178
 247 501 247 501 258 502.5 c 128,-1,179
 269 504 269 504 287 504 c 2,180,-1
 300 504 l 1,181,-1
 324 504 l 1,182,-1
 312 504 l 1,183,-1
 312 516 l 1,184,-1
 312 529 l 1,185,-1
 312 541 l 1,186,-1
 300 565 l 1,187,-1
 275 601 l 1,188,-1
 263 627 l 1,189,-1
 287 612 l 1,190,-1
 324 588 l 1,191,-1
 347 577 l 1,192,-1
 371 577 l 1,193,-1
 385 577 l 1,194,-1
 385 601 l 2,195,196
 385 610 385 610 386.5 620 c 128,-1,197
 388 630 388 630 397 639 c 1,198,-1
 397 662 l 1,199,200
 405 671 405 671 408 678.5 c 128,-1,201
 411 686 411 686 420 686 c 1,202,-1
 420 698 l 1,203,204
 430 706 430 706 438.5 709 c 128,-1,205
 447 712 447 712 456 723 c 1,206,-1
 468 723 l 1,207,208
 479 733 479 733 494 734 c 128,-1,209
 509 735 509 735 518 735 c 0,210,211
 554 735 554 735 581 724.5 c 128,-1,212
 608 714 608 714 627 686 c 0,213,214
 644 668 644 668 653 648.5 c 128,-1,215
 662 629 662 629 662 601 c 2,216,-1
 662 588 l 1,217,-1
 649 577 l 1,218,-1
 649 565 l 1,219,-1
 662 577 l 1,220,-1
 676 577 l 1,221,-1
 688 577 l 1,222,-1
 711 588 l 1,223,-1
 723 588 l 1,224,-1
 747 612 l 1,225,-1
 784 627 l 1,226,-1
 759 601 l 1,227,-1
 747 565 l 1,228,-1
 735 565 l 1,229,-1
 735 541 l 1,230,-1
 735 516 l 1,231,-1
 735 504 l 1,232,-1
 759 504 l 2,233,234
 779 504 779 504 802.5 495.5 c 128,-1,235
 826 487 826 487 844 468 c 0,60,61
723 177 m 1,236,-1
 639 310 l 1,237,-1
 676 298 l 1,238,-1
 711 274 l 1,239,-1
 649 324 l 1,240,-1
 603 371 l 1,241,-1
 649 406 l 1,242,-1
 711 456 l 1,243,-1
 639 433 l 1,244,-1
 723 565 l 1,245,-1
 723 577 l 1,246,-1
 735 577 l 1,247,-1
 723 577 l 1,248,-1
 711 565 l 1,249,-1
 579 479 l 1,250,-1
 614 553 l 1,251,-1
 518 444 l 1,252,-1
 433 553 l 1,253,-1
 456 479 l 1,254,-1
 336 565 l 1,255,-1
 312 577 l 1,256,-1
 324 553 l 1,257,-1
 371 479 l 1,258,-1
 408 433 l 1,259,-1
 336 456 l 1,260,-1
 444 371 l 1,261,-1
 336 274 l 1,262,-1
 371 298 l 1,263,-1
 408 310 l 1,264,-1
 324 177 l 1,265,-1
 312 165 l 1,266,-1
 336 165 l 1,267,-1
 456 250 l 1,268,-1
 433 177 l 1,269,-1
 518 285 l 1,270,-1
 614 177 l 1,271,-1
 579 250 l 1,272,-1
 711 165 l 1,273,-1
 723 165 l 1,274,-1
 735 165 l 1,275,-1
 723 165 l 1,276,-1
 723 177 l 1,236,-1
EndSplineSet
Validated: 5
EndChar

StartChar: G
Encoding: 71 71 36
Width: 990
GlyphClass: 2
Flags: W
LayerCount: 2
Fore
SplineSet
485 843 m 0,0,1
 487 843 487 843 490 843 c 0,2,3
 492 843 492 843 494 843 c 256,4,5
 496 843 496 843 500 843 c 0,6,7
 610 843 610 843 709 791 c 0,8,9
 825 733 825 733 896 619 c 0,10,11
 967 504 967 504 967 374 c 0,12,13
 967 356 967 356 966 346 c 0,14,15
 960 204 960 204 872 87 c 256,16,17
 784 -30 784 -30 651 -75 c 0,18,19
 578 -101 578 -101 497 -102 c 0,20,21
 399 -102 399 -102 309 -63 c 0,22,23
 218 -25 218 -25 152 45 c 0,24,25
 89 109 89 109 56 196 c 0,26,27
 23 282 23 282 22 373 c 0,28,29
 22 471 22 471 59 555 c 0,30,31
 110 682 110 682 229 761 c 0,32,33
 348 842 348 842 485 843 c 0,0,1
486 799 m 0,34,35
 357 798 357 798 248 719 c 0,36,37
 137 642 137 642 95 520 c 0,38,39
 70 453 70 453 69 376 c 0,40,41
 69 278 69 278 112 187 c 0,42,43
 155 97 155 97 232 39 c 0,44,45
 345 -53 345 -53 495 -53 c 0,46,47
 634 -53 634 -53 741 26 c 0,48,49
 825 85 825 85 872 179 c 0,50,51
 921 273 921 273 921 376 c 0,52,53
 921 437 921 437 905 490 c 0,54,55
 870 623 870 623 754 711 c 0,56,57
 639 799 639 799 501 799 c 0,58,59
 499 799 499 799 495 799 c 0,60,61
 493 799 493 799 486 799 c 0,34,35
234 523 m 1,62,63
 255 511 255 511 314 477 c 1,64,65
 315 454 315 454 315 383 c 1,66,67
 312 384 312 384 308 384 c 0,68,69
 295 384 295 384 281 360 c 1,70,71
 259 373 259 373 213 398 c 1,72,73
 212 425 212 425 209 510 c 1,74,75
 221 511 221 511 234 523 c 1,62,63
243 551 m 0,76,77
 243 554 243 554 243 561 c 1,78,79
 272 574 272 574 364 612 c 1,80,81
 381 602 381 602 431 575 c 1,82,83
 413 562 413 562 414 548 c 0,84,85
 414 539 414 539 423 530 c 1,86,87
 393 518 393 518 333 498 c 1,88,89
 310 512 310 512 243 551 c 0,76,77
392 623 m 1,90,91
 417 632 417 632 493 661 c 1,92,93
 507 661 507 661 547 661 c 1,94,95
 569 649 569 649 632 616 c 1,96,97
 612 608 612 608 556 585 c 1,98,99
 520 591 520 591 501 591 c 0,100,101
 478 591 478 591 460 586 c 1,102,103
 437 599 437 599 392 623 c 1,90,91
446 547 m 0,104,105
 444 548 444 548 444 552 c 0,106,107
 444 560 444 560 463 567 c 0,108,109
 482 573 482 573 505 572 c 0,110,111
 535 572 535 572 549 561 c 0,112,113
 554 557 554 557 553 549 c 0,114,115
 553 528 553 528 504 527 c 1,116,117
 450 532 450 532 446 547 c 0,104,105
573 566 m 1,118,119
 596 574 596 574 661 599 c 1,120,121
 683 587 683 587 752 554 c 1,122,123
 751 548 751 548 749 532 c 1,124,125
 722 519 722 519 639 485 c 1,126,127
 622 495 622 495 570 524 c 1,128,129
 582 533 582 533 582 545 c 0,130,131
 582 554 582 554 573 566 c 1,118,119
448 516 m 1,132,133
 472 505 472 505 498 505 c 0,134,135
 514 505 514 505 543 512 c 1,136,137
 566 500 566 500 609 475 c 1,138,139
 584 465 584 465 507 431 c 1,140,141
 486 438 486 438 468 437 c 0,142,143
 465 437 465 437 458 436 c 0,144,145
 452 436 452 436 449 436 c 0,146,147
 420 451 420 451 360 482 c 1,148,149
 381 491 381 491 448 516 c 1,132,133
454 411 m 1,150,151
 465 410 465 410 495 408 c 1,152,153
 490 400 490 400 474 380 c 1,154,155
 469 388 469 388 454 411 c 1,150,151
339 462 m 1,156,157
 362 448 362 448 432 408 c 1,158,159
 447 375 447 375 457 367 c 1,160,161
 458 329 458 329 460 253 c 1,162,163
 442 264 442 264 389 295 c 1,164,165
 369 361 369 361 340 376 c 1,166,167
 339 405 339 405 339 462 c 1,156,157
312 359 m 0,168,169
 314 360 314 360 320 360 c 0,170,171
 346 360 346 360 366 289 c 1,172,173
 365 268 365 268 353 268 c 0,174,175
 346 268 346 268 336 274 c 0,176,177
 302 301 302 301 302 331 c 0,178,179
 302 347 302 347 312 359 c 0,168,169
213 372 m 1,180,181
 231 362 231 362 281 333 c 0,182,183
 281 332 281 332 281 327 c 0,184,185
 281 285 281 285 323 254 c 1,186,187
 325 227 325 227 327 173 c 1,188,189
 306 187 306 187 245 228 c 1,190,191
 238 239 238 239 220 270 c 1,192,193
 219 296 219 296 213 372 c 1,180,181
347 242 m 1,194,195
 355 239 355 239 361 239 c 0,196,197
 381 239 381 239 391 266 c 1,198,199
 413 251 413 251 458 224 c 1,200,201
 461 195 461 195 464 106 c 1,202,203
 450 101 450 101 444 97 c 1,204,205
 414 117 414 117 353 158 c 1,206,207
 352 179 352 179 347 242 c 1,194,195
487 217 m 1,208,209
 510 227 510 227 580 258 c 1,210,211
 580 246 580 246 589 241 c 0,212,213
 597 233 597 233 601 231 c 0,214,215
 608 230 608 230 624 226 c 1,216,217
 625 198 625 198 627 141 c 1,218,219
 600 128 600 128 519 89 c 1,220,221
 506 102 506 102 491 104 c 1,222,223
 490 142 490 142 487 217 c 1,208,209
490 250 m 1,224,225
 489 278 489 278 485 362 c 1,226,227
 513 398 513 398 519 405 c 1,228,229
 554 420 554 420 627 450 c 1,230,231
 627 427 627 427 625 359 c 1,232,233
 583 338 583 338 573 281 c 1,234,235
 546 271 546 271 490 250 c 1,224,225
639 337 m 0,236,237
 655 345 655 345 661 344 c 0,238,239
 678 344 678 344 678 319 c 0,240,241
 678 318 678 318 678 314 c 0,242,243
 677 310 677 310 677 309 c 0,244,245
 657 257 657 257 623 257 c 0,246,247
 612 257 612 257 604 261 c 1,248,249
 601 274 601 274 601 280 c 0,250,251
 603 315 603 315 639 337 c 0,236,237
651 370 m 0,252,253
 650 393 650 393 649 461 c 1,254,255
 678 473 678 473 766 505 c 1,256,257
 771 502 771 502 785 493 c 1,258,259
 785 462 785 462 784 372 c 1,260,261
 763 365 763 365 700 341 c 1,262,263
 693 371 693 371 663 371 c 0,264,265
 661 371 661 371 656 371 c 0,266,267
 653 370 653 370 651 370 c 0,252,253
783 345 m 1,268,269
 783 318 783 318 783 239 c 1,270,271
 761 204 761 204 754 196 c 1,272,273
 721 182 721 182 652 154 c 1,274,275
 652 174 652 174 652 233 c 1,276,277
 667 244 667 244 676 251 c 0,278,279
 683 257 683 257 692 272 c 0,280,281
 701 289 701 289 704 312 c 1,282,283
 729 323 729 323 783 345 c 1,268,269
EndSplineSet
Validated: 33
EndChar

StartChar: H
Encoding: 72 72 37
Width: 990
GlyphClass: 2
Flags: W
LayerCount: 2
Fore
SplineSet
485 841 m 0,0,1
 487 841 487 841 490 841 c 0,2,3
 492 841 492 841 494 841 c 256,4,5
 496 841 496 841 500 841 c 0,6,7
 610 841 610 841 709 789 c 0,8,9
 825 732 825 732 896 617 c 128,-1,10
 967 502 967 502 967 372 c 0,11,12
 967 354 967 354 966 344 c 0,13,14
 960 202 960 202 872 85 c 256,15,16
 784 -32 784 -32 651 -77 c 0,17,18
 578 -103 578 -103 497 -104 c 0,19,20
 399 -104 399 -104 309 -65 c 0,21,22
 218 -27 218 -27 152 43 c 0,23,24
 89 107 89 107 56 194 c 0,25,26
 23 280 23 280 22 371 c 0,27,28
 22 469 22 469 59 553 c 0,29,30
 110 680 110 680 229 759 c 0,31,32
 348 840 348 840 485 841 c 0,0,1
486 797 m 0,33,34
 357 796 357 796 248 717 c 0,35,36
 137 640 137 640 95 518 c 0,37,38
 70 451 70 451 69 374 c 0,39,40
 69 276 69 276 112 185 c 0,41,42
 155 95 155 95 232 37 c 0,43,44
 345 -55 345 -55 495 -55 c 0,45,46
 634 -55 634 -55 741 24 c 0,47,48
 825 83 825 83 872 177 c 0,49,50
 921 271 921 271 921 374 c 0,51,52
 921 435 921 435 905 488 c 0,53,54
 870 621 870 621 754 709 c 0,55,56
 639 797 639 797 501 797 c 0,57,58
 499 797 499 797 495 797 c 0,59,60
 493 797 493 797 486 797 c 0,33,34
482 750 m 0,61,62
 490 750 490 750 493 749 c 0,63,64
 494 749 494 749 496 749 c 0,65,66
 499 750 499 750 507 750 c 0,67,68
 589 749 589 749 681 697 c 1,69,70
 681 632 681 632 681 502 c 1,71,72
 626 470 626 470 564 463 c 1,73,74
 564 493 564 493 564 554 c 0,75,76
 567 555 567 555 576 557 c 1,77,78
 576 580 576 580 576 643 c 1,79,80
 543 664 543 664 494 665 c 1,81,82
 446 661 446 661 413 643 c 1,83,84
 413 615 413 615 413 557 c 1,85,86
 417 557 417 557 425 554 c 1,87,88
 425 531 425 531 425 463 c 1,89,90
 363 470 363 470 307 502 c 1,91,92
 307 568 307 568 307 697 c 1,93,94
 400 749 400 749 482 750 c 0,61,62
206 557 m 1,95,96
 206 535 206 535 206 464 c 1,97,98
 224 453 224 453 246.5 444.5 c 128,-1,99
 269 436 269 436 283 432 c 0,100,101
 298 429 298 429 329 424 c 0,102,103
 360 417 360 417 369 415 c 1,104,105
 369 399 369 399 369 369 c 0,106,107
 369 357 369 357 369 323 c 1,108,109
 361 321 361 321 329 314 c 0,110,111
 298 309 298 309 283 306 c 0,112,113
 268 302 268 302 247 294 c 0,114,115
 224 285 224 285 206 274 c 1,116,117
 206 243 206 243 206 181 c 1,118,119
 152 194 152 194 106 249 c 1,120,121
 106 289 106 289 106 369 c 0,122,123
 106 399 106 399 106 489 c 1,124,125
 152 544 152 544 206 557 c 1,95,96
782 557 m 1,126,127
 836 544 836 544 882 489 c 1,128,129
 882 450 882 450 882 369 c 0,130,131
 882 339 882 339 882 249 c 1,132,133
 836 194 836 194 782 181 c 1,134,135
 782 212 782 212 782 274 c 1,136,137
 764 285 764 285 741 294 c 0,138,139
 719 303 719 303 705 306 c 0,140,141
 692 309 692 309 659 314 c 0,142,143
 628 321 628 321 620 323 c 1,144,145
 620 339 620 339 620 369 c 0,146,147
 620 381 620 381 620 415 c 1,148,149
 628 417 628 417 659 424 c 0,150,151
 692 429 692 429 705 432 c 0,152,153
 719 437 719 437 741 444 c 0,154,155
 764 453 764 453 782 464 c 1,156,157
 782 495 782 495 782 557 c 1,126,127
425 276 m 1,158,159
 425 253 425 253 425 184 c 0,160,161
 422 183 422 183 413 181 c 1,162,163
 413 158 413 158 413 95 c 1,164,165
 446 77 446 77 494 73 c 1,166,167
 543 77 543 77 576 95 c 1,168,169
 576 123 576 123 576 181 c 1,170,171
 572 182 572 182 564 184 c 1,172,173
 564 207 564 207 564 276 c 1,174,175
 628 268 628 268 681 235 c 1,176,177
 681 170 681 170 681 41 c 1,178,179
 590 -10 590 -10 507 -12 c 0,180,181
 503 -12 503 -12 496 -12 c 2,182,-1
 493 -12 l 2,183,184
 491 -12 491 -12 482 -12 c 0,185,186
 400 -10 400 -10 307 41 c 1,187,188
 307 106 307 106 307 235 c 1,189,190
 361 268 361 268 425 276 c 1,158,159
EndSplineSet
Validated: 1
EndChar

StartChar: I
Encoding: 73 73 38
Width: 990
GlyphClass: 2
Flags: W
LayerCount: 2
Fore
SplineSet
177 720 m 0,0,1
 312 843 312 843 495 843 c 0,2,3
 692 843 692 843 828 704 c 0,4,5
 967 565 967 565 967 370 c 0,6,7
 967 174 967 174 828 36 c 0,8,9
 691 -103 691 -103 495 -103 c 128,-1,10
 299 -103 299 -103 161 36 c 0,11,12
 22 174 22 174 22 370 c 0,13,14
 22 577 22 577 177 720 c 0,0,1
216 694 m 0,15,16
 69 565 69 565 69 372 c 0,17,18
 69 196 69 196 194 71 c 0,19,20
 318 -52 318 -52 495 -54 c 0,21,22
 671 -54 671 -54 796 71 c 128,-1,23
 921 196 921 196 921 372 c 256,24,25
 921 548 921 548 796 673 c 256,26,27
 671 798 671 798 495 798 c 0,28,29
 334 799 334 799 216 694 c 0,15,16
356 740 m 1,30,31
 364 740 364 740 383 740 c 1,32,33
 383 708 383 708 383 609 c 1,34,35
 401 609 401 609 456 609 c 1,36,37
 456 642 456 642 456 740 c 1,38,39
 464 740 464 740 483 740 c 1,40,41
 483 708 483 708 483 609 c 1,42,43
 549 609 549 609 742 609 c 1,44,45
 680 456 680 456 495 -4 c 1,46,47
 466 -4 466 -4 377 -4 c 1,48,49
 424 114 424 114 566 471 c 1,50,51
 544 471 544 471 483 471 c 1,52,53
 483 438 483 438 483 336 c 1,54,55
 477 336 477 336 456 336 c 1,56,57
 456 370 456 370 456 471 c 1,58,59
 438 471 438 471 383 471 c 1,60,61
 383 438 383 438 383 336 c 1,62,63
 376 336 376 336 356 336 c 1,64,65
 356 370 356 370 356 471 c 1,66,67
 348 471 348 471 322 471 c 1,68,69
 322 505 322 505 322 609 c 1,70,71
 332 609 332 609 356 609 c 1,72,73
 356 642 356 642 356 740 c 1,30,31
EndSplineSet
Validated: 33
EndChar

StartChar: J
Encoding: 74 74 39
Width: 657
GlyphClass: 2
Flags: W
LayerCount: 2
Fore
SplineSet
201 282 m 1,0,-1
 262 222 l 1,1,2
 320 317 320 317 351 422 c 128,-1,3
 382 527 382 527 384 638 c 1,4,-1
 223 638 l 1,5,-1
 223 769 l 1,6,-1
 640 769 l 1,7,-1
 640 638 l 1,8,-1
 477 638 l 1,9,10
 475 508 475 508 436.5 385.5 c 128,-1,11
 398 263 398 263 329 154 c 1,12,-1
 390 94 l 1,13,-1
 201 -94 l 1,14,-1
 14 94 l 1,15,-1
 201 282 l 1,0,-1
EndSplineSet
Validated: 1
EndChar

StartChar: K
Encoding: 75 75 40
Width: 451
GlyphClass: 2
Flags: W
LayerCount: 2
Fore
SplineSet
434 639 m 1,0,-1
 271 639 l 1,1,-1
 271 222 l 1,2,-1
 358 222 l 1,3,-1
 358 -44 l 1,4,-1
 93 -44 l 1,5,-1
 93 222 l 1,6,-1
 179 222 l 1,7,-1
 179 639 l 1,8,-1
 18 639 l 1,9,-1
 18 769 l 1,10,-1
 434 769 l 1,11,-1
 434 639 l 1,12,-1
 434 639 l 1,0,-1
EndSplineSet
Validated: 5
EndChar

StartChar: L
Encoding: 76 76 41
Width: 668
GlyphClass: 2
Flags: W
LayerCount: 2
Fore
SplineSet
649 93 m 1,0,-1
 461 -95 l 1,1,-1
 273 93 l 1,2,-1
 334 153 l 1,3,4
 264 261 264 261 226 384 c 128,-1,5
 188 507 188 507 186 637 c 1,6,-1
 23 637 l 1,7,-1
 23 768 l 1,8,-1
 439 768 l 1,9,-1
 439 637 l 1,10,-1
 278 637 l 1,11,12
 280 527 280 527 312 421 c 128,-1,13
 344 315 344 315 401 221 c 1,14,-1
 461 281 l 1,15,-1
 649 93 l 1,0,-1
EndSplineSet
Validated: 1
EndChar

StartChar: M
Encoding: 77 77 42
Width: 991
GlyphClass: 2
Flags: W
LayerCount: 2
Fore
SplineSet
497 845 m 0,0,1
 595 845 595 845 681.5 808 c 128,-1,2
 768 771 768 771 832 706.5 c 128,-1,3
 896 642 896 642 933.5 555.5 c 128,-1,4
 971 469 971 469 971 371 c 0,5,6
 971 272 971 272 933.5 186.5 c 128,-1,7
 896 101 896 101 832 36.5 c 128,-1,8
 768 -28 768 -28 681.5 -65.5 c 128,-1,9
 595 -103 595 -103 497 -103 c 0,10,11
 398 -103 398 -103 312.5 -65.5 c 128,-1,12
 227 -28 227 -28 162.5 36.5 c 128,-1,13
 98 101 98 101 60.5 186.5 c 128,-1,14
 23 272 23 272 23 371 c 0,15,16
 23 469 23 469 60.5 555.5 c 128,-1,17
 98 642 98 642 162.5 706.5 c 128,-1,18
 227 771 227 771 312.5 808 c 128,-1,19
 398 845 398 845 497 845 c 0,0,1
497 -50 m 256,20,21
 584 -50 584 -50 660 -16.5 c 128,-1,22
 736 17 736 17 793.5 74 c 128,-1,23
 851 131 851 131 883.5 207.5 c 128,-1,24
 916 284 916 284 916 371 c 256,25,26
 916 458 916 458 883.5 534.5 c 128,-1,27
 851 611 851 611 793.5 668.5 c 128,-1,28
 736 726 736 726 660 759 c 128,-1,29
 584 792 584 792 497 792 c 256,30,31
 410 792 410 792 333.5 759 c 128,-1,32
 257 726 257 726 200 668.5 c 128,-1,33
 143 611 143 611 109.5 534.5 c 128,-1,34
 76 458 76 458 76 371 c 256,35,36
 76 284 76 284 109.5 207.5 c 128,-1,37
 143 131 143 131 200 74 c 128,-1,38
 257 17 257 17 333.5 -16.5 c 128,-1,39
 410 -50 410 -50 497 -50 c 256,20,21
364 331 m 1,40,-1
 300 196 l 1,41,-1
 205 204 l 1,42,-1
 256 314 l 1,43,-1
 364 331 l 1,40,-1
571 232 m 1,44,-1
 624 140 l 1,45,-1
 571 30 l 1,46,-1
 507 98 l 1,47,-1
 571 232 l 1,44,-1
670 703 m 0,48,49
 682 698 682 698 685 672.5 c 128,-1,50
 688 647 688 647 681 606 c 128,-1,51
 674 565 674 565 656 511 c 128,-1,52
 638 457 638 457 607 396 c 2,53,-1
 503 178 l 1,54,-1
 463 81 l 1,55,-1
 457 85 l 1,56,-1
 448 89 l 1,57,-1
 444 91 l 1,58,-1
 423 47 l 1,59,-1
 313 98 l 1,60,-1
 334 142 l 1,61,-1
 332 144 l 1,62,-1
 320 149 l 1,63,-1
 317 151 l 1,64,-1
 366 242 l 1,65,-1
 471 462 l 2,66,67
 498 524 498 524 529 572 c 128,-1,68
 560 620 560 620 587 651 c 128,-1,69
 614 682 614 682 636 695.5 c 128,-1,70
 658 709 658 709 670 703 c 0,48,49
562 524 m 1,71,-1
 545 532 l 1,72,-1
 467 367 l 1,73,-1
 481 359 l 1,74,-1
 562 524 l 1,71,-1
614 498 m 1,75,-1
 598 506 l 1,76,-1
 520 343 l 1,77,-1
 535 333 l 1,78,-1
 614 498 l 1,75,-1
EndSplineSet
Validated: 33
EndChar

StartChar: P
Encoding: 80 80 43
Width: 990
GlyphClass: 2
Flags: W
LayerCount: 2
Fore
SplineSet
494 845 m 0,0,1
 592 845 592 845 678.5 808 c 128,-1,2
 765 771 765 771 829.5 706.5 c 128,-1,3
 894 642 894 642 931 555.5 c 128,-1,4
 968 469 968 469 968 371 c 0,5,6
 968 272 968 272 931 186.5 c 128,-1,7
 894 101 894 101 829.5 36.5 c 128,-1,8
 765 -28 765 -28 678.5 -65.5 c 128,-1,9
 592 -103 592 -103 494 -103 c 0,10,11
 395 -103 395 -103 309.5 -65.5 c 128,-1,12
 224 -28 224 -28 159.5 36.5 c 128,-1,13
 95 101 95 101 58 186.5 c 128,-1,14
 21 272 21 272 21 371 c 0,15,16
 21 469 21 469 58 555.5 c 128,-1,17
 95 642 95 642 159.5 706.5 c 128,-1,18
 224 771 224 771 309.5 808 c 128,-1,19
 395 845 395 845 494 845 c 0,0,1
494 -50 m 256,20,21
 581 -50 581 -50 657 -16.5 c 128,-1,22
 733 17 733 17 790.5 74 c 128,-1,23
 848 131 848 131 880.5 207.5 c 128,-1,24
 913 284 913 284 913 371 c 256,25,26
 913 458 913 458 880.5 534 c 128,-1,27
 848 610 848 610 790.5 667.5 c 128,-1,28
 733 725 733 725 657 757.5 c 128,-1,29
 581 790 581 790 494 790 c 256,30,31
 407 790 407 790 330.5 757.5 c 128,-1,32
 254 725 254 725 197 667.5 c 128,-1,33
 140 610 140 610 106.5 534 c 128,-1,34
 73 458 73 458 73 371 c 256,35,36
 73 284 73 284 106.5 207.5 c 128,-1,37
 140 131 140 131 197 74 c 128,-1,38
 254 17 254 17 330.5 -16.5 c 128,-1,39
 407 -50 407 -50 494 -50 c 256,20,21
644 548 m 0,40,41
 647 547 647 547 648 540 c 0,42,43
 649 537 649 537 649 534 c 2,44,-1
 676 208 l 1,45,-1
 672 180 l 2,46,47
 671 178 671 178 670 174 c 0,48,49
 668 170 668 170 666.5 164 c 128,-1,50
 665 158 665 158 661 149 c 0,51,52
 645 127 645 127 626 114 c 128,-1,53
 607 101 607 101 586.5 93.5 c 128,-1,54
 566 86 566 86 544.5 83 c 128,-1,55
 523 80 523 80 502 79 c 0,56,57
 444 83 444 83 401 98.5 c 128,-1,58
 358 114 358 114 325.5 137.5 c 128,-1,59
 293 161 293 161 267 192.5 c 128,-1,60
 241 224 241 224 220 259 c 0,61,62
 197 295 197 295 198.5 325 c 128,-1,63
 200 355 200 355 212 378 c 0,64,65
 226 403 226 403 250 426 c 1,66,-1
 540 597 l 2,67,68
 548 601 548 601 554 601 c 2,69,-1
 559 601 l 1,70,-1
 562 610 l 1,71,72
 569 614 569 614 576 618 c 0,73,74
 589 626 589 626 601 633 c 0,75,76
 611 638 611 638 619 638.5 c 128,-1,77
 627 639 627 639 635 637 c 0,78,79
 641 633 641 633 644 623 c 0,80,81
 646 618 646 618 647 612 c 2,82,-1
 649 557 l 1,83,-1
 646 553 l 2,84,85
 644 551 644 551 643.5 549.5 c 128,-1,86
 643 548 643 548 644 548 c 0,40,41
373 390 m 2,87,88
 380 398 380 398 381 408 c 128,-1,89
 382 418 382 418 377 426 c 0,90,91
 369 434 369 434 358.5 434 c 128,-1,92
 348 434 348 434 341 428 c 2,93,-1
 309 399 l 2,94,95
 300 391 300 391 298.5 381.5 c 128,-1,96
 297 372 297 372 305 363 c 0,97,98
 308 360 308 360 312.5 357.5 c 128,-1,99
 317 355 317 355 321 355 c 0,100,101
 333 355 333 355 339 361 c 2,102,-1
 373 390 l 2,87,88
479 305 m 2,103,104
 481 310 481 310 481 315.5 c 128,-1,105
 481 321 481 321 479 325 c 0,106,107
 478 331 478 331 475.5 334.5 c 128,-1,108
 473 338 473 338 468 341 c 0,109,110
 457 347 457 347 447 343.5 c 128,-1,111
 437 340 437 340 432 331 c 2,112,-1
 411 295 l 2,113,114
 405 285 405 285 408.5 275 c 128,-1,115
 412 265 412 265 422 259 c 0,116,117
 425 258 425 258 429 257 c 128,-1,118
 433 256 433 256 436 256 c 0,119,120
 452 256 452 256 458 269 c 2,121,-1
 479 305 l 2,103,104
609 276 m 2,122,123
 611 287 611 287 605.5 295.5 c 128,-1,124
 600 304 600 304 589 307 c 0,125,126
 578 309 578 309 569.5 302.5 c 128,-1,127
 561 296 561 296 559 286 c 2,128,-1
 551 244 l 2,129,130
 551 238 551 238 551.5 233.5 c 128,-1,131
 552 229 552 229 555 226 c 0,132,133
 564 217 564 217 572 214 c 2,134,-1
 577 214 l 2,135,136
 586 214 586 214 593.5 220.5 c 128,-1,137
 601 227 601 227 603 234 c 2,138,-1
 609 276 l 2,122,123
EndSplineSet
Validated: 33
EndChar

StartChar: R
Encoding: 82 82 44
Width: 1010
GlyphClass: 2
Flags: W
LayerCount: 2
Fore
SplineSet
728 784 m 1,0,1
 788 753 788 753 835 708 c 128,-1,2
 882 663 882 663 915 608.5 c 128,-1,3
 948 554 948 554 966 491 c 128,-1,4
 984 428 984 428 984 360 c 0,5,6
 984 260 984 260 946 173.5 c 128,-1,7
 908 87 908 87 843 21.5 c 128,-1,8
 778 -44 778 -44 691 -81.5 c 128,-1,9
 604 -119 604 -119 505 -119 c 0,10,11
 405 -119 405 -119 317.5 -81.5 c 128,-1,12
 230 -44 230 -44 165.5 21.5 c 128,-1,13
 101 87 101 87 62.5 174 c 128,-1,14
 24 261 24 261 24 360 c 0,15,16
 24 462 24 462 63.5 551 c 128,-1,17
 103 640 103 640 173 707 c 1,18,-1
 74 806 l 1,19,-1
 450 875 l 1,20,-1
 380 499 l 1,21,-1
 272 607 l 1,22,23
 220 559 220 559 192.5 496 c 128,-1,24
 165 433 165 433 165 360 c 0,25,26
 165 290 165 290 191.5 228 c 128,-1,27
 218 166 218 166 264.5 120 c 128,-1,28
 311 74 311 74 373 47.5 c 128,-1,29
 435 21 435 21 505 21 c 256,30,31
 575 21 575 21 636.5 47.5 c 128,-1,32
 698 74 698 74 744.5 120 c 128,-1,33
 791 166 791 166 817.5 228 c 128,-1,34
 844 290 844 290 844 360 c 0,35,36
 844 446 844 446 805 520.5 c 128,-1,37
 766 595 766 595 693 642 c 1,38,-1
 688 646 l 1,39,-1
 717 791 l 1,40,-1
 728 784 l 1,0,1
378 169 m 1,41,-1
 505 532 l 1,42,-1
 631 169 l 1,43,-1
 378 169 l 1,41,-1
EndSplineSet
Validated: 1
EndChar

StartChar: S
Encoding: 83 83 45
Width: 990
GlyphClass: 2
Flags: W
LayerCount: 2
Fore
SplineSet
494 846 m 0,0,1
 622 846 622 846 730.5 782.5 c 128,-1,2
 839 719 839 719 902 610 c 0,3,4
 967 502 967 502 966 374 c 0,5,6
 966 246 966 246 902 138 c 0,7,8
 839 28 839 28 730 -34 c 0,9,10
 621 -98 621 -98 494 -98 c 0,11,12
 298 -98 298 -98 160 40 c 256,13,14
 22 178 22 178 22 374 c 0,15,16
 22 571 22 571 160 707 c 0,17,18
 298 846 298 846 494 846 c 0,0,1
495 802 m 0,19,20
 319 802 319 802 194 677 c 128,-1,21
 69 552 69 552 69 377 c 0,22,23
 69 201 69 201 194 76 c 0,24,25
 318 -48 318 -48 495 -48 c 0,26,27
 671 -48 671 -48 795 76 c 0,28,29
 920 200 920 200 920 377 c 0,30,31
 920 552 920 552 795 677 c 256,32,33
 670 802 670 802 495 802 c 0,19,20
407 712 m 0,34,35
 421 703 421 703 420 696 c 0,36,37
 420 689 420 689 412 680 c 1,38,39
 388 679 388 679 372 672 c 0,40,41
 231 614 231 614 228 468 c 0,42,43
 228 461 228 461 230 450 c 0,44,45
 230 441 230 441 230 436 c 0,46,47
 224 422 224 422 214 423 c 0,48,49
 205 423 205 423 199 433 c 0,50,51
 196 438 196 438 196 460 c 0,52,53
 196 463 196 463 196 469 c 0,54,55
 200 643 200 643 365 704 c 0,56,57
 374 707 374 707 381 708 c 0,58,59
 391 710 391 710 398 710 c 0,60,61
 406 712 406 712 407 712 c 0,34,35
440 624 m 1,62,63
 453 619 453 619 453 608 c 0,64,65
 453 600 453 600 445 591 c 1,66,67
 382 585 382 585 352 540 c 256,68,69
 322 495 322 495 322 427 c 0,70,71
 322 425 322 425 322 419 c 0,72,73
 317 409 317 409 305 409 c 256,74,75
 293 409 293 409 290 422 c 0,76,77
 290 428 290 428 290 437 c 0,78,79
 290 514 290 514 328 564 c 0,80,81
 368 614 368 614 440 624 c 1,62,63
684 550 m 0,82,83
 695 550 695 550 700 538 c 0,84,85
 701 535 701 535 701 530 c 0,86,87
 701 503 701 503 670 447 c 0,88,89
 639 392 639 392 593 335 c 0,90,91
 551 282 551 282 503 243 c 256,92,93
 455 204 455 204 419 192 c 0,94,95
 416 192 416 192 410 193 c 0,96,97
 409 196 409 196 406 200 c 0,98,99
 406 204 406 204 404 215 c 0,100,101
 408 241 408 241 420 266 c 0,102,103
 433 291 433 291 442 305 c 0,104,105
 452 319 452 319 477 350 c 1,106,107
 470 336 470 336 461 321 c 0,108,109
 450 304 450 304 447 294 c 0,110,111
 442 286 442 286 435 265 c 256,112,113
 428 244 428 244 421 215 c 1,114,115
 424 215 424 215 426 216 c 0,116,117
 429 218 429 218 434 221 c 0,118,119
 439 225 439 225 443 227 c 0,120,121
 493 255 493 255 561 330 c 0,122,123
 628 404 628 404 667 488 c 0,124,125
 680 518 680 518 680 526 c 0,126,127
 680 528 680 528 680 532 c 1,128,129
 657 526 657 526 638 514 c 0,130,131
 618 501 618 501 593 482 c 0,132,133
 570 461 570 461 556 454 c 1,134,135
 608 517 608 517 674 548 c 0,136,137
 675 548 675 548 679 549 c 0,138,139
 681 550 681 550 684 550 c 0,82,83
714 524 m 1,140,141
 732 516 732 516 737 504 c 0,142,143
 743 490 743 490 746 464 c 0,144,145
 749 441 749 441 750 433 c 0,146,147
 741 346 741 346 707 299 c 1,148,149
 697 302 697 302 685 302 c 0,150,151
 662 302 662 302 644.5 286 c 128,-1,152
 627 270 627 270 628 245 c 0,153,154
 628 229 628 229 636 214 c 1,155,156
 576 171 576 171 548 165 c 0,157,158
 517 162 517 162 500 163 c 0,159,160
 453 163 453 163 440 182 c 1,161,162
 539 240 539 240 619 344 c 0,163,164
 698 449 698 449 714 524 c 1,140,141
437 503 m 0,165,166
 448 503 448 503 456 494 c 0,167,168
 465 487 465 487 464 475 c 0,169,170
 464 474 464 474 464 470 c 0,171,172
 494 450 494 450 585 392 c 1,173,174
 583 345 583 345 539 342 c 1,175,176
 509 378 509 378 448 449 c 1,177,178
 443 447 443 447 437 447 c 0,179,180
 425 447 425 447 417 456 c 0,181,182
 408 463 408 463 409 475 c 0,183,184
 409 488 409 488 417 494 c 0,185,186
 425 503 425 503 437 503 c 0,165,166
724 293 m 1,187,188
 746 275 746 275 757 254 c 0,189,190
 769 231 769 231 783 196.5 c 128,-1,191
 797 162 797 162 802 151 c 1,192,193
 772 113 772 113 740 96 c 1,194,195
 734 115 734 115 725 146 c 0,196,197
 715 176 715 176 712 187 c 1,198,199
 698 182 698 182 689 182 c 0,200,201
 675 182 675 182 652 189 c 1,202,203
 641 132 641 132 622 18 c 1,204,205
 568 -5 568 -5 524 -7 c 1,206,207
 543 49 543 49 581 160 c 0,208,209
 584 164 584 164 593 176 c 1,210,211
 601 180 601 180 607 184 c 0,212,213
 614 188 614 188 624 194 c 0,214,215
 634 201 634 201 643 206 c 1,216,217
 644 204 644 204 650 204 c 2,218,-1
 651 204 l 2,219,220
 653 202 653 202 653 201 c 0,221,222
 670 190 670 190 684 190 c 0,223,224
 689 190 689 190 714 199 c 1,225,226
 738 217 738 217 738 244 c 0,227,228
 738 270 738 270 719 284 c 0,229,230
 721 287 721 287 724 293 c 1,187,188
685 286 m 256,231,232
 703 286 703 286 714 274 c 0,233,234
 726 262 726 262 726 245 c 0,235,236
 726 229 726 229 714 216 c 0,237,238
 703 203 703 203 685 204 c 0,239,240
 667 204 667 204 656 216 c 0,241,242
 644 229 644 229 644 245 c 0,243,244
 644 263 644 263 656 274 c 0,245,246
 667 286 667 286 685 286 c 256,231,232
EndSplineSet
Validated: 33
EndChar

StartChar: T
Encoding: 84 84 46
Width: 990
GlyphClass: 2
Flags: W
LayerCount: 2
Fore
SplineSet
485 847 m 0,0,1
 487 847 487 847 494 847 c 0,2,3
 610 847 610 847 709 795 c 0,4,5
 825 737 825 737 896 622 c 128,-1,6
 967 507 967 507 967 378 c 0,7,8
 967 360 967 360 966 350 c 0,9,10
 960 209 960 209 872 91 c 0,11,12
 784 -26 784 -26 651 -71 c 0,13,14
 578 -97 578 -97 496 -98 c 0,15,16
 398 -98 398 -98 308 -60 c 0,17,18
 217 -23 217 -23 152 48 c 0,19,20
 89 113 89 113 56 200 c 0,21,22
 23 286 23 286 22 377 c 0,23,24
 22 475 22 475 59 559 c 0,25,26
 111 686 111 686 231 765 c 0,27,28
 349 846 349 846 485 847 c 0,0,1
486 803 m 0,29,30
 357 802 357 802 248 723 c 0,31,32
 137 645 137 645 95 523 c 0,33,34
 70 454 70 454 69 379 c 0,35,36
 69 282 69 282 112 191 c 0,37,38
 155 101 155 101 232 43 c 0,39,40
 345 -49 345 -49 495 -49 c 0,41,42
 634 -49 634 -49 741 30 c 0,43,44
 825 88 825 88 872 183 c 0,45,46
 921 277 921 277 921 380 c 0,47,48
 921 441 921 441 905 494 c 0,49,50
 870 627 870 627 754 715 c 0,51,52
 639 803 639 803 501 803 c 0,53,54
 499 803 499 803 495 803 c 0,55,56
 493 803 493 803 486 803 c 0,29,30
679 667 m 0,57,58
 753 667 753 667 783 586 c 1,59,60
 799 577 799 577 834 535 c 1,61,62
 828 526 828 526 813 510 c 1,63,64
 786 526 786 526 750 524 c 0,65,66
 708 524 708 524 667 509 c 0,67,68
 626 493 626 493 616 478 c 1,69,70
 634 478 634 478 630 456 c 1,71,72
 655 427 655 427 705 427 c 0,73,74
 713 427 713 427 735 429 c 0,75,76
 735 430 735 430 735 431 c 0,77,78
 735 441 735 441 769 456 c 1,79,80
 790 440 790 440 792 420 c 1,81,82
 784 377 784 377 780 335 c 1,83,84
 756 320 756 320 747 320 c 1,85,86
 752 301 752 301 766 293 c 1,87,88
 812 285 812 285 837 279 c 0,89,90
 861 274 861 274 865 273 c 0,91,92
 867 260 867 260 873 236 c 1,93,94
 812 96 812 96 713 35 c 0,95,96
 613 -25 613 -25 476 -28 c 1,97,98
 474 26 474 26 471 133 c 1,99,100
 465 132 465 132 448 131 c 1,101,102
 450 91 450 91 453 -28 c 1,103,104
 372 -17 372 -17 297 20 c 1,105,106
 299 36 299 36 303 78 c 0,107,108
 306 121 306 121 309 142 c 0,109,110
 312 162 312 162 320 194 c 256,111,112
 328 226 328 226 341 247 c 0,113,114
 355 270 355 270 377 286 c 1,115,116
 438 301 438 301 562 329 c 1,117,118
 551 351 551 351 520 416 c 1,119,120
 509 455 509 455 509 473 c 0,121,122
 509 505 509 505 535 521 c 1,123,124
 525 543 525 543 525 557 c 0,125,126
 525 559 525 559 528 578 c 1,127,128
 540 606 540 606 587 637 c 0,129,130
 634 666 634 666 679 667 c 0,57,58
296 652 m 0,131,132
 357 652 357 652 393 579 c 1,133,134
 419 558 419 558 433 542 c 1,135,136
 428 527 428 527 420 518 c 1,137,138
 396 527 396 527 363 532 c 1,139,140
 306 522 306 522 245 492 c 1,141,142
 248 490 248 490 256 488 c 0,143,144
 256 486 256 486 259 479 c 0,145,146
 261 473 261 473 262 467 c 1,147,148
 290 445 290 445 324 445 c 0,149,150
 327 445 327 445 331 445 c 0,151,152
 336 446 336 446 338 446 c 0,153,154
 345 458 345 458 375 470 c 1,155,156
 393 461 393 461 396 446 c 0,157,158
 396 418 396 418 384 371 c 1,159,160
 339 366 339 366 305 329 c 0,161,162
 269 291 269 291 253 239 c 256,163,164
 237 187 237 187 229 146 c 256,165,166
 221 105 221 105 221 78 c 1,167,168
 216 84 216 84 191 113 c 0,169,170
 166 141 166 141 156 154 c 0,171,172
 148 168 148 168 131 196 c 0,173,174
 113 225 113 225 105 258 c 0,175,176
 96 291 96 291 93 335 c 1,177,178
 160 352 160 352 202 360 c 1,179,180
 202 365 202 365 202 375 c 0,181,182
 202 427 202 427 173 432 c 0,183,184
 171 432 171 432 170 432 c 0,185,186
 165 432 165 432 160.5 447 c 128,-1,187
 156 462 156 462 156 480 c 0,188,189
 156 522 156 522 181 523 c 1,190,191
 173 551 173 551 173 556 c 0,192,193
 173 563 173 563 176 570 c 0,194,195
 191 600 191 600 225 626 c 0,196,197
 260 651 260 651 296 652 c 0,131,132
EndSplineSet
Validated: 33
EndChar

StartChar: U
Encoding: 85 85 47
Width: 990
GlyphClass: 2
Flags: W
LayerCount: 2
Fore
SplineSet
494 846 m 256,0,1
 690 846 690 846 827 707 c 0,2,3
 966 570 966 570 966 374 c 128,-1,4
 966 178 966 178 827 40 c 0,5,6
 689 -98 689 -98 494 -98 c 0,7,8
 298 -98 298 -98 160 40 c 256,9,10
 22 178 22 178 22 374 c 0,11,12
 22 571 22 571 160 707 c 0,13,14
 298 846 298 846 494 846 c 256,0,1
495 802 m 0,15,16
 319 802 319 802 194 677 c 128,-1,17
 69 552 69 552 69 377 c 0,18,19
 69 201 69 201 194 76 c 0,20,21
 318 -48 318 -48 495 -48 c 0,22,23
 671 -48 671 -48 795 76 c 0,24,25
 920 200 920 200 920 377 c 0,26,27
 920 552 920 552 795 677 c 256,28,29
 670 802 670 802 495 802 c 0,15,16
825 572 m 1,30,31
 825 569 825 569 828 562 c 1,32,33
 821 559 821 559 800 548 c 1,34,35
 776 542 776 542 700 524 c 1,36,37
 698 530 698 530 694 546 c 1,38,39
 718 552 718 552 793 571 c 0,40,41
 801 571 801 571 825 572 c 1,30,31
679 549 m 1,42,43
 680 545 680 545 683 531 c 1,44,45
 655 522 655 522 568 500 c 1,46,47
 567 505 567 505 565 520 c 1,48,49
 594 527 594 527 679 549 c 1,42,43
836 533 m 0,50,51
 837 530 837 530 839 523 c 1,52,53
 832 519 832 519 811 509 c 1,54,55
 787 504 787 504 711 486 c 1,56,57
 710 491 710 491 705 506 c 1,58,59
 729 513 729 513 804 532 c 0,60,61
 812 532 812 532 836 533 c 0,50,51
547 527 m 1,62,63
 548 521 548 521 549 507 c 1,64,65
 536 504 536 504 496 494 c 1,66,67
 495 499 495 499 492 514 c 1,68,69
 506 516 506 516 547 527 c 1,62,63
477 522 m 1,70,71
 483 493 483 493 502 405 c 1,72,73
 483 401 483 401 426 389 c 1,74,75
 425 378 425 378 425 347 c 1,76,77
 420 344 420 344 405 336 c 1,78,79
 403 349 403 349 396 384 c 1,80,81
 386 406 386 406 369 378 c 1,82,83
 351 390 351 390 347 389 c 0,84,85
 339 389 339 389 335 373 c 0,86,87
 334 372 334 372 334 370 c 0,88,89
 334 369 334 369 334 365 c 0,90,91
 333 364 333 364 333 361 c 0,92,93
 332 360 332 360 330 359 c 256,94,95
 328 358 328 358 325 357 c 0,96,97
 324 357 324 357 320 357 c 0,98,99
 317 356 317 356 254 345 c 0,100,101
 252 341 252 341 249 335 c 1,102,103
 244 335 244 335 227 332 c 1,104,105
 225 346 225 346 228 350 c 1,106,107
 216 352 216 352 208 356 c 256,108,109
 200 360 200 360 198 362 c 0,110,111
 197 364 197 364 196 371 c 0,112,113
 196 376 196 376 196 377 c 0,114,115
 194 379 194 379 193 386 c 0,116,117
 193 393 193 393 189 396 c 256,118,119
 185 399 185 399 177 399 c 0,120,121
 175 399 175 399 170 398 c 0,122,123
 165 398 165 398 162 398 c 0,124,125
 161 399 161 399 155 405 c 0,126,127
 151 413 151 413 151 417 c 0,128,129
 151 425 151 425 160 432 c 1,130,131
 177 434 177 434 210 437 c 1,132,133
 214 443 214 443 226 460 c 0,134,135
 231 473 231 473 238.5 473 c 128,-1,136
 246 473 246 473 257 460 c 1,137,138
 270 460 270 460 282 466 c 1,139,140
 286 486 286 486 294 485 c 0,141,142
 303 485 303 485 314 470 c 1,143,144
 325 474 325 474 347 480 c 1,145,146
 351 497 351 497 364 501 c 0,147,148
 366 501 366 501 381 485 c 1,149,150
 388 492 388 492 420 494 c 1,151,152
 418 498 418 498 416 505 c 1,153,154
 431 508 431 508 477 522 c 1,70,71
686 514 m 1,155,156
 689 504 689 504 695 475 c 1,157,158
 667 469 667 469 581 446 c 1,159,160
 579 457 579 457 574 487 c 1,161,162
 601 493 601 493 686 514 c 1,155,156
555 494 m 1,163,164
 557 478 557 478 567 432 c 1,165,166
 553 430 553 430 514 421 c 1,167,168
 510 437 510 437 499 484 c 1,169,170
 513 486 513 486 555 494 c 1,163,164
421 484 m 0,171,172
 416 483 416 483 410 470 c 1,173,174
 417 449 417 449 426 408 c 1,175,176
 432 403 432 403 445 401 c 1,177,178
 443 403 443 403 439 423 c 0,179,180
 435 445 435 445 423 471 c 1,181,182
 429 474 429 474 424 483 c 0,183,184
 423 484 423 484 421 484 c 0,171,172
359 475 m 1,185,186
 333 471 333 471 325 465 c 1,187,188
 333 457 333 457 349 450 c 0,189,190
 351 451 351 451 360 454 c 0,191,192
 367 457 367 457 372 460 c 1,193,194
 368 469 368 469 359 475 c 1,185,186
291 460 m 0,195,196
 282 459 282 459 278 458 c 0,197,198
 273 457 273 457 270 456 c 0,199,200
 269 455 269 455 269 452 c 0,201,202
 268 450 268 450 267 449 c 1,203,204
 269 448 269 448 277 442 c 0,205,206
 284 436 284 436 289 436 c 0,207,208
 295 436 295 436 308 446 c 1,209,210
 308 456 308 456 291 460 c 0,195,196
221 392 m 256,211,212
 208 392 208 392 208 378 c 128,-1,213
 208 364 208 364 221 364 c 256,214,215
 234 364 234 364 234 378 c 128,-1,216
 234 392 234 392 221 392 c 256,211,212
508 365 m 1,217,218
 583 314 583 314 603 301 c 1,219,220
 603 292 603 292 603 276 c 1,221,222
 543 276 543 276 370 276 c 1,223,224
 370 280 370 280 370 294 c 1,225,226
 383 308 383 308 392 316 c 1,227,228
 392 312 392 312 392 303 c 1,229,230
 399 302 399 302 411 302 c 0,231,232
 447 302 447 302 447 337 c 0,233,234
 447 342 447 342 445 355 c 1,235,236
 448 355 448 355 453 357 c 0,237,238
 463 358 463 358 479 360 c 0,239,240
 495 363 495 363 508 365 c 1,217,218
504 355 m 1,241,242
 494 355 494 355 488 345 c 1,243,244
 492 330 492 330 500 302 c 1,245,246
 522 302 522 302 581 302 c 1,247,248
 563 315 563 315 504 355 c 1,241,242
245 332 m 1,249,-1
 245 330 l 2,250,251
 245 250 245 250 313 219 c 0,252,253
 314 221 314 221 316 227 c 1,254,255
 341 227 341 227 343 226 c 1,256,257
 347 242 347 242 355 262 c 1,258,259
 399 262 399 262 489 262 c 0,260,261
 491 262 491 262 495 262 c 0,262,263
 529 262 529 262 634 262 c 1,264,265
 643 245 643 245 646 228 c 0,266,267
 650 210 650 210 651 187 c 128,-1,268
 652 164 652 164 654 153 c 1,269,270
 703 153 703 153 798 153 c 1,271,272
 791 146 791 146 770 127 c 0,273,274
 749 107 749 107 737 99 c 0,275,276
 725 89 725 89 706 75 c 0,277,278
 686 60 686 60 666 52 c 0,279,280
 599 18 599 18 506 11 c 0,281,282
 500 11 500 11 492 11 c 0,283,284
 389 19 389 19 323 52 c 0,285,286
 304 61 304 61 283.5 75 c 128,-1,287
 263 89 263 89 252 99 c 0,288,289
 240 108 240 108 221 127 c 0,290,291
 200 145 200 145 192 153 c 1,292,293
 239 153 239 153 335 153 c 1,294,295
 337 159 337 159 339 193 c 1,296,297
 319 193 319 193 309 200 c 0,298,299
 309 203 309 203 309 208 c 1,300,301
 236 248 236 248 234 331 c 0,302,303
 237 332 237 332 245 332 c 1,249,-1
471 236 m 1,304,305
 471 206 471 206 471 114 c 1,306,307
 470 114 470 114 467 114 c 1,308,309
 467 138 467 138 467 208 c 1,310,311
 462 208 462 208 449 208 c 1,312,313
 449 186 449 186 449 117 c 1,314,315
 426 117 426 117 361 117 c 1,316,317
 361 115 361 115 361 107 c 1,318,319
 433 93 433 93 489 93 c 1,320,321
 489 134 489 134 489 215 c 1,322,323
 490 215 490 215 492 215 c 0,324,325
 493 215 493 215 495 215 c 256,326,327
 497 215 497 215 502 215 c 1,328,329
 502 185 502 185 502 93 c 1,330,331
 558 93 558 93 629 107 c 0,332,333
 629 111 629 111 629 117 c 1,334,335
 607 117 607 117 541 117 c 1,336,337
 541 140 541 140 541 208 c 1,338,339
 537 208 537 208 523 208 c 1,340,341
 523 185 523 185 523 114 c 1,342,343
 522 114 522 114 518 114 c 1,344,345
 518 145 518 145 518 236 c 1,346,347
 511 236 511 236 492 236 c 1,348,349
 493 236 493 236 495 236 c 1,350,351
 490 236 490 236 471 236 c 1,304,305
EndSplineSet
Validated: 1
EndChar

StartChar: W
Encoding: 87 87 48
Width: 990
GlyphClass: 2
Flags: W
LayerCount: 2
Fore
SplineSet
494 844 m 256,0,1
 690 844 690 844 827 705 c 0,2,3
 966 568 966 568 966 372 c 128,-1,4
 966 176 966 176 827 38 c 0,5,6
 689 -100 689 -100 494 -100 c 0,7,8
 298 -100 298 -100 160 38 c 256,9,10
 22 176 22 176 22 372 c 0,11,12
 22 569 22 569 160 705 c 0,13,14
 298 844 298 844 494 844 c 256,0,1
495 800 m 0,15,16
 319 800 319 800 194 675 c 128,-1,17
 69 550 69 550 69 375 c 0,18,19
 69 199 69 199 194 74 c 0,20,21
 318 -50 318 -50 495 -50 c 0,22,23
 671 -50 671 -50 795 74 c 0,24,25
 920 198 920 198 920 375 c 0,26,27
 920 550 920 550 795 675 c 256,28,29
 670 800 670 800 495 800 c 0,15,16
486 741 m 0,30,31
 488 741 488 741 489 741 c 0,32,33
 518 741 518 741 543 731 c 256,34,35
 568 721 568 721 578 713 c 0,36,37
 589 705 589 705 610 686 c 0,38,39
 642 659 642 659 642 621 c 0,40,41
 642 610 642 610 638 589 c 1,42,43
 651 585 651 585 660 564 c 0,44,45
 663 552 663 552 663 531 c 0,46,47
 663 512 663 512 650 467 c 1,48,49
 640 454 640 454 634 448 c 0,50,51
 626 443 626 443 614 440 c 0,52,53
 604 436 604 436 601 435 c 0,54,55
 600 435 600 435 596 434 c 0,56,57
 592 434 592 434 591 434 c 0,58,59
 576 434 576 434 555 443 c 0,60,61
 533 455 533 455 527 473 c 0,62,63
 520 488 520 488 520 497.5 c 128,-1,64
 520 507 520 507 525 520 c 1,65,66
 540 536 540 536 547 541 c 1,67,68
 472 583 472 583 412 587 c 0,69,70
 404 588 404 588 388 588 c 0,71,72
 342 588 342 588 323 571 c 1,73,74
 308 585 308 585 308 600 c 0,75,76
 308 604 308 604 310 611 c 0,77,78
 312 614 312 614 317 618 c 0,79,80
 321 624 321 624 324 627 c 0,81,82
 330 630 330 630 337 635 c 0,83,84
 347 641 347 641 361 647 c 1,85,86
 376 725 376 725 465 739 c 0,87,88
 480 741 480 741 486 741 c 0,30,31
374 659 m 1,89,90
 368 652 368 652 367 639 c 1,91,92
 445 630 445 630 496 605 c 0,93,94
 536 584 536 584 547 567 c 1,95,96
 558 581 558 581 579 589 c 0,97,98
 584 591 584 591 596 593.5 c 128,-1,99
 608 596 608 596 615 598 c 1,100,101
 611 598 611 598 604 599 c 0,102,103
 597 599 597 599 594 599 c 0,104,105
 577 599 577 599 568 593 c 0,106,107
 566 592 566 592 549 579 c 1,108,109
 526 607 526 607 495 621 c 0,110,111
 455 643 455 643 374 659 c 1,89,90
381 583 m 0,112,113
 382 583 382 583 384 583 c 0,114,115
 407 583 407 583 431 578 c 0,116,117
 453 574 453 574 468 569 c 0,118,119
 482 562 482 562 505 555 c 0,120,121
 527 545 527 545 537 542 c 1,122,123
 534 534 534 534 522 528 c 0,124,125
 521 525 521 525 520 520 c 0,126,127
 520 515 520 515 519 512 c 0,128,129
 518 510 518 510 518 509 c 0,130,131
 507 501 507 501 497 497 c 0,132,133
 488 493 488 493 474 489 c 0,134,135
 461 486 461 486 456 485 c 0,136,137
 455 485 455 485 452 485 c 0,138,139
 436 485 436 485 419 496 c 0,140,141
 397 510 397 510 384 514 c 1,142,143
 376 510 376 510 370.5 505.5 c 128,-1,144
 365 501 365 501 361 497 c 0,145,146
 356 492 356 492 353 490 c 0,147,148
 338 485 338 485 331 496 c 0,149,150
 316 520 316 520 317 538 c 0,151,152
 317 553 317 553 325 564 c 0,153,154
 339 579 339 579 372 583 c 0,155,156
 375 583 375 583 381 583 c 0,112,113
612 554 m 0,157,158
 603 554 603 554 592 546 c 0,159,160
 591 544 591 544 582 528 c 0,161,162
 579 519 579 519 579 511 c 0,163,164
 579 493 579 493 589 462 c 1,165,166
 597 455 597 455 600 453 c 0,167,168
 625 456 625 456 636 499 c 0,169,170
 636 501 636 501 638 511 c 0,171,172
 641 520 641 520 640 527 c 0,173,174
 640 547 640 547 624 552 c 0,175,176
 615 554 615 554 612 554 c 0,157,158
527 461 m 1,177,178
 535 443 535 443 572 433 c 0,179,180
 572 431 572 431 571 428 c 0,181,182
 570 428 570 428 568 429 c 0,183,184
 567 429 567 429 566 429 c 0,185,186
 564 429 564 429 537 424 c 1,187,188
 529 415 529 415 511 402 c 256,189,190
 493 389 493 389 492 387 c 0,191,192
 442 372 442 372 441 371 c 0,193,194
 422 369 422 369 412 369 c 0,195,196
 396 369 396 369 384 373 c 1,197,198
 375 371 375 371 364 382 c 0,199,200
 360 390 360 390 360 396.5 c 128,-1,201
 360 403 360 403 364 410 c 1,202,203
 368 406 368 406 375 401 c 0,204,205
 377 402 377 402 385 407 c 0,206,207
 390 406 390 406 405 405 c 0,208,209
 407 402 407 402 413 394 c 0,210,211
 416 394 416 394 421 394 c 0,212,213
 442 394 442 394 481 410 c 1,214,215
 521 453 521 453 527 461 c 1,177,178
596 430 m 1,216,217
 599 424 599 424 606 407 c 1,218,219
 603 391 603 391 600 389 c 0,220,221
 606 376 606 376 639 377 c 0,222,223
 650 377 650 377 668 377 c 0,224,225
 682 377 682 377 690 376 c 0,226,227
 690 372 690 372 691 364 c 1,228,229
 640 345 640 345 598 296 c 0,230,231
 557 245 557 245 557 205 c 0,232,233
 557 203 557 203 557 197 c 1,234,235
 502 205 502 205 448 205 c 0,236,237
 346 205 346 205 276 170 c 1,238,239
 278 184 278 184 282 213 c 0,240,241
 280 216 280 216 276 229 c 1,242,243
 280 233 280 233 291 246 c 1,244,245
 295 268 295 268 295 288 c 0,246,247
 295 291 295 291 295 296 c 0,248,249
 310 310 310 310 322 313 c 0,250,251
 370 331 370 331 381 337 c 1,252,253
 388 359 388 359 388 368 c 0,254,255
 388 369 388 369 388 371 c 1,256,257
 391 370 391 370 402 367 c 1,258,259
 400 360 400 360 403 354 c 0,260,261
 407 349 407 349 410 345 c 256,262,263
 413 341 413 341 414 340 c 0,264,265
 408 320 408 320 408 310 c 1,266,267
 420 296 420 296 435 260 c 1,268,269
 443 284 443 284 460 332 c 0,270,271
 467 340 467 340 475 354 c 0,272,273
 484 369 484 369 494 380 c 256,274,275
 504 391 504 391 519 401 c 0,276,277
 546 425 546 425 596 430 c 1,216,217
729 368 m 0,278,279
 757 368 757 368 797 335 c 0,280,281
 816 319 816 319 839 281 c 0,282,283
 853 260 853 260 865 214 c 1,284,285
 854 190 854 190 844 180 c 1,286,287
 840 182 840 182 832 185 c 0,288,289
 827 187 827 187 805 187 c 0,290,291
 795 187 795 187 776 187 c 1,292,293
 758 171 758 171 712 171 c 0,294,295
 707 173 707 173 683 182 c 0,296,297
 660 190 660 190 650 194 c 0,298,299
 641 198 641 198 625 208 c 0,300,301
 608 217 608 217 597 227 c 0,302,303
 586 238 586 238 580 252 c 1,304,305
 607 295 607 295 644 327 c 0,306,307
 667 349 667 349 724 367 c 0,308,309
 724 368 724 368 729 368 c 0,278,279
288 275 m 1,310,311
 288 273 288 273 288 271 c 0,312,313
 288 262 288 262 282 255 c 0,314,315
 277 248 277 248 274 232 c 0,316,317
 270 225 270 225 276 213 c 1,318,319
 276 197 276 197 268 188 c 0,320,321
 267 187 267 187 267 182 c 0,322,323
 267 175 267 175 267 163 c 0,324,325
 267 162 267 162 267 157 c 0,326,327
 253 144 253 144 248 142 c 0,328,329
 242 141 242 141 234 140 c 1,330,331
 235 142 235 142 235 147 c 0,332,333
 245 161 245 161 254 172 c 0,334,335
 254 176 254 176 253 186 c 1,336,337
 248 191 248 191 245 196 c 0,338,339
 241 199 241 199 239 202 c 0,340,341
 238 205 238 205 236 208 c 0,342,343
 247 263 247 263 288 275 c 1,310,311
413 195 m 0,344,345
 426 195 426 195 448 194 c 0,346,347
 470 192 470 192 480 192 c 0,348,349
 483 192 483 192 489 192 c 0,350,351
 610 180 610 180 689 138 c 1,352,353
 700 108 700 108 725 47 c 1,354,355
 637 -19 637 -19 537 -23 c 0,356,357
 527 -24 527 -24 508 -24 c 0,358,359
 441 -24 441 -24 370 -3 c 256,360,361
 299 18 299 18 264 56 c 1,362,363
 261 83 261 83 255 137 c 1,364,365
 278 167 278 167 320 177 c 1,366,367
 364 195 364 195 413 195 c 0,344,345
800 177 m 0,368,369
 802 177 802 177 807 177 c 0,370,371
 828 177 828 177 837 168 c 1,372,373
 830 148 830 148 816 130 c 0,374,375
 801 110 801 110 788.5 98 c 128,-1,376
 776 86 776 86 750 63 c 0,377,378
 742 59 742 59 729 59 c 1,379,380
 721 91 721 91 706 155 c 1,381,382
 762 174 762 174 800 177 c 0,368,369
EndSplineSet
Validated: 33
EndChar

StartChar: X
Encoding: 88 88 49
Width: 990
GlyphClass: 2
Flags: W
LayerCount: 2
Fore
SplineSet
494 842 m 256,0,1
 690 842 690 842 827 703 c 0,2,3
 966 565 966 565 966 370 c 0,4,5
 966 174 966 174 827 36 c 0,6,7
 689 -102 689 -102 494 -102 c 0,8,9
 298 -102 298 -102 160 36 c 256,10,11
 22 174 22 174 22 370 c 256,12,13
 22 566 22 566 160 703 c 0,14,15
 298 842 298 842 494 842 c 256,0,1
495 798 m 0,16,17
 319 798 319 798 194 673 c 128,-1,18
 69 548 69 548 69 373 c 0,19,20
 69 197 69 197 194 72 c 0,21,22
 318 -51 318 -51 495 -52 c 0,23,24
 671 -52 671 -52 795 72 c 0,25,26
 920 197 920 197 920 373 c 0,27,28
 920 548 920 548 795 673 c 256,29,30
 670 798 670 798 495 798 c 0,16,17
290 217 m 0,31,32
 290 207 290 207 296 200 c 0,33,34
 304 193 304 193 313 193 c 0,35,36
 324 193 324 193 331.5 200.5 c 128,-1,37
 339 208 339 208 339 217 c 0,38,39
 339 228 339 228 332 236 c 0,40,41
 323 242 323 242 313.5 242 c 128,-1,42
 304 242 304 242 296 236 c 0,43,44
 290 228 290 228 290 217 c 0,31,32
579 280 m 1,45,46
 579 271 579 271 579 244 c 1,47,48
 612 244 612 244 714 244 c 1,49,50
 714 254 714 254 714 280 c 1,51,52
 681 280 681 280 579 280 c 1,45,46
417 241 m 1,53,54
 417 229 417 229 417 196 c 1,55,56
 442 196 442 196 523 196 c 1,57,58
 523 208 523 208 523 241 c 1,59,60
 496 241 496 241 417 241 c 1,53,54
418 324 m 1,61,62
 418 312 418 312 418 278 c 1,63,64
 443 278 443 278 524 278 c 1,65,66
 524 289 524 289 524 324 c 1,67,68
 497 324 497 324 418 324 c 1,61,62
281 324 m 1,69,70
 281 312 281 312 281 278 c 1,71,72
 307 278 307 278 388 278 c 1,73,74
 388 289 388 289 388 324 c 1,75,76
 361 324 361 324 281 324 c 1,69,70
464 407 m 1,77,78
 471 407 471 407 496 407 c 1,79,80
 496 401 496 401 496 385 c 1,81,82
 502 385 502 385 518 385 c 1,83,84
 518 392 518 392 518 407 c 1,85,86
 524 407 524 407 543 407 c 1,87,88
 543 401 543 401 543 385 c 1,89,90
 550 385 550 385 566 385 c 1,91,92
 566 392 566 392 566 407 c 1,93,94
 572 407 572 407 593 407 c 1,95,96
 593 401 593 401 593 384 c 1,97,98
 607 384 607 384 646 384 c 1,99,100
 646 398 646 398 646 438 c 1,101,102
 627 438 627 438 575 438 c 1,103,104
 575 462 575 462 575 540 c 1,105,106
 581 540 581 540 598 540 c 1,107,108
 598 519 598 519 598 460 c 1,109,110
 610 460 610 460 646 460 c 1,111,112
 646 464 646 464 646 473 c 1,113,114
 653 482 653 482 678 505 c 1,115,116
 678 525 678 525 678 581 c 1,117,118
 667 582 667 582 658 591 c 0,119,120
 648 601 648 601 648 615 c 128,-1,121
 648 629 648 629 657 639 c 0,122,123
 668 650 668 650 682 650 c 0,124,125
 697 650 697 650 706 639 c 0,126,127
 716 629 716 629 716 615 c 0,128,129
 716 613 716 613 706 591 c 0,130,131
 705 589 705 589 704 588 c 0,132,133
 704 520 704 520 704 384 c 1,134,135
 708 384 708 384 722 384 c 1,136,137
 743 364 743 364 802 303 c 1,138,139
 802 278 802 278 802 199 c 1,140,141
 783 180 783 180 727 124 c 1,142,143
 615 124 615 124 279 124 c 1,144,145
 262 142 262 142 208 195 c 1,146,147
 208 206 208 206 208 236 c 1,148,149
 204 236 204 236 192 236 c 1,150,151
 192 249 192 249 192 284 c 1,152,153
 195 284 195 284 208 284 c 1,154,155
 208 292 208 292 208 312 c 1,156,157
 226 330 226 330 280 384 c 1,158,159
 288 384 288 384 307 384 c 1,160,161
 310 412 310 412 320 494 c 1,162,163
 313 495 313 495 308 499 c 0,164,165
 302 507 302 507 302 516 c 0,166,167
 302 527 302 527 308 532 c 0,168,169
 316 540 316 540 325 540 c 0,170,171
 336 540 336 540 341 532 c 0,172,173
 349 526 349 526 349 516 c 0,174,175
 349 504 349 504 342 499 c 0,176,177
 337 495 337 495 331 494 c 1,178,179
 334 457 334 457 342 384 c 1,180,181
 352 384 352 384 380 384 c 1,182,183
 380 390 380 390 380 407 c 1,184,185
 395 407 395 407 440 407 c 1,186,187
 440 400 440 400 440 382 c 1,188,189
 447 382 447 382 464 382 c 1,190,191
 464 387 464 387 464 407 c 1,77,78
578 321 m 1,192,193
 578 317 578 317 578 308 c 1,194,195
 615 308 615 308 727 308 c 1,196,197
 727 311 727 311 727 321 c 1,198,199
 690 321 690 321 578 321 c 1,192,193
578 210 m 1,200,201
 578 206 578 206 578 197 c 1,202,203
 600 197 600 197 668 197 c 0,204,205
 671 200 671 200 680 210 c 1,206,207
 654 210 654 210 578 210 c 1,200,201
EndSplineSet
Validated: 1
EndChar

StartChar: Y
Encoding: 89 89 50
Width: 990
GlyphClass: 2
Flags: W
LayerCount: 2
Fore
SplineSet
583 746 m 1,0,-1
 584 715 l 1,1,-1
 584 678 l 2,2,3
 584 671 584 671 592 656 c 1,4,5
 603 664 603 664 609 669 c 2,6,-1
 665 710 l 1,7,-1
 686 694 l 1,8,9
 610 638 610 638 600 631 c 1,10,-1
 598 628 l 1,11,12
 600 613 600 613 600 600 c 0,13,14
 600 561 600 561 596 549 c 0,15,16
 586 523 586 523 577 512 c 0,17,18
 575 510 575 510 571.5 505 c 128,-1,19
 568 500 568 500 567 497 c 2,20,-1
 565 494 l 1,21,-1
 562 481 l 1,22,-1
 640 456 l 1,23,-1
 642 367 l 1,24,-1
 630 321 l 1,25,-1
 599 325 l 1,26,-1
 601 308 l 1,27,-1
 580 308 l 1,28,29
 580 320 580 320 578 326 c 1,30,-1
 506 322 l 1,31,-1
 507 308 l 1,32,33
 494 307 494 307 486.5 306.5 c 128,-1,34
 479 306 479 306 476 307 c 2,35,36
 476 307 476 307 475 307 c 2,37,-1
 474 307 l 1,38,39
 475 302 475 302 477 291 c 1,40,-1
 465 280 l 1,41,-1
 463 266 l 1,42,-1
 428 270 l 1,43,-1
 429 300 l 1,44,-1
 408 313 l 1,45,-1
 407 323 l 1,46,-1
 428 323 l 1,47,-1
 427 340 l 2,48,49
 423 340 423 340 418 340.5 c 128,-1,50
 413 341 413 341 397.5 341.5 c 128,-1,51
 382 342 382 342 376.5 342 c 128,-1,52
 371 342 371 342 368 342 c 2,53,54
 368 342 368 342 360 356 c 256,55,56
 352 370 352 370 343 386 c 2,57,-1
 336 400 l 1,58,-1
 311 403 l 1,59,-1
 285 433 l 1,60,-1
 285 452 l 1,61,-1
 167 498 l 1,62,-1
 148 499 l 1,63,-1
 160 532 l 1,64,-1
 174 516 l 1,65,-1
 285 472 l 1,66,-1
 284 525 l 1,67,-1
 190 564 l 1,68,-1
 169 564 l 1,69,-1
 180 594 l 1,70,-1
 195 580 l 1,71,-1
 307 537 l 1,72,-1
 327 540 l 1,73,-1
 336 554 l 1,74,-1
 496 503 l 1,75,76
 505 522 505 522 510 541 c 0,77,78
 513 549 513 549 513.5 558.5 c 128,-1,79
 514 568 514 568 515.5 578.5 c 128,-1,80
 517 589 517 589 521 598 c 256,81,82
 525 607 525 607 531.5 613 c 128,-1,83
 538 619 538 619 546.5 624 c 128,-1,84
 555 629 555 629 557 632 c 0,85,86
 571 642 571 642 578 648 c 1,87,88
 576 656 576 656 571.5 673 c 128,-1,89
 567 690 567 690 565 695 c 0,90,91
 565 700 565 700 565 711 c 128,-1,92
 565 722 565 722 566 733 c 2,93,-1
 566 744 l 1,94,-1
 583 746 l 1,0,-1
585 618 m 1,95,96
 582 615 582 615 568.5 606 c 128,-1,97
 555 597 555 597 551 591 c 0,98,99
 549 588 549 588 545 570.5 c 128,-1,100
 541 553 541 553 541 550 c 0,101,102
 538 540 538 540 531.5 522 c 128,-1,103
 525 504 525 504 522 494 c 1,104,-1
 551 485 l 1,105,106
 552 489 552 489 553 496 c 128,-1,107
 554 503 554 503 555.5 508 c 128,-1,108
 557 513 557 513 560 519 c 0,109,110
 574 538 574 538 581 553 c 0,111,112
 586 564 586 564 586 591 c 0,113,114
 586 599 586 599 585 618 c 1,95,96
761 366 m 2,115,116
 782 366 782 366 808 345 c 0,117,118
 828 326 828 326 827 298 c 0,119,120
 827 289 827 289 825.5 275 c 128,-1,121
 824 261 824 261 823 259 c 0,122,123
 822 258 822 258 818.5 257 c 128,-1,124
 815 256 815 256 811.5 257 c 128,-1,125
 808 258 808 258 805 256 c 0,126,127
 802 256 802 256 801.5 253.5 c 128,-1,128
 801 251 801 251 801 248.5 c 128,-1,129
 801 246 801 246 801.5 242.5 c 128,-1,130
 802 239 802 239 802 238 c 256,131,132
 802 237 802 237 792 238 c 1,133,-1
 792 238 l 1,134,135
 751 237 751 237 742 235 c 0,136,137
 739 235 739 235 732.5 228.5 c 128,-1,138
 726 222 726 222 714 222 c 0,139,140
 679 222 679 222 671 232 c 0,141,142
 669 234 669 234 669 237.5 c 128,-1,143
 669 241 669 241 669 247.5 c 128,-1,144
 669 254 669 254 669 255 c 0,145,146
 669 260 669 260 672 271 c 128,-1,147
 675 282 675 282 675 283 c 0,148,149
 682 284 682 284 721 285 c 2,150,-1
 722 285 l 1,151,-1
 722 287 l 2,152,153
 722 305 722 305 719 310 c 0,154,155
 716 312 716 312 713 315 c 128,-1,156
 710 318 710 318 704.5 320.5 c 128,-1,157
 699 323 699 323 698 323.5 c 128,-1,158
 697 324 697 324 695 325 c 128,-1,159
 693 326 693 326 692.5 326.5 c 128,-1,160
 692 327 692 327 690.5 328.5 c 128,-1,161
 689 330 689 330 688 331.5 c 128,-1,162
 687 333 687 333 687 335 c 0,163,164
 686 339 686 339 691 342 c 128,-1,165
 696 345 696 345 699 345 c 0,166,167
 705 345 705 345 713 350 c 0,168,169
 714 351 714 351 720 359 c 0,170,171
 721 362 721 362 723 363 c 128,-1,172
 725 364 725 364 729 364.5 c 128,-1,173
 733 365 733 365 735.5 365.5 c 128,-1,174
 738 366 738 366 745 366 c 128,-1,175
 752 366 752 366 756 366 c 2,176,-1
 761 366 l 2,115,116
755 294 m 2,177,178
 755 293 755 293 755 291.5 c 128,-1,179
 755 290 755 290 754.5 286 c 128,-1,180
 754 282 754 282 753.5 278.5 c 128,-1,181
 753 275 753 275 753 271 c 128,-1,182
 753 267 753 267 754 265 c 0,183,184
 759 254 759 254 776 254 c 0,185,186
 787 254 787 254 795 260 c 0,187,188
 796 261 796 261 797.5 263.5 c 128,-1,189
 799 266 799 266 800 269.5 c 128,-1,190
 801 273 801 273 802.5 275.5 c 128,-1,191
 804 278 804 278 804 280 c 2,192,-1
 805 282 l 1,193,-1
 805 283 l 1,194,-1
 804 283 l 1,195,-1
 794 283 l 1,196,-1
 793 283 l 1,197,-1
 793 282 l 2,198,199
 791 268 791 268 784 266 c 0,200,201
 771 261 771 261 769 265 c 0,202,203
 762 275 762 275 766 292 c 0,204,205
 767 293 767 293 764.5 293.5 c 128,-1,206
 762 294 762 294 759 294 c 2,207,-1
 757 294 l 1,208,-1
 756 295 l 1,209,-1
 755 294 l 2,177,178
818 163 m 1,210,211
 771 97 771 97 758.5 85 c 128,-1,212
 746 73 746 73 700 39.5 c 128,-1,213
 654 6 654 6 641 -1 c 128,-1,214
 628 -8 628 -8 615 -8 c 0,215,216
 587 -10 587 -10 552 6 c 2,217,-1
 460 60 l 2,218,219
 451 67 451 67 446 69 c 2,220,-1
 417 74 l 1,221,222
 410 80 410 80 407.5 83 c 128,-1,223
 405 86 405 86 405 102.5 c 128,-1,224
 405 119 405 119 409 130.5 c 128,-1,225
 413 142 413 142 415.5 144 c 128,-1,226
 418 146 418 146 426.5 146.5 c 128,-1,227
 435 147 435 147 437 146 c 0,228,229
 440 145 440 145 441 120 c 1,230,-1
 450 120 l 1,231,-1
 451 146 l 1,232,233
 456 149 456 149 460.5 144 c 128,-1,234
 465 139 465 139 466.5 129 c 128,-1,235
 468 119 468 119 468.5 115.5 c 128,-1,236
 469 112 469 112 469 111 c 128,-1,237
 469 110 469 110 469.5 109 c 128,-1,238
 470 108 470 108 498 95 c 128,-1,239
 526 82 526 82 530.5 81 c 128,-1,240
 535 80 535 80 559.5 77.5 c 128,-1,241
 584 75 584 75 595 72.5 c 128,-1,242
 606 70 606 70 629 59 c 2,243,-1
 649 48 l 1,244,245
 647 62 647 62 651.5 73 c 128,-1,246
 656 84 656 84 685 119 c 2,247,-1
 752 191 l 1,248,249
 675 123 675 123 660 97 c 0,250,251
 657 94 657 94 650.5 85.5 c 128,-1,252
 644 77 644 77 643.5 76 c 128,-1,253
 643 75 643 75 639 73.5 c 128,-1,254
 635 72 635 72 631.5 73.5 c 128,-1,255
 628 75 628 75 627 80 c 0,256,257
 626 91 626 91 638 111.5 c 128,-1,258
 650 132 650 132 654 140 c 0,259,260
 664 160 664 160 668.5 164.5 c 128,-1,261
 673 169 673 169 691 185 c 128,-1,262
 709 201 709 201 714.5 205 c 128,-1,263
 720 209 720 209 737 216.5 c 128,-1,264
 754 224 754 224 758 226 c 2,265,-1
 809 228 l 2,266,267
 814 226 814 226 817 219.5 c 128,-1,268
 820 213 820 213 820 201.5 c 128,-1,269
 820 190 820 190 820 186.5 c 128,-1,270
 820 183 820 183 821 182 c 0,271,272
 821 176 821 176 821 175 c 2,273,-1
 818 163 l 1,210,211
610.5 121 m 128,-1,275
 627 116 627 116 627 115.5 c 128,-1,276
 627 115 627 115 624 107 c 0,277,278
 613 84 613 84 604 84 c 0,279,280
 549 92 549 92 535 101.5 c 128,-1,281
 521 111 521 111 510.5 113 c 128,-1,282
 500 115 500 115 500 117 c 0,283,284
 500 118 500 118 504 119 c 0,285,286
 506 124 506 124 506 136.5 c 128,-1,287
 506 149 506 149 509 153 c 1,288,-1
 517 152 l 1,289,290
 514 135 514 135 519.5 132.5 c 128,-1,291
 525 130 525 130 529 141 c 2,292,-1
 536 161 l 2,293,294
 538 174 538 174 523 180 c 1,295,-1
 522 183 l 1,296,297
 529 193 529 193 533 193 c 0,298,299
 539 193 539 193 540 182 c 1,300,-1
 553 180 l 1,301,302
 553 142 553 142 555.5 140 c 128,-1,303
 558 138 558 138 576 132 c 128,-1,274
 594 126 594 126 610.5 121 c 128,-1,275
505.5 203.5 m 128,-1,305
 506 199 506 199 506.5 198 c 128,-1,306
 507 197 507 197 507 194 c 0,307,308
 508 188 508 188 516.5 182 c 128,-1,309
 525 176 525 176 527 170 c 128,-1,310
 529 164 529 164 524 150 c 1,311,312
 503 187 503 187 499 189 c 128,-1,313
 495 191 495 191 494.5 191 c 128,-1,314
 494 191 494 191 491.5 191.5 c 128,-1,315
 489 192 489 192 486.5 192.5 c 128,-1,316
 484 193 484 193 482 191.5 c 128,-1,317
 480 190 480 190 479.5 184 c 128,-1,318
 479 178 479 178 478.5 175 c 128,-1,319
 478 172 478 172 483.5 166 c 128,-1,320
 489 160 489 160 489.5 155 c 128,-1,321
 490 150 490 150 486.5 147 c 128,-1,322
 483 144 483 144 480.5 145 c 128,-1,323
 478 146 478 146 476 150 c 128,-1,324
 474 154 474 154 468 157.5 c 128,-1,325
 462 161 462 161 459.5 163 c 128,-1,326
 457 165 457 165 452.5 166.5 c 128,-1,327
 448 168 448 168 441 163.5 c 128,-1,328
 434 159 434 159 423 159 c 128,-1,329
 412 159 412 159 402 156 c 128,-1,330
 392 153 392 153 380.5 143 c 128,-1,331
 369 133 369 133 367.5 129.5 c 128,-1,332
 366 126 366 126 364.5 122 c 128,-1,333
 363 118 363 118 361.5 113.5 c 128,-1,334
 360 109 360 109 358 103.5 c 128,-1,335
 356 98 356 98 355 94.5 c 128,-1,336
 354 91 354 91 351.5 86 c 128,-1,337
 349 81 349 81 347.5 78.5 c 128,-1,338
 346 76 346 76 347.5 74.5 c 128,-1,339
 349 73 349 73 349.5 72.5 c 128,-1,340
 350 72 350 72 352.5 70.5 c 128,-1,341
 355 69 355 69 356 68.5 c 128,-1,342
 357 68 357 68 359 65 c 128,-1,343
 361 62 361 62 362.5 57.5 c 128,-1,344
 364 53 364 53 370.5 41.5 c 128,-1,345
 377 30 377 30 377.5 28 c 128,-1,346
 378 26 378 26 378 16 c 128,-1,347
 378 6 378 6 378 -3 c 2,348,-1
 379 -11 l 2,349,350
 375 -11 375 -11 367 -10 c 1,351,352
 365 12 365 12 356 32 c 128,-1,353
 347 52 347 52 347 52.5 c 128,-1,354
 347 53 347 53 342.5 48.5 c 128,-1,355
 338 44 338 44 337.5 42.5 c 128,-1,356
 337 41 337 41 334 24 c 2,357,-1
 329 9 l 1,358,359
 308 9 308 9 307 13 c 0,360,361
 299 26 299 26 311 47 c 128,-1,362
 323 68 323 68 325 81 c 1,363,364
 320 88 320 88 315 96 c 128,-1,365
 310 104 310 104 307 107 c 0,366,367
 300 117 300 117 300 134 c 128,-1,368
 300 151 300 151 312 167.5 c 128,-1,369
 324 184 324 184 331 188.5 c 128,-1,370
 338 193 338 193 341.5 194 c 128,-1,371
 345 195 345 195 348.5 194 c 128,-1,372
 352 193 352 193 354 192.5 c 128,-1,373
 356 192 356 192 361 190 c 128,-1,374
 366 188 366 188 368.5 186.5 c 128,-1,375
 371 185 371 185 375 181 c 128,-1,376
 379 177 379 177 385 176.5 c 128,-1,377
 391 176 391 176 392.5 177 c 128,-1,378
 394 178 394 178 395.5 180.5 c 128,-1,379
 397 183 397 183 400.5 186.5 c 128,-1,380
 404 190 404 190 419.5 189 c 128,-1,381
 435 188 435 188 437.5 188.5 c 128,-1,382
 440 189 440 189 443.5 191 c 128,-1,383
 447 193 447 193 448 194 c 0,384,385
 451 194 451 194 462 201 c 0,386,387
 477 209 477 209 481 208.5 c 128,-1,388
 485 208 485 208 495 208 c 128,-1,304
 505 208 505 208 505.5 203.5 c 128,-1,305
365 168 m 0,389,390
 362 172 362 172 350 172.5 c 128,-1,391
 338 173 338 173 335 170 c 0,392,393
 322 158 322 158 322.5 149 c 128,-1,394
 323 140 323 140 322 133.5 c 128,-1,395
 321 127 321 127 321 123 c 0,396,397
 319 111 319 111 326 105 c 128,-1,398
 333 99 333 99 336 103 c 128,-1,399
 339 107 339 107 339 112.5 c 128,-1,400
 339 118 339 118 339 123 c 128,-1,401
 339 128 339 128 339 131 c 128,-1,402
 339 134 339 134 340 138 c 0,403,404
 341 144 341 144 349 150 c 128,-1,405
 357 156 357 156 359.5 158 c 128,-1,406
 362 160 362 160 364 162 c 128,-1,407
 366 164 366 164 365.5 164.5 c 128,-1,408
 365 165 365 165 365 168 c 0,389,390
480 826 m 0,409,410
 670 826 670 826 805.5 691 c 128,-1,411
 941 556 941 556 941 365 c 128,-1,412
 941 174 941 174 805.5 39 c 128,-1,413
 670 -96 670 -96 480 -96 c 0,414,415
 289 -96 289 -96 154 39 c 128,-1,416
 19 174 19 174 19 365 c 128,-1,417
 19 556 19 556 154 691 c 128,-1,418
 289 826 289 826 480 826 c 0,409,410
489 783 m 0,419,420
 317 783 317 783 195 661 c 128,-1,421
 73 539 73 539 73 368 c 0,422,423
 73 196 73 196 195 74 c 128,-1,424
 317 -48 317 -48 489 -48 c 128,-1,425
 661 -48 661 -48 778.5 74 c 128,-1,426
 896 196 896 196 896 368 c 0,427,428
 896 539 896 539 778 661 c 128,-1,429
 660 783 660 783 489 783 c 0,419,420
EndSplineSet
Validated: 37
EndChar

StartChar: bracketleft
Encoding: 91 91 51
Width: 621
GlyphClass: 2
Flags: W
LayerCount: 2
Fore
SplineSet
603 -43 m 2,0,-1
 506 -44 l 2,1,2
 506 -43 506 -43 506 -14 c 128,-1,3
 506 15 506 15 499.5 62 c 128,-1,4
 493 109 493 109 478.5 170.5 c 128,-1,5
 464 232 464 232 434.5 299 c 128,-1,6
 405 366 405 366 359 434 c 256,7,8
 313 502 313 502 245 562 c 1,9,-1
 309 635 l 1,10,11
 386 567 386 567 438 491.5 c 128,-1,12
 490 416 490 416 523 342.5 c 128,-1,13
 556 269 556 269 572.5 201 c 128,-1,14
 589 133 589 133 596 80 c 128,-1,15
 603 27 603 27 603 -6 c 128,-1,16
 603 -39 603 -39 603 -43 c 2,0,-1
20 82 m 1,17,-1
 386 186 l 1,18,-1
 284 286 l 1,19,-1
 368 370 l 1,20,-1
 298 438 l 1,21,-1
 214 352 l 1,22,-1
 114 452 l 1,23,-1
 20 82 l 1,17,-1
EndSplineSet
Validated: 9
EndChar

StartChar: bracketright
Encoding: 93 93 52
Width: 623
GlyphClass: 2
Flags: W
LayerCount: 2
Fore
SplineSet
19 -43 m 2,0,1
 19 -39 19 -39 19 -6 c 128,-1,2
 19 27 19 27 25.5 80 c 128,-1,3
 32 133 32 133 48.5 201 c 128,-1,4
 65 269 65 269 98 342.5 c 128,-1,5
 131 416 131 416 183 492 c 0,6,7
 234 567 234 567 312 635 c 1,8,-1
 376 562 l 1,9,10
 307 501 307 501 261 433.5 c 128,-1,11
 215 366 215 366 185.5 298.5 c 128,-1,12
 156 231 156 231 141.5 169.5 c 128,-1,13
 127 108 127 108 121 61 c 128,-1,14
 115 14 115 14 114.5 -14.5 c 128,-1,15
 114 -43 114 -43 114 -44 c 2,16,-1
 19 -43 l 2,0,1
407 352 m 1,17,-1
 324 437 l 1,18,-1
 254 370 l 1,19,-1
 337 285 l 1,20,-1
 235 186 l 1,21,-1
 601 82 l 1,22,-1
 508 452 l 1,23,-1
 407 352 l 1,17,-1
EndSplineSet
Validated: 9
EndChar

StartChar: asciicircum
Encoding: 94 94 53
Width: 1095
GlyphClass: 2
Flags: W
LayerCount: 2
Fore
SplineSet
621 78 m 1,0,1
 621 110 621 110 621 207 c 1,2,3
 572 207 572 207 427 207 c 1,4,5
 476 286 476 286 621 523 c 1,6,7
 621 555 621 555 621 652 c 1,8,9
 732 583 732 583 1066 373 c 1,10,11
 955 299 955 299 621 78 c 1,0,1
537 523 m 1,12,13
 488 444 488 444 341 207 c 1,14,15
 298 207 298 207 170 207 c 1,16,17
 218 286 218 286 363 523 c 1,18,19
 406 523 406 523 537 523 c 1,12,13
280 523 m 1,20,21
 230 444 230 444 83 207 c 1,22,23
 69 207 69 207 30 207 c 1,24,25
 80 286 80 286 231 523 c 1,26,27
 243 523 243 523 280 523 c 1,20,21
EndSplineSet
Validated: 1
EndChar

StartChar: grave
Encoding: 96 96 54
Width: 350
GlyphClass: 2
Flags: W
LayerCount: 2
Fore
SplineSet
174 784 m 1,0,-1
 290 572 l 1,1,-1
 58 572 l 1,2,-1
 174 784 l 1,0,-1
EndSplineSet
Validated: 1
EndChar

StartChar: a
Encoding: 97 97 55
Width: 1316
GlyphClass: 2
Flags: W
LayerCount: 2
Fore
SplineSet
1308 403 m 1,0,-1
 1308 137 l 1,1,-1
 1015 -8 l 1,2,-1
 1014 -8 l 1,3,-1
 1007 -12 l 1,4,-1
 1007 -2 l 1,5,-1
 955 40 l 1,6,7
 921 -6 921 -6 876 -39 c 1,8,-1
 918 -102 l 1,9,10
 846 -153 846 -153 756 -173 c 0,11,12
 707 -185 707 -185 655 -185 c 0,13,14
 585 -185 585 -185 521.5 -165 c 128,-1,15
 458 -145 458 -145 403 -107 c 1,16,-1
 446 -47 l 1,17,18
 394 -12 394 -12 359 33 c 1,19,-1
 303 -11 l 1,20,-1
 303 -12 l 1,21,-1
 302 -12 l 1,22,-1
 301 -14 l 2,23,24
 298 -12 298 -12 296 -8 c 2,25,-1
 12 132 l 1,26,-1
 12 408 l 1,27,-1
 297 549 l 1,28,29
 346 611 346 611 412 653 c 128,-1,30
 478 695 478 695 556 713 c 0,31,32
 577 718 577 718 599 721 c 128,-1,33
 621 724 621 724 643 724 c 1,34,-1
 646 648 l 1,35,-1
 656 648 l 2,36,37
 678 648 678 648 701.5 646 c 128,-1,38
 725 644 725 644 746 639 c 1,39,-1
 764 711 l 1,40,41
 813 700 813 700 855.5 678.5 c 128,-1,42
 898 657 898 657 936 627 c 1,43,-1
 891 568 l 1,44,45
 909 553 909 553 924.5 537 c 128,-1,46
 940 521 940 521 954 503 c 1,47,-1
 1007 545 l 1,48,-1
 1007 553 l 1,49,-1
 1013 549 l 1,50,-1
 1014 549 l 1,51,-1
 1308 403 l 1,0,-1
228 119 m 1,52,53
 223 132 223 132 219 144 c 128,-1,54
 215 156 215 156 212 170 c 0,55,56
 197 234 197 234 201 297.5 c 128,-1,57
 205 361 205 361 228 422 c 1,58,-1
 228 431 l 1,59,-1
 87 361 l 1,60,-1
 87 178 l 1,61,-1
 228 109 l 1,62,-1
 228 119 l 1,52,53
896 87 m 0,63,64
 937 139 937 139 952 204 c 128,-1,65
 967 269 967 269 950 337 c 0,66,67
 943 371 943 371 928.5 401 c 128,-1,68
 914 431 914 431 895 456 c 0,69,70
 873 485 873 485 842 509 c 0,71,72
 817 529 817 529 788.5 543 c 128,-1,73
 760 557 760 557 728 564 c 0,74,75
 710 569 710 569 692.5 571 c 128,-1,76
 675 573 675 573 656 573 c 0,77,78
 650 573 650 573 646 572 c 0,79,80
 631 572 631 572 617 571 c 128,-1,81
 603 570 603 570 588 565 c 0,82,83
 526 551 526 551 478 515.5 c 128,-1,84
 430 480 430 480 398.5 431 c 128,-1,85
 367 382 367 382 356.5 323 c 128,-1,86
 346 264 346 264 359 202 c 0,87,88
 376 132 376 132 419 80 c 0,89,90
 434 60 434 60 452 44.5 c 128,-1,91
 470 29 470 29 489 17 c 0,92,93
 564 -33 564 -33 655 -33 c 0,94,95
 672 -33 672 -33 689 -31.5 c 128,-1,96
 706 -30 706 -30 723 -25 c 0,97,98
 754 -18 754 -18 782 -5.5 c 128,-1,99
 810 7 810 7 833 24 c 0,100,101
 852 38 852 38 867.5 53 c 128,-1,102
 883 68 883 68 896 87 c 0,63,64
1231 356 m 1,103,-1
 1083 431 l 1,104,-1
 1083 424 l 1,105,106
 1088 410 1088 410 1092 397 c 128,-1,107
 1096 384 1096 384 1099 370 c 0,108,109
 1113 306 1113 306 1109 241.5 c 128,-1,110
 1105 177 1105 177 1083 116 c 1,111,-1
 1083 109 l 1,112,-1
 1231 184 l 1,113,-1
 1231 356 l 1,103,-1
842 416 m 0,114,115
 874 378 874 378 888 322 c 0,116,117
 900 269 900 269 888 219 c 128,-1,118
 876 169 876 169 845 128 c 0,119,120
 836 114 836 114 823.5 101.5 c 128,-1,121
 811 89 811 89 797 78 c 0,122,123
 777 64 777 64 754.5 54 c 128,-1,124
 732 44 732 44 708 38 c 0,125,126
 658 27 658 27 611.5 36.5 c 128,-1,127
 565 46 565 46 526 71 c 0,128,129
 493 91 493 91 470 120 c 0,130,131
 437 161 437 161 423 217 c 0,132,133
 412 265 412 265 421.5 311.5 c 128,-1,134
 431 358 431 358 455 397 c 128,-1,135
 479 436 479 436 517 463.5 c 128,-1,136
 555 491 555 491 603 502 c 0,137,138
 615 504 615 504 626.5 505.5 c 128,-1,139
 638 507 638 507 649 507 c 0,140,141
 665 509 665 509 681 507 c 128,-1,142
 697 505 697 505 712 501 c 0,143,144
 761 489 761 489 802 456 c 1,145,-1
 803 456 l 1,146,147
 826 437 826 437 842 416 c 0,114,115
708 212 m 1,148,149
 713 216 713 216 716 220 c 128,-1,150
 719 224 719 224 723 229 c 0,151,152
 738 253 738 253 732 287 c 0,153,154
 726 304 726 304 717 318 c 0,155,156
 710 326 710 326 704 331 c 0,157,158
 691 341 691 341 674 346 c 0,159,160
 669 348 669 348 664 348.5 c 128,-1,161
 659 349 659 349 653 349 c 0,162,163
 649 349 649 349 645.5 348.5 c 128,-1,164
 642 348 642 348 638 346 c 0,165,166
 621 343 621 343 609 333.5 c 128,-1,167
 597 324 597 324 589 311.5 c 128,-1,168
 581 299 581 299 578 283.5 c 128,-1,169
 575 268 575 268 579 252 c 0,170,171
 586 231 586 231 596 218 c 0,172,173
 607 207 607 207 618 201 c 0,174,175
 630 195 630 195 644 192.5 c 128,-1,176
 658 190 658 190 673 193 c 0,177,178
 694 198 694 198 708 211 c 1,179,-1
 708 212 l 1,148,149
EndSplineSet
Validated: 33
EndChar

StartChar: b
Encoding: 98 98 56
Width: 1099
GlyphClass: 2
Flags: W
LayerCount: 2
Fore
SplineSet
482 50 m 1,0,-1
 619 50 l 1,1,-1
 619 -78 l 1,2,-1
 482 -78 l 1,3,-1
 482 50 l 1,0,-1
482 -128 m 1,4,-1
 619 -128 l 1,5,-1
 619 -185 l 1,6,-1
 482 -185 l 1,7,-1
 482 -128 l 1,4,-1
727 571 m 1,8,-1
 619 571 l 1,9,-1
 619 86 l 1,10,-1
 482 86 l 1,11,-1
 482 571 l 1,12,-1
 371 571 l 1,13,-1
 549 831 l 1,14,-1
 727 571 l 1,8,-1
279 424 m 1,15,16
 321 415 321 415 357 395 c 128,-1,17
 393 375 393 375 424 350 c 1,18,-1
 442 350 l 1,19,-1
 442 124 l 1,20,-1
 416 124 l 1,21,22
 403 179 403 179 366 221 c 128,-1,23
 329 263 329 263 279 285 c 1,24,-1
 279 178 l 1,25,-1
 20 355 l 1,26,-1
 279 533 l 1,27,-1
 279 424 l 1,15,16
818 178 m 1,28,-1
 818 283 l 1,29,30
 769 261 769 261 734 220 c 128,-1,31
 699 179 699 179 686 124 c 1,32,-1
 657 124 l 1,33,-1
 657 350 l 1,34,-1
 678 350 l 1,35,36
 706 375 706 375 742.5 394.5 c 128,-1,37
 779 414 779 414 818 422 c 1,38,-1
 818 533 l 1,39,-1
 1078 355 l 1,40,-1
 818 178 l 1,28,-1
EndSplineSet
Validated: 1
EndChar

StartChar: c
Encoding: 99 99 57
Width: 1171
GlyphClass: 2
Flags: W
LayerCount: 2
Fore
SplineSet
1082 87 m 1,0,-1
 725 195 l 1,1,-1
 750 -82 l 1,2,-1
 586 144 l 1,3,-1
 348 -188 l 1,4,-1
 447 193 l 1,5,-1
 90 71 l 1,6,-1
 375 320 l 1,7,-1
 140 430 l 1,8,-1
 400 466 l 1,9,-1
 218 798 l 1,10,-1
 512 560 l 1,11,-1
 586 932 l 1,12,-1
 660 560 l 1,13,-1
 954 798 l 1,14,-1
 772 466 l 1,15,-1
 1070 437 l 1,16,-1
 797 320 l 1,17,-1
 1082 87 l 1,0,-1
586 252 m 1,18,-1
 670 137 l 1,19,-1
 656 279 l 1,20,-1
 839 225 l 1,21,-1
 693 342 l 1,22,-1
 832 401 l 1,23,-1
 682 416 l 1,24,-1
 772 584 l 1,25,-1
 623 464 l 1,26,-1
 586 652 l 1,27,-1
 549 464 l 1,28,-1
 399 584 l 1,29,-1
 490 416 l 1,30,-1
 358 398 l 1,31,-1
 478 342 l 1,32,-1
 334 216 l 1,33,-1
 517 277 l 1,34,-1
 465 84 l 1,35,-1
 586 252 l 1,18,-1
EndSplineSet
Validated: 1
EndChar

StartChar: d
Encoding: 100 100 58
Width: 1172
GlyphClass: 2
Flags: W
LayerCount: 2
Fore
SplineSet
1082 87 m 1,0,-1
 725 195 l 1,1,-1
 750 -82 l 1,2,-1
 586 144 l 1,3,-1
 348 -188 l 1,4,-1
 447 193 l 1,5,-1
 90 71 l 1,6,-1
 375 320 l 1,7,-1
 140 430 l 1,8,-1
 400 466 l 1,9,-1
 218 798 l 1,10,-1
 512 560 l 1,11,-1
 586 932 l 1,12,-1
 660 560 l 1,13,-1
 954 798 l 1,14,-1
 772 466 l 1,15,-1
 1070 437 l 1,16,-1
 797 320 l 1,17,-1
 1082 87 l 1,0,-1
EndSplineSet
Validated: 1
EndChar

StartChar: e
Encoding: 101 101 59
Width: 625
GlyphClass: 2
Flags: W
LayerCount: 2
Fore
SplineSet
587 432 m 0,0,1
 587 279 587 279 474 167 c 0,2,3
 465 158 465 158 458 138.5 c 128,-1,4
 451 119 451 119 456 95 c 0,5,6
 465 67 465 67 491.5 50 c 128,-1,7
 518 33 518 33 546 24 c 1,8,-1
 500 -137 l 1,9,10
 444 -121 444 -121 407 -96.5 c 128,-1,11
 370 -72 370 -72 346.5 -45.5 c 128,-1,12
 323 -19 323 -19 311 8 c 128,-1,13
 299 35 299 35 295 57 c 0,14,15
 278 119 278 119 295 182.5 c 128,-1,16
 312 246 312 246 356 288 c 0,17,18
 388 318 388 318 403.5 354.5 c 128,-1,19
 419 391 419 391 419 432 c 0,20,21
 419 463 419 463 406.5 495.5 c 128,-1,22
 394 528 394 528 371 554 c 1,23,-1
 261 466 l 1,24,-1
 254 858 l 1,25,-1
 601 741 l 1,26,-1
 502 661 l 1,27,28
 545 612 545 612 566 553 c 128,-1,29
 587 494 587 494 587 432 c 0,0,1
123 453 m 0,30,31
 147 453 147 453 167.5 444.5 c 128,-1,32
 188 436 188 436 203 420.5 c 128,-1,33
 218 405 218 405 226 384.5 c 128,-1,34
 234 364 234 364 234 341 c 0,35,36
 234 295 234 295 203 263.5 c 128,-1,37
 172 232 172 232 123 232 c 0,38,39
 77 232 77 232 47 263.5 c 128,-1,40
 17 295 17 295 17 341 c 0,41,42
 17 364 17 364 25 384.5 c 128,-1,43
 33 405 33 405 47.5 420.5 c 128,-1,44
 62 436 62 436 81.5 444.5 c 128,-1,45
 101 453 101 453 123 453 c 0,30,31
EndSplineSet
Validated: 33
EndChar

StartChar: f
Encoding: 102 102 60
Width: 1461
GlyphClass: 2
Flags: W
LayerCount: 2
Fore
SplineSet
1444 315 m 1,0,-1
 1438 309 l 2,1,2
 1437 308 1437 308 1417.5 285 c 128,-1,3
 1398 262 1398 262 1360.5 227.5 c 128,-1,4
 1323 193 1323 193 1266 153 c 128,-1,5
 1209 113 1209 113 1131 79.5 c 128,-1,6
 1053 46 1053 46 953.5 23 c 128,-1,7
 854 0 854 0 731 0 c 0,8,9
 609 0 609 0 509.5 23 c 128,-1,10
 410 46 410 46 332 79.5 c 128,-1,11
 254 113 254 113 197 153 c 128,-1,12
 140 193 140 193 101.5 227.5 c 128,-1,13
 63 262 63 262 44 285 c 128,-1,14
 25 308 25 308 24 309 c 2,15,-1
 19 315 l 1,16,-1
 24 321 l 2,17,18
 26 321 26 321 40 346.5 c 128,-1,19
 54 372 54 372 83 410 c 128,-1,20
 112 448 112 448 158 493.5 c 128,-1,21
 204 539 204 539 269.5 580 c 128,-1,22
 335 621 335 621 420.5 653 c 128,-1,23
 506 685 506 685 615 694 c 1,24,-1
 624 697 l 1,25,-1
 622 697 l 2,26,27
 649 698 649 698 676.5 699 c 128,-1,28
 704 700 704 700 731 700 c 0,29,30
 853 700 853 700 953 672.5 c 128,-1,31
 1053 645 1053 645 1131 603 c 128,-1,32
 1209 561 1209 561 1266 512 c 128,-1,33
 1323 463 1323 463 1360.5 420.5 c 128,-1,34
 1398 378 1398 378 1418 350 c 2,35,-1
 1438 321 l 1,36,-1
 1444 315 l 1,0,-1
168 305 m 1,37,38
 177 280 177 280 194 249 c 128,-1,39
 211 218 211 218 252.5 187 c 128,-1,40
 294 156 294 156 369.5 130 c 128,-1,41
 445 104 445 104 571 89 c 1,42,43
 549 100 549 100 529 115 c 128,-1,44
 509 130 509 130 490 147 c 0,45,46
 443 197 443 197 417.5 258.5 c 128,-1,47
 392 320 392 320 392 389 c 0,48,49
 395 427 395 427 401.5 459 c 128,-1,50
 408 491 408 491 425 519 c 1,51,52
 359 504 359 504 315 485 c 128,-1,53
 271 466 271 466 243 444.5 c 128,-1,54
 215 423 215 423 201.5 401.5 c 128,-1,55
 188 380 188 380 181.5 361 c 128,-1,56
 175 342 175 342 173 327.5 c 128,-1,57
 171 313 171 313 168 305 c 1,37,38
719 425 m 0,58,59
 719 401 719 401 728.5 379 c 128,-1,60
 738 357 738 357 754.5 341 c 128,-1,61
 771 325 771 325 793 316 c 128,-1,62
 815 307 815 307 840 307 c 0,63,64
 857 307 857 307 871.5 311 c 128,-1,65
 886 315 886 315 896 321 c 0,66,67
 924 338 924 338 941 364.5 c 128,-1,68
 958 391 958 391 958 425 c 0,69,70
 958 449 958 449 948.5 471.5 c 128,-1,71
 939 494 939 494 923 510 c 128,-1,72
 907 526 907 526 885.5 536 c 128,-1,73
 864 546 864 546 840 546 c 0,74,75
 825 546 825 546 813 542 c 128,-1,76
 801 538 801 538 789 533 c 0,77,78
 758 518 758 518 738.5 490 c 128,-1,79
 719 462 719 462 719 425 c 0,58,59
892 89 m 1,80,81
 977 99 977 99 1040.5 116.5 c 128,-1,82
 1104 134 1104 134 1152 155.5 c 128,-1,83
 1200 177 1200 177 1233.5 200.5 c 128,-1,84
 1267 224 1267 224 1290 246 c 128,-1,85
 1313 268 1313 268 1329 286 c 128,-1,86
 1345 304 1345 304 1357 315 c 1,87,88
 1348 328 1348 328 1333.5 353.5 c 128,-1,89
 1319 379 1319 379 1285 408.5 c 128,-1,90
 1251 438 1251 438 1190.5 468 c 128,-1,91
 1130 498 1130 498 1028 521 c 1,92,93
 1050 496 1050 496 1060 460 c 128,-1,94
 1070 424 1070 424 1070 382 c 0,95,96
 1070 335 1070 335 1057 291 c 128,-1,97
 1044 247 1044 247 1020 209.5 c 128,-1,98
 996 172 996 172 963.5 141 c 128,-1,99
 931 110 931 110 892 89 c 1,80,81
EndSplineSet
Validated: 1
EndChar

StartChar: g
Encoding: 103 103 61
Width: 862
GlyphClass: 2
Flags: W
LayerCount: 2
Fore
SplineSet
72 429 m 0,0,1
 48 340 48 340 68 254 c 128,-1,2
 88 168 88 168 143 101 c 1,3,-1
 123 46 l 1,4,5
 87 84 87 84 61 130.5 c 128,-1,6
 35 177 35 177 21.5 228 c 128,-1,7
 8 279 8 279 7.5 333.5 c 128,-1,8
 7 388 7 388 21 442 c 0,9,10
 43 526 43 526 95.5 591.5 c 128,-1,11
 148 657 148 657 218 697.5 c 128,-1,12
 288 738 288 738 370.5 750.5 c 128,-1,13
 453 763 453 763 537 740 c 0,14,15
 539 740 539 740 539 739.5 c 128,-1,16
 539 739 539 739 540 739 c 2,17,-1
 480 699 l 1,18,19
 412 709 412 709 346.5 693.5 c 128,-1,20
 281 678 281 678 226.5 642 c 128,-1,21
 172 606 172 606 131.5 551.5 c 128,-1,22
 91 497 91 497 72 429 c 0,0,1
728 629 m 1,23,24
 766 591 766 591 793 543.5 c 128,-1,25
 820 496 820 496 834.5 444.5 c 128,-1,26
 849 393 849 393 849.5 336.5 c 128,-1,27
 850 280 850 280 835 225 c 0,28,29
 813 142 813 142 761.5 77 c 128,-1,30
 710 12 710 12 640.5 -28.5 c 128,-1,31
 571 -69 571 -69 489 -82 c 128,-1,32
 407 -95 407 -95 324 -74 c 1,33,-1
 386 -33 l 1,34,35
 453 -41 453 -41 517 -24.5 c 128,-1,36
 581 -8 581 -8 634.5 27.5 c 128,-1,37
 688 63 688 63 728 117 c 128,-1,38
 768 171 768 171 785 238 c 0,39,40
 798 284 798 284 798 330 c 128,-1,41
 798 376 798 376 787.5 419 c 128,-1,42
 777 462 777 462 757 501.5 c 128,-1,43
 737 541 737 541 708 575 c 1,44,-1
 728 629 l 1,23,24
81 -182 m 1,45,-1
 373 269 l 1,46,-1
 179 269 l 1,47,-1
 776 850 l 1,48,-1
 483 398 l 1,49,-1
 679 398 l 1,50,-1
 81 -182 l 1,45,-1
EndSplineSet
Validated: 33
EndChar

StartChar: h
Encoding: 104 104 62
Width: 1095
GlyphClass: 2
Flags: W
LayerCount: 2
Fore
SplineSet
465 301 m 0,0,1
 465 337 465 337 490.5 361.5 c 128,-1,2
 516 386 516 386 551 386 c 0,3,4
 569 386 569 386 584 379.5 c 128,-1,5
 599 373 599 373 610.5 361.5 c 128,-1,6
 622 350 622 350 629 334 c 128,-1,7
 636 318 636 318 636 301 c 0,8,9
 636 283 636 283 629 267.5 c 128,-1,10
 622 252 622 252 610.5 240.5 c 128,-1,11
 599 229 599 229 583.5 222.5 c 128,-1,12
 568 216 568 216 551 216 c 0,13,14
 516 216 516 216 490.5 241 c 128,-1,15
 465 266 465 266 465 301 c 0,0,1
1014 455 m 0,16,17
 1048 427 1048 427 1068 387.5 c 128,-1,18
 1088 348 1088 348 1088 301 c 256,19,20
 1088 254 1088 254 1068 214 c 128,-1,21
 1048 174 1048 174 1014 146 c 0,22,23
 991 127 991 127 957 113 c 0,24,25
 940 108 940 108 923 105 c 128,-1,26
 906 102 906 102 889 102 c 0,27,28
 867 102 867 102 846 107 c 1,29,-1
 844 107 l 2,30,31
 846 104 846 104 848 99 c 0,32,33
 853 88 853 88 853 71 c 0,34,35
 853 66 853 66 852.5 61 c 128,-1,36
 852 56 852 56 850 51 c 1,37,-1
 868 22 l 1,38,-1
 875 12 l 1,39,-1
 905 -36 l 1,40,-1
 932 -81 l 1,41,-1
 888 -55 l 1,42,-1
 841 -24 l 1,43,-1
 832 -19 l 1,44,-1
 806 -3 l 1,45,46
 791 -10 791 -10 771 -10 c 2,47,-1
 769 -10 l 2,48,49
 762 -10 762 -10 759 -9 c 0,50,51
 753 -9 753 -9 747 -7 c 1,52,53
 748 -14 748 -14 748.5 -21.5 c 128,-1,54
 749 -29 749 -29 749 -38 c 0,55,56
 749 -74 749 -74 737 -106 c 128,-1,57
 725 -138 725 -138 705 -163 c 0,58,59
 677 -196 677 -196 637.5 -216.5 c 128,-1,60
 598 -237 598 -237 551 -237 c 0,61,62
 530 -237 530 -237 510.5 -233 c 128,-1,63
 491 -229 491 -229 474 -222 c 0,64,65
 469 -219 469 -219 465 -217 c 128,-1,66
 461 -215 461 -215 456 -213 c 0,67,68
 431 -199 431 -199 410 -178 c 0,69,70
 406 -175 406 -175 403 -171.5 c 128,-1,71
 400 -168 400 -168 396 -164 c 1,72,73
 396 -164 396 -164 396 -163 c 0,74,75
 386 -150 386 -150 376 -133 c 0,76,77
 371 -124 371 -124 367 -115 c 128,-1,78
 363 -106 363 -106 360 -98 c 0,79,80
 359 -93 359 -93 358.5 -90 c 128,-1,81
 358 -87 358 -87 357 -82 c 0,82,83
 353 -71 353 -71 352.5 -60.5 c 128,-1,84
 352 -50 352 -50 352 -38 c 0,85,86
 352 -31 352 -31 352 -26 c 128,-1,87
 352 -21 352 -21 353 -15 c 0,88,89
 354 -10 354 -10 354.5 -5 c 128,-1,90
 355 0 355 0 357 5 c 2,91,-1
 357 7 l 1,92,93
 350 4 350 4 344 2 c 128,-1,94
 338 0 338 0 331 -2 c 2,95,-1
 321 -2 l 2,96,97
 310 -2 310 -2 301 1 c 1,98,-1
 272 -17 l 1,99,-1
 260 -24 l 1,100,-1
 214 -55 l 1,101,-1
 169 -81 l 1,102,-1
 195 -36 l 1,103,-1
 226 12 l 1,104,-1
 231 19 l 1,105,-1
 247 46 l 1,106,107
 239 64 239 64 239 80 c 0,108,109
 239 81 239 81 240 82 c 2,110,-1
 240 83 l 2,111,112
 240 94 240 94 243 104 c 1,113,114
 228 101 228 101 212 102 c 0,115,116
 201 102 201 102 191.5 103 c 128,-1,117
 182 104 182 104 172 106 c 0,118,119
 151 109 151 109 136 118 c 0,120,121
 125 121 125 121 117 126 c 256,122,123
 109 131 109 131 101.5 136 c 128,-1,124
 94 141 94 141 87 146 c 0,125,126
 82 151 82 151 78.5 153.5 c 128,-1,127
 75 156 75 156 72 160 c 0,128,129
 67 164 67 164 64.5 167.5 c 128,-1,130
 62 171 62 171 58 175 c 0,131,132
 49 187 49 187 37 206 c 0,133,134
 28 222 28 222 22 241 c 0,135,136
 12 267 12 267 13 301 c 0,137,138
 13 332 13 332 22 360 c 0,139,140
 28 378 28 378 37 396 c 0,141,142
 49 416 49 416 58 427 c 0,143,144
 65 436 65 436 72 440 c 0,145,146
 75 445 75 445 78.5 448 c 128,-1,147
 82 451 82 451 87 455 c 0,148,149
 94 461 94 461 101.5 466 c 128,-1,150
 109 471 109 471 117 476 c 0,151,152
 121 478 121 478 126 479.5 c 128,-1,153
 131 481 131 481 136 483 c 0,154,155
 172 499 172 499 212 499 c 0,156,157
 218 499 218 499 223.5 499 c 128,-1,158
 229 499 229 499 235 498 c 0,159,160
 240 497 240 497 245 496.5 c 128,-1,161
 250 496 250 496 255 494 c 0,162,163
 256 494 256 494 257 493 c 1,164,165
 256 496 256 496 255 498.5 c 128,-1,166
 254 501 254 501 253 503 c 0,167,168
 251 508 251 508 250 512 c 128,-1,169
 249 516 249 516 248 521 c 2,170,-1
 248 530 l 2,171,172
 248 539 248 539 251 550 c 1,173,-1
 232 580 l 1,174,-1
 226 591 l 1,175,-1
 195 638 l 1,176,-1
 169 683 l 1,177,-1
 214 655 l 1,178,-1
 260 625 l 1,179,-1
 269 619 l 1,180,-1
 296 604 l 1,181,182
 313 611 313 611 330 611 c 2,183,-1
 332 611 l 2,184,185
 334 611 334 611 337 610.5 c 128,-1,186
 340 610 340 610 342 610 c 0,187,188
 349 608 349 608 354 607 c 1,189,190
 353 615 353 615 352.5 623 c 128,-1,191
 352 631 352 631 352 639 c 0,192,193
 352 670 352 670 360 698 c 0,194,195
 366 715 366 715 376 733 c 0,196,197
 381 742 381 742 386 749.5 c 128,-1,198
 391 757 391 757 396 765 c 1,199,-1
 396 765 l 1,200,201
 400 770 400 770 403 772.5 c 128,-1,202
 406 775 406 775 410 780 c 0,203,204
 421 791 421 791 431.5 799 c 128,-1,205
 442 807 442 807 456 813 c 0,206,207
 461 815 461 815 465 817.5 c 128,-1,208
 469 820 469 820 474 822 c 0,209,210
 508 838 508 838 551 838 c 0,211,212
 598 838 598 838 637.5 818 c 128,-1,213
 677 798 677 798 705 765 c 0,214,215
 725 740 725 740 737 708 c 128,-1,216
 749 676 749 676 749 639 c 0,217,218
 749 633 749 633 749 627.5 c 128,-1,219
 749 622 749 622 748 616 c 0,220,221
 747 611 747 611 746.5 606 c 128,-1,222
 746 601 746 601 744 596 c 0,223,224
 743 596 743 596 743 595 c 1,225,226
 748 597 748 597 752.5 598.5 c 128,-1,227
 757 600 757 600 762 602 c 0,228,229
 766 603 766 603 770 603.5 c 128,-1,230
 774 604 774 604 780 604 c 0,231,232
 791 604 791 604 800 600 c 1,233,-1
 828 618 l 1,234,-1
 841 625 l 1,235,-1
 888 655 l 1,236,-1
 932 683 l 1,237,-1
 905 638 l 1,238,-1
 875 591 l 1,239,-1
 869 582 l 1,240,-1
 854 556 l 1,241,242
 862 538 862 538 861 521 c 0,243,244
 861 520 861 520 860.5 520 c 128,-1,245
 860 520 860 520 860 519 c 0,246,247
 860 507 860 507 857 497 c 1,248,249
 865 499 865 499 873 499 c 128,-1,250
 881 499 881 499 889 499 c 0,251,252
 925 499 925 499 957 487.5 c 128,-1,253
 989 476 989 476 1014 455 c 0,16,17
837 24 m 1,254,-1
 720 212 l 1,255,-1
 773 191 l 1,256,-1
 826 173 l 1,257,-1
 743 236 l 1,258,-1
 662 301 l 1,259,-1
 743 365 l 1,260,-1
 826 429 l 1,261,-1
 720 391 l 1,262,-1
 838 578 l 1,263,-1
 854 603 l 1,264,-1
 854 604 l 1,265,-1
 853 604 l 1,266,-1
 826 587 l 1,267,-1
 639 471 l 1,268,-1
 678 576 l 1,269,-1
 551 412 l 1,270,-1
 423 576 l 1,271,-1
 462 471 l 1,272,-1
 273 588 l 1,273,-1
 248 604 l 1,274,-1
 247 604 l 1,275,-1
 247 603 l 1,276,-1
 264 577 l 1,277,-1
 329 471 l 1,278,-1
 381 391 l 1,279,-1
 274 429 l 1,280,-1
 438 301 l 1,281,-1
 274 173 l 1,282,-1
 327 191 l 1,283,-1
 381 212 l 1,284,-1
 264 23 l 1,285,-1
 247 -2 l 1,286,-1
 247 -3 l 1,287,-1
 248 -2 l 1,288,-1
 274 14 l 1,289,-1
 462 131 l 1,290,-1
 423 25 l 1,291,-1
 551 188 l 1,292,-1
 678 25 l 1,293,-1
 639 131 l 1,294,-1
 827 14 l 1,295,-1
 853 -2 l 1,296,-1
 854 -3 l 1,297,-1
 854 -2 l 1,298,-1
 837 24 l 1,254,-1
EndSplineSet
Validated: 33
EndChar

StartChar: i
Encoding: 105 105 63
Width: 1074
GlyphClass: 2
Flags: W
LayerCount: 2
Fore
SplineSet
406 719 m 1,0,1
 348 698 348 698 304 659 c 1,2,-1
 223 740 l 1,3,4
 257 769 257 769 295 792 c 128,-1,5
 333 815 333 815 377 830 c 1,6,-1
 406 719 l 1,0,1
171 429 m 1,7,8
 165 400 165 400 165 369 c 0,9,10
 165 337 165 337 171 310 c 1,11,-1
 60 280 l 1,12,13
 51 322 51 322 51 369 c 256,14,15
 51 416 51 416 60 459 c 1,16,-1
 171 429 l 1,7,8
304 79 m 1,17,18
 350 41 350 41 406 21 c 1,19,-1
 377 -90 l 1,20,21
 333 -75 333 -75 295 -52.5 c 128,-1,22
 257 -30 257 -30 223 -1 c 1,23,-1
 304 79 l 1,17,18
702 830 m 1,24,25
 773 805 773 805 833 760 c 128,-1,26
 893 715 893 715 936 655 c 128,-1,27
 979 595 979 595 1003.5 522 c 128,-1,28
 1028 449 1028 449 1028 369 c 256,29,30
 1028 289 1028 289 1003.5 217 c 128,-1,31
 979 145 979 145 936 84.5 c 128,-1,32
 893 24 893 24 833 -20.5 c 128,-1,33
 773 -65 773 -65 702 -90 c 1,34,-1
 672 21 l 1,35,36
 725 41 725 41 769 75 c 128,-1,37
 813 109 813 109 845.5 154.5 c 128,-1,38
 878 200 878 200 896 255 c 128,-1,39
 914 310 914 310 914 369 c 0,40,41
 914 429 914 429 896 483.5 c 128,-1,42
 878 538 878 538 845.5 583.5 c 128,-1,43
 813 629 813 629 769 663.5 c 128,-1,44
 725 698 725 698 672 719 c 1,45,-1
 702 830 l 1,24,25
539 -5 m 0,46,47
 569 -5 569 -5 599 1 c 1,48,-1
 629 -110 l 1,49,50
 586 -119 586 -119 539 -119 c 256,51,52
 492 -119 492 -119 450 -110 c 1,53,-1
 480 1 l 1,54,55
 508 -5 508 -5 539 -5 c 0,46,47
190 236 m 1,56,57
 201 207 201 207 215.5 181.5 c 128,-1,58
 230 156 230 156 249 134 c 1,59,-1
 169 53 l 1,60,61
 110 119 110 119 80 207 c 1,62,-1
 190 236 l 1,56,57
249 606 m 1,63,64
 230 583 230 583 215.5 557 c 128,-1,65
 201 531 201 531 190 503 c 1,66,-1
 79 532 l 1,67,68
 95 575 95 575 117 613 c 128,-1,69
 139 651 139 651 168 686 c 1,70,-1
 249 606 l 1,63,64
539 858 m 256,71,72
 586 858 586 858 629 850 c 1,73,-1
 599 738 l 1,74,75
 570 744 570 744 539 744 c 0,76,77
 507 744 507 744 479 738 c 1,78,-1
 450 850 l 1,79,80
 492 858 492 858 539 858 c 256,71,72
284 224 m 1,81,-1
 389 370 l 1,82,-1
 284 517 l 1,83,-1
 827 370 l 1,84,-1
 284 224 l 1,81,-1
EndSplineSet
Validated: 1
EndChar

